<svg width="376" height="156" viewBox="0 0 376 156" fill="none" xmlns="http://www.w3.org/2000/svg">
<path d="M10.432 10.816C11.712 10.816 12.8213 10.976 13.76 11.296C14.6987 11.5947 15.5093 12.0213 16.192 12.576C17.536 13.664 18.4107 15.1893 18.816 17.152L14.784 17.888C14.4427 16.8 13.9093 15.9253 13.184 15.264C12.48 14.5813 11.5947 14.24 10.528 14.24C9.07733 14.24 7.904 14.848 7.008 16.064C6.048 17.3867 5.568 19.2213 5.568 21.568C5.568 23.8933 5.99467 25.7173 6.848 27.04C7.70133 28.3413 8.864 28.992 10.336 28.992C11.808 28.992 12.9173 28.64 13.664 27.936C14.4107 27.2107 14.784 26.2827 14.784 25.152H18.848C18.848 27.4773 18.1013 29.28 16.608 30.56C15.136 31.8187 13.1093 32.448 10.528 32.448C7.776 32.448 5.58933 31.488 3.968 29.568C2.32533 27.6053 1.504 24.9387 1.504 21.568C1.504 18.1547 2.34667 15.488 4.032 13.568C5.65333 11.7333 7.78667 10.816 10.432 10.816ZM23.2573 10.048H27.0333V32H23.2573V10.048ZM39.088 16.032C40.1333 16.032 41.1147 16.2027 42.032 16.544C42.9493 16.864 43.7387 17.3653 44.4 18.048C45.872 19.5413 46.608 21.6107 46.608 24.256C46.608 26.8587 45.872 28.9067 44.4 30.4C43.0773 31.7653 41.3067 32.448 39.088 32.448C36.8693 32.448 35.0773 31.7653 33.712 30.4C32.24 28.928 31.504 26.88 31.504 24.256C31.504 21.5893 32.24 19.52 33.712 18.048C35.056 16.704 36.848 16.032 39.088 16.032ZM42.832 24.224C42.832 22.5813 42.512 21.3547 41.872 20.544C41.232 19.712 40.336 19.296 39.184 19.296C38.0533 19.296 37.1253 19.712 36.4 20.544C35.6747 21.3547 35.312 22.5813 35.312 24.224C35.312 25.8667 35.632 27.104 36.272 27.936C36.9333 28.7467 37.8293 29.152 38.96 29.152C40.0907 29.152 41.0187 28.7467 41.744 27.936C42.4693 27.104 42.832 25.8667 42.832 24.224ZM53.213 27.264C53.2557 28.736 54.333 29.472 56.445 29.472C57.2557 29.472 57.917 29.3013 58.429 28.96C58.9623 28.5973 59.229 28.1813 59.229 27.712C59.229 27.2427 59.069 26.88 58.749 26.624C58.429 26.368 57.9277 26.1333 57.245 25.92L53.853 24.704C51.3357 23.8293 50.077 22.4 50.077 20.416C50.077 19.0933 50.6637 18.0373 51.837 17.248C53.0317 16.4373 54.621 16.032 56.605 16.032C58.6103 16.032 60.1463 16.4693 61.213 17.344C62.301 18.2187 62.8663 19.3173 62.909 20.64H59.357C59.3143 20.128 59.069 19.7227 58.621 19.424C58.173 19.1253 57.533 18.976 56.701 18.976C55.869 18.976 55.2183 19.1467 54.749 19.488C54.301 19.808 54.077 20.1813 54.077 20.608C54.077 21.3547 54.7063 21.9093 55.965 22.272L59.645 23.648C60.861 24.0533 61.789 24.576 62.429 25.216C63.0903 25.8347 63.421 26.6453 63.421 27.648C63.421 28.928 62.813 30.0373 61.597 30.976C60.3383 31.9573 58.6743 32.448 56.605 32.448C54.5357 32.448 52.8717 32 51.613 31.104C50.3543 30.1867 49.7143 28.9067 49.693 27.264H53.213ZM78.824 18.304C79.3573 18.9867 79.752 19.776 80.008 20.672C80.2853 21.568 80.424 22.3893 80.424 23.136C80.424 23.8827 80.3813 24.5547 80.296 25.152H70.248C70.2907 26.4107 70.6 27.4347 71.176 28.224C71.752 29.0133 72.6267 29.408 73.8 29.408C75.3573 29.408 76.2853 28.7253 76.584 27.36H80.392C80.136 28.9173 79.4213 30.144 78.248 31.04C77.032 31.9787 75.5493 32.448 73.8 32.448C71.752 32.448 70.0347 31.7013 68.648 30.208C67.2187 28.6507 66.504 26.656 66.504 24.224C66.504 21.728 67.2187 19.7227 68.648 18.208C70.0133 16.7573 71.7307 16.032 73.8 16.032C75.9547 16.032 77.6293 16.7893 78.824 18.304ZM73.832 19.04C72.7653 19.04 71.9333 19.392 71.336 20.096C70.7387 20.7787 70.3867 21.664 70.28 22.752H76.904C76.904 21.0667 76.3707 19.936 75.304 19.36C74.8987 19.1467 74.408 19.04 73.832 19.04ZM98.4465 11.232L104.143 23.584L109.839 11.232H115.055V32H111.247V16.224L105.359 29.728H102.895L96.8145 15.776V32H93.0385V11.232H98.4465ZM127.119 16.032C128.165 16.032 129.146 16.2027 130.063 16.544C130.981 16.864 131.77 17.3653 132.431 18.048C133.903 19.5413 134.639 21.6107 134.639 24.256C134.639 26.8587 133.903 28.9067 132.431 30.4C131.109 31.7653 129.338 32.448 127.119 32.448C124.901 32.448 123.109 31.7653 121.743 30.4C120.271 28.928 119.535 26.88 119.535 24.256C119.535 21.5893 120.271 19.52 121.743 18.048C123.087 16.704 124.879 16.032 127.119 16.032ZM130.863 24.224C130.863 22.5813 130.543 21.3547 129.903 20.544C129.263 19.712 128.367 19.296 127.215 19.296C126.085 19.296 125.157 19.712 124.431 20.544C123.706 21.3547 123.343 22.5813 123.343 24.224C123.343 25.8667 123.663 27.104 124.303 27.936C124.965 28.7467 125.861 29.152 126.991 29.152C128.122 29.152 129.05 28.7467 129.775 27.936C130.501 27.104 130.863 25.8667 130.863 24.224ZM142.908 19.52C143.847 17.28 145.255 16.16 147.132 16.16C147.495 16.16 147.954 16.2347 148.508 16.384L148.444 20.16C147.847 20.032 147.26 19.968 146.684 19.968C144.167 19.968 142.908 21.7067 142.908 25.184V32H139.132V16.416H142.908V19.52ZM163.293 18.304C163.826 18.9867 164.221 19.776 164.477 20.672C164.754 21.568 164.893 22.3893 164.893 23.136C164.893 23.8827 164.85 24.5547 164.765 25.152H154.717C154.759 26.4107 155.069 27.4347 155.645 28.224C156.221 29.0133 157.095 29.408 158.269 29.408C159.826 29.408 160.754 28.7253 161.053 27.36H164.861C164.605 28.9173 163.89 30.144 162.717 31.04C161.501 31.9787 160.018 32.448 158.269 32.448C156.221 32.448 154.503 31.7013 153.117 30.208C151.687 28.6507 150.973 26.656 150.973 24.224C150.973 21.728 151.687 19.7227 153.117 18.208C154.482 16.7573 156.199 16.032 158.269 16.032C160.423 16.032 162.098 16.7893 163.293 18.304ZM158.301 19.04C157.234 19.04 156.402 19.392 155.805 20.096C155.207 20.7787 154.855 21.664 154.749 22.752H161.373C161.373 21.0667 160.839 19.936 159.773 19.36C159.367 19.1467 158.877 19.04 158.301 19.04ZM184.227 11.232C187.385 11.232 189.934 12.1707 191.875 14.048C193.838 15.9253 194.819 18.4533 194.819 21.632C194.819 24.7893 193.838 27.3067 191.875 29.184C189.934 31.0613 187.385 32 184.227 32H177.475V11.232H184.227ZM181.283 28.576H184.227C186.19 28.576 187.779 27.9147 188.995 26.592C190.147 25.312 190.723 23.6587 190.723 21.632C190.723 19.5627 190.147 17.888 188.995 16.608C187.801 15.3067 186.211 14.656 184.227 14.656H181.283V28.576ZM210.293 18.304C210.826 18.9867 211.221 19.776 211.477 20.672C211.754 21.568 211.893 22.3893 211.893 23.136C211.893 23.8827 211.85 24.5547 211.765 25.152H201.717C201.759 26.4107 202.069 27.4347 202.645 28.224C203.221 29.0133 204.095 29.408 205.269 29.408C206.826 29.408 207.754 28.7253 208.053 27.36H211.861C211.605 28.9173 210.89 30.144 209.717 31.04C208.501 31.9787 207.018 32.448 205.269 32.448C203.221 32.448 201.503 31.7013 200.117 30.208C198.687 28.6507 197.973 26.656 197.973 24.224C197.973 21.728 198.687 19.7227 200.117 18.208C201.482 16.7573 203.199 16.032 205.269 16.032C207.423 16.032 209.098 16.7893 210.293 18.304ZM205.301 19.04C204.234 19.04 203.402 19.392 202.805 20.096C202.207 20.7787 201.855 21.664 201.749 22.752H208.373C208.373 21.0667 207.839 19.936 206.773 19.36C206.367 19.1467 205.877 19.04 205.301 19.04ZM221.534 22.912C222.771 22.912 224.2 23.1147 225.822 23.52V21.984C225.822 20.896 225.598 20.096 225.15 19.584C224.723 19.0507 224.008 18.784 223.006 18.784C222.024 18.784 221.267 18.9867 220.734 19.392C220.2 19.776 219.934 20.3307 219.934 21.056H215.806C215.806 19.2853 216.424 18.0053 217.661 17.216C218.92 16.4267 220.67 16.032 222.91 16.032C226.11 16.032 228.179 17.152 229.118 19.392C229.438 20.16 229.597 21.0667 229.597 22.112V32H226.302L226.014 29.92C225.011 31.6053 223.475 32.448 221.406 32.448C219.4 32.448 217.843 31.9573 216.734 30.976C215.71 30.0373 215.198 28.8533 215.198 27.424C215.198 25.9733 215.763 24.864 216.894 24.096C218.024 23.3067 219.571 22.912 221.534 22.912ZM225.822 25.92C224.563 25.5787 223.39 25.408 222.302 25.408C220.254 25.408 219.23 26.0907 219.23 27.456C219.23 28.032 219.464 28.5333 219.934 28.96C220.403 29.3653 221.15 29.568 222.174 29.568C223.219 29.568 224.072 29.2267 224.734 28.544C225.416 27.84 225.779 26.9653 225.822 25.92ZM235.101 10.048H238.877V32H235.101V10.048ZM246.932 27.264C246.974 28.736 248.052 29.472 250.164 29.472C250.974 29.472 251.636 29.3013 252.148 28.96C252.681 28.5973 252.948 28.1813 252.948 27.712C252.948 27.2427 252.788 26.88 252.468 26.624C252.148 26.368 251.646 26.1333 250.964 25.92L247.572 24.704C245.054 23.8293 243.796 22.4 243.796 20.416C243.796 19.0933 244.382 18.0373 245.556 17.248C246.75 16.4373 248.34 16.032 250.324 16.032C252.329 16.032 253.865 16.4693 254.932 17.344C256.02 18.2187 256.585 19.3173 256.628 20.64H253.076C253.033 20.128 252.788 19.7227 252.34 19.424C251.892 19.1253 251.252 18.976 250.42 18.976C249.588 18.976 248.937 19.1467 248.468 19.488C248.02 19.808 247.796 20.1813 247.796 20.608C247.796 21.3547 248.425 21.9093 249.684 22.272L253.364 23.648C254.58 24.0533 255.508 24.576 256.148 25.216C256.809 25.8347 257.14 26.6453 257.14 27.648C257.14 28.928 256.532 30.0373 255.316 30.976C254.057 31.9573 252.393 32.448 250.324 32.448C248.254 32.448 246.59 32 245.332 31.104C244.073 30.1867 243.433 28.9067 243.412 27.264H246.932ZM271.677 11.232L276.253 27.008L280.701 12.608H283.26L287.965 27.072L292.829 11.232H297.085L289.949 32H285.981L282.077 20.288L278.205 32H274.237L267.453 11.232H271.677ZM301.015 16.416H304.791V32H301.015V16.416ZM300.567 11.424C300.567 10.7413 300.769 10.208 301.175 9.824C301.58 9.41867 302.156 9.216 302.903 9.216C303.628 9.216 304.193 9.41867 304.599 9.824C305.025 10.208 305.239 10.7413 305.239 11.424C305.239 12.1067 305.025 12.6507 304.599 13.056C304.193 13.44 303.628 13.632 302.903 13.632C302.156 13.632 301.58 13.44 301.175 13.056C300.769 12.6507 300.567 12.1067 300.567 11.424ZM319.963 31.616C318.555 32.1707 317.445 32.448 316.635 32.448C315.824 32.448 315.109 32.352 314.491 32.16C313.893 31.968 313.36 31.68 312.891 31.296C311.909 30.4213 311.419 29.216 311.419 27.68V18.976H309.243V16.448H311.419V12.352H315.195V16.448H319.419V18.976H315.195V27.552C315.195 28.832 315.803 29.472 317.019 29.472C317.637 29.472 318.437 29.3013 319.419 28.96L319.963 31.616ZM327.596 18.976C328.662 17.0133 330.22 16.032 332.268 16.032C334.316 16.032 335.82 16.6613 336.78 17.92C337.761 19.1787 338.252 20.8427 338.252 22.912V32H334.476V22.912C334.476 21.76 334.198 20.896 333.644 20.32C333.089 19.7227 332.31 19.424 331.308 19.424C330.305 19.424 329.441 19.872 328.716 20.768C328.012 21.664 327.638 23.008 327.596 24.8V32H323.82V10.048H327.596V18.976ZM6.752 70.704H15.296V74H2.976V53.232H6.752V70.704ZM29.6365 60.304C30.1698 60.9867 30.5645 61.776 30.8205 62.672C31.0978 63.568 31.2365 64.3893 31.2365 65.136C31.2365 65.8827 31.1938 66.5547 31.1085 67.152H21.0605C21.1032 68.4107 21.4125 69.4347 21.9885 70.224C22.5645 71.0133 23.4392 71.408 24.6125 71.408C26.1698 71.408 27.0978 70.7253 27.3965 69.36H31.2045C30.9485 70.9173 30.2338 72.144 29.0605 73.04C27.8445 73.9787 26.3618 74.448 24.6125 74.448C22.5645 74.448 20.8472 73.7013 19.4605 72.208C18.0312 70.6507 17.3165 68.656 17.3165 66.224C17.3165 63.728 18.0312 61.7227 19.4605 60.208C20.8258 58.7573 22.5432 58.032 24.6125 58.032C26.7672 58.032 28.4418 58.7893 29.6365 60.304ZM24.6445 61.04C23.5778 61.04 22.7458 61.392 22.1485 62.096C21.5512 62.7787 21.1992 63.664 21.0925 64.752H27.7165C27.7165 63.0667 27.1832 61.936 26.1165 61.36C25.7112 61.1467 25.2205 61.04 24.6445 61.04ZM37.8693 69.264C37.9119 70.736 38.9893 71.472 41.1013 71.472C41.9119 71.472 42.5733 71.3013 43.0853 70.96C43.6186 70.5973 43.8853 70.1813 43.8853 69.712C43.8853 69.2427 43.7253 68.88 43.4053 68.624C43.0853 68.368 42.5839 68.1333 41.9013 67.92L38.5093 66.704C35.9919 65.8293 34.7333 64.4 34.7333 62.416C34.7333 61.0933 35.3199 60.0373 36.4933 59.248C37.6879 58.4373 39.2773 58.032 41.2613 58.032C43.2666 58.032 44.8026 58.4693 45.8693 59.344C46.9573 60.2187 47.5226 61.3173 47.5653 62.64H44.0133C43.9706 62.128 43.7253 61.7227 43.2773 61.424C42.8293 61.1253 42.1893 60.976 41.3573 60.976C40.5253 60.976 39.8746 61.1467 39.4053 61.488C38.9573 61.808 38.7333 62.1813 38.7333 62.608C38.7333 63.3547 39.3626 63.9093 40.6213 64.272L44.3013 65.648C45.5173 66.0533 46.4453 66.576 47.0853 67.216C47.7466 67.8347 48.0773 68.6453 48.0773 69.648C48.0773 70.928 47.4693 72.0373 46.2533 72.976C44.9946 73.9573 43.3306 74.448 41.2613 74.448C39.1919 74.448 37.5279 74 36.2693 73.104C35.0106 72.1867 34.3706 70.9067 34.3493 69.264H37.8693ZM54.7443 69.264C54.7869 70.736 55.8643 71.472 57.9763 71.472C58.7869 71.472 59.4483 71.3013 59.9603 70.96C60.4936 70.5973 60.7603 70.1813 60.7603 69.712C60.7603 69.2427 60.6003 68.88 60.2803 68.624C59.9603 68.368 59.4589 68.1333 58.7763 67.92L55.3843 66.704C52.8669 65.8293 51.6083 64.4 51.6083 62.416C51.6083 61.0933 52.1949 60.0373 53.3683 59.248C54.5629 58.4373 56.1523 58.032 58.1363 58.032C60.1416 58.032 61.6776 58.4693 62.7443 59.344C63.8323 60.2187 64.3976 61.3173 64.4403 62.64H60.8883C60.8456 62.128 60.6003 61.7227 60.1523 61.424C59.7043 61.1253 59.0643 60.976 58.2323 60.976C57.4003 60.976 56.7496 61.1467 56.2803 61.488C55.8323 61.808 55.6083 62.1813 55.6083 62.608C55.6083 63.3547 56.2376 63.9093 57.4963 64.272L61.1763 65.648C62.3923 66.0533 63.3203 66.576 63.9603 67.216C64.6216 67.8347 64.9523 68.6453 64.9523 69.648C64.9523 70.928 64.3443 72.0373 63.1283 72.976C61.8696 73.9573 60.2056 74.448 58.1363 74.448C56.0669 74.448 54.4029 74 53.1443 73.104C51.8856 72.1867 51.2456 70.9067 51.2243 69.264H54.7443ZM77.569 53.232H90.945V56.496H81.345V61.968H90.337V65.232H81.345V70.704H90.945V74H77.569V53.232ZM94.655 58.448H96.959V56.624C96.959 55.024 97.4283 53.7973 98.367 52.944C99.2203 52.176 100.33 51.792 101.695 51.792C102.57 51.792 103.647 51.92 104.927 52.176L104.191 55.088C103.594 54.8747 103.05 54.768 102.559 54.768C102.09 54.768 101.674 54.9067 101.311 55.184C100.948 55.44 100.767 55.9307 100.767 56.656V58.448H103.615V60.976H100.767V74H96.959V60.976H94.655V58.448ZM106.374 58.448H108.678V56.624C108.678 55.024 109.147 53.7973 110.086 52.944C110.939 52.176 112.048 51.792 113.414 51.792C114.288 51.792 115.366 51.92 116.646 52.176L115.91 55.088C115.312 54.8747 114.768 54.768 114.278 54.768C113.808 54.768 113.392 54.9067 113.03 55.184C112.667 55.44 112.486 55.9307 112.486 56.656V58.448H115.334V60.976H112.486V74H108.678V60.976H106.374V58.448ZM125.901 58.032C126.946 58.032 127.927 58.2027 128.845 58.544C129.762 58.864 130.551 59.3653 131.213 60.048C132.685 61.5413 133.421 63.6107 133.421 66.256C133.421 68.8587 132.685 70.9067 131.213 72.4C129.89 73.7653 128.119 74.448 125.901 74.448C123.682 74.448 121.89 73.7653 120.525 72.4C119.053 70.928 118.317 68.88 118.317 66.256C118.317 63.5893 119.053 61.52 120.525 60.048C121.869 58.704 123.661 58.032 125.901 58.032ZM129.645 66.224C129.645 64.5813 129.325 63.3547 128.685 62.544C128.045 61.712 127.149 61.296 125.997 61.296C124.866 61.296 123.938 61.712 123.213 62.544C122.487 63.3547 122.125 64.5813 122.125 66.224C122.125 67.8667 122.445 69.104 123.085 69.936C123.746 70.7467 124.642 71.152 125.773 71.152C126.903 71.152 127.831 70.7467 128.557 69.936C129.282 69.104 129.645 67.8667 129.645 66.224ZM141.69 61.52C142.628 59.28 144.036 58.16 145.914 58.16C146.276 58.16 146.735 58.2347 147.29 58.384L147.226 62.16C146.628 62.032 146.042 61.968 145.466 61.968C142.948 61.968 141.69 63.7067 141.69 67.184V74H137.914V58.416H141.69V61.52ZM159.994 73.616C158.586 74.1707 157.477 74.448 156.666 74.448C155.855 74.448 155.141 74.352 154.522 74.16C153.925 73.968 153.391 73.68 152.922 73.296C151.941 72.4213 151.45 71.216 151.45 69.68V60.976H149.274V58.448H151.45V54.352H155.226V58.448H159.45V60.976H155.226V69.552C155.226 70.832 155.834 71.472 157.05 71.472C157.669 71.472 158.469 71.3013 159.45 70.96L159.994 73.616Z" fill="black"/>
<path d="M4.716 109.318L7.92 116.266L11.124 109.318H14.058V121H11.916V112.126L8.604 119.722H7.218L3.798 111.874V121H1.674V109.318H4.716ZM20.2864 115.888C20.9824 115.888 21.7864 116.002 22.6984 116.23V115.366C22.6984 114.754 22.5724 114.304 22.3204 114.016C22.0804 113.716 21.6784 113.566 21.1144 113.566C20.5624 113.566 20.1364 113.68 19.8364 113.908C19.5364 114.124 19.3864 114.436 19.3864 114.844H17.0644C17.0644 113.848 17.4124 113.128 18.1084 112.684C18.8164 112.24 19.8004 112.018 21.0604 112.018C22.8604 112.018 24.0244 112.648 24.5524 113.908C24.7324 114.34 24.8224 114.85 24.8224 115.438V121H22.9684L22.8064 119.83C22.2424 120.778 21.3784 121.252 20.2144 121.252C19.0864 121.252 18.2104 120.976 17.5864 120.424C17.0104 119.896 16.7224 119.23 16.7224 118.426C16.7224 117.61 17.0404 116.986 17.6764 116.554C18.3124 116.11 19.1824 115.888 20.2864 115.888ZM22.6984 117.58C21.9904 117.388 21.3304 117.292 20.7184 117.292C19.5664 117.292 18.9904 117.676 18.9904 118.444C18.9904 118.768 19.1224 119.05 19.3864 119.29C19.6504 119.518 20.0704 119.632 20.6464 119.632C21.2344 119.632 21.7144 119.44 22.0864 119.056C22.4704 118.66 22.6744 118.168 22.6984 117.58ZM30.0061 113.764C30.5821 112.6 31.5061 112.018 32.7781 112.018C33.8581 112.018 34.6681 112.372 35.2081 113.08C35.7601 113.788 36.0361 114.724 36.0361 115.888V121H33.9121V115.888C33.9121 115.24 33.7561 114.754 33.4441 114.43C33.1321 114.094 32.6941 113.926 32.1301 113.926C31.5661 113.926 31.0801 114.178 30.6721 114.682C30.2761 115.186 30.0661 115.942 30.0421 116.95V121H27.9181V112.252H29.7721L30.0061 113.764ZM42.013 115.888C42.709 115.888 43.513 116.002 44.425 116.23V115.366C44.425 114.754 44.299 114.304 44.047 114.016C43.807 113.716 43.405 113.566 42.841 113.566C42.289 113.566 41.863 113.68 41.563 113.908C41.263 114.124 41.113 114.436 41.113 114.844H38.791C38.791 113.848 39.139 113.128 39.835 112.684C40.543 112.24 41.527 112.018 42.787 112.018C44.587 112.018 45.751 112.648 46.279 113.908C46.459 114.34 46.549 114.85 46.549 115.438V121H44.695L44.533 119.83C43.969 120.778 43.105 121.252 41.941 121.252C40.813 121.252 39.937 120.976 39.313 120.424C38.737 119.896 38.449 119.23 38.449 118.426C38.449 117.61 38.767 116.986 39.403 116.554C40.039 116.11 40.909 115.888 42.013 115.888ZM44.425 117.58C43.717 117.388 43.057 117.292 42.445 117.292C41.293 117.292 40.717 117.676 40.717 118.444C40.717 118.768 40.849 119.05 41.113 119.29C41.377 119.518 41.797 119.632 42.373 119.632C42.961 119.632 43.441 119.44 43.813 119.056C44.197 118.66 44.401 118.168 44.425 117.58ZM50.4007 117.418C49.6927 116.818 49.3387 116.068 49.3387 115.168C49.3387 114.22 49.7107 113.452 50.4547 112.864C51.1747 112.3 51.9967 112.018 52.9207 112.018C53.8567 112.018 54.6367 112.192 55.2607 112.54C55.3327 111.856 55.6267 111.304 56.1427 110.884C56.6467 110.464 57.2407 110.254 57.9247 110.254L57.8167 112.288C56.7847 112.288 56.2507 112.63 56.2147 113.314C56.6587 113.866 56.8807 114.43 56.8807 115.006C56.8807 115.582 56.7787 116.068 56.5747 116.464C56.3707 116.848 56.0947 117.172 55.7467 117.436C55.0267 118.012 54.1507 118.3 53.1187 118.3C52.5307 118.3 51.9967 118.21 51.5167 118.03C51.0367 118.174 50.7967 118.462 50.7967 118.894C50.7967 119.434 51.2527 119.704 52.1647 119.704H55.0987C57.0907 119.704 58.0867 120.4 58.0867 121.792C58.0867 122.26 57.9667 122.716 57.7267 123.16C57.4987 123.616 57.1627 124.018 56.7187 124.366C55.7347 125.134 54.4987 125.518 53.0107 125.518C51.5707 125.518 50.4007 125.224 49.5007 124.636C48.6607 124.072 48.2407 123.382 48.2407 122.566C48.2407 122.026 48.4027 121.594 48.7267 121.27C49.0627 120.958 49.5007 120.76 50.0407 120.676C49.3327 120.244 48.9787 119.71 48.9787 119.074C48.9787 118.654 49.1107 118.306 49.3747 118.03C49.6387 117.742 49.9807 117.538 50.4007 117.418ZM52.0207 121.198C50.8927 121.246 50.3287 121.672 50.3287 122.476C50.3287 122.884 50.5627 123.208 51.0307 123.448C51.5107 123.7 52.0747 123.826 52.7227 123.826C53.3707 123.826 53.8747 123.772 54.2347 123.664C54.6067 123.556 54.9187 123.412 55.1707 123.232C55.7107 122.872 55.9807 122.44 55.9807 121.936C55.9807 121.72 55.9027 121.54 55.7467 121.396C55.6027 121.264 55.3867 121.198 55.0987 121.198H52.0207ZM54.7747 115.15C54.7747 114.658 54.6367 114.262 54.3607 113.962C54.0967 113.65 53.6887 113.494 53.1367 113.494C52.5847 113.494 52.1647 113.65 51.8767 113.962C51.5887 114.262 51.4447 114.658 51.4447 115.15C51.4447 115.63 51.5887 116.026 51.8767 116.338C52.1647 116.65 52.5847 116.806 53.1367 116.806C53.6887 116.806 54.0967 116.65 54.3607 116.338C54.6367 116.026 54.7747 115.63 54.7747 115.15ZM66.2233 113.296C66.5233 113.68 66.7453 114.124 66.8893 114.628C67.0453 115.132 67.1233 115.594 67.1233 116.014C67.1233 116.434 67.0993 116.812 67.0513 117.148H61.3993C61.4233 117.856 61.5973 118.432 61.9213 118.876C62.2453 119.32 62.7373 119.542 63.3973 119.542C64.2733 119.542 64.7953 119.158 64.9633 118.39H67.1053C66.9613 119.266 66.5593 119.956 65.8993 120.46C65.2153 120.988 64.3813 121.252 63.3973 121.252C62.2453 121.252 61.2793 120.832 60.4993 119.992C59.6953 119.116 59.2933 117.994 59.2933 116.626C59.2933 115.222 59.6953 114.094 60.4993 113.242C61.2673 112.426 62.2333 112.018 63.3973 112.018C64.6093 112.018 65.5513 112.444 66.2233 113.296ZM63.4153 113.71C62.8153 113.71 62.3473 113.908 62.0113 114.304C61.6753 114.688 61.4773 115.186 61.4173 115.798H65.1433C65.1433 114.85 64.8433 114.214 64.2433 113.89C64.0153 113.77 63.7393 113.71 63.4153 113.71ZM75.2989 112.252L77.4049 118.552L79.2409 112.252H81.4009L78.0529 122.584C77.7049 123.628 77.2789 124.378 76.7749 124.834C76.2829 125.29 75.6529 125.518 74.8849 125.518C74.1049 125.518 73.3249 125.326 72.5449 124.942V123.07C73.1689 123.466 73.7989 123.664 74.4349 123.664C74.8549 123.664 75.1969 123.496 75.4609 123.16C75.7369 122.824 75.9589 122.386 76.1269 121.846L76.3969 121L72.8869 112.252H75.2989ZM86.7272 112.018C87.3152 112.018 87.8672 112.114 88.3832 112.306C88.8992 112.486 89.3432 112.768 89.7152 113.152C90.5432 113.992 90.9572 115.156 90.9572 116.644C90.9572 118.108 90.5432 119.26 89.7152 120.1C88.9712 120.868 87.9752 121.252 86.7272 121.252C85.4792 121.252 84.4712 120.868 83.7032 120.1C82.8752 119.272 82.4612 118.12 82.4612 116.644C82.4612 115.144 82.8752 113.98 83.7032 113.152C84.4592 112.396 85.4672 112.018 86.7272 112.018ZM88.8332 116.626C88.8332 115.702 88.6532 115.012 88.2932 114.556C87.9332 114.088 87.4292 113.854 86.7812 113.854C86.1452 113.854 85.6232 114.088 85.2152 114.556C84.8072 115.012 84.6032 115.702 84.6032 116.626C84.6032 117.55 84.7832 118.246 85.1432 118.714C85.5152 119.17 86.0192 119.398 86.6552 119.398C87.2912 119.398 87.8132 119.17 88.2212 118.714C88.6292 118.246 88.8332 117.55 88.8332 116.626ZM99.2985 119.416C98.7465 120.58 97.8585 121.162 96.6345 121.162C95.0865 121.162 94.0665 120.556 93.5745 119.344C93.3945 118.924 93.3045 118.414 93.3045 117.814V112.234H95.4285V117.598C95.4285 118.174 95.5665 118.606 95.8425 118.894C96.1185 119.17 96.4545 119.308 96.8505 119.308C97.2585 119.308 97.6005 119.254 97.8765 119.146C98.1525 119.026 98.3925 118.852 98.5965 118.624C99.0405 118.108 99.2745 117.418 99.2985 116.554V112.234H101.423V121H99.2985V119.416ZM106.894 113.98C107.422 112.72 108.214 112.09 109.27 112.09C109.474 112.09 109.732 112.132 110.044 112.216L110.008 114.34C109.672 114.268 109.342 114.232 109.018 114.232C107.602 114.232 106.894 115.21 106.894 117.166V121H104.77V112.234H106.894V113.98ZM116.811 108.652H118.935V121H116.811V108.652ZM128.38 113.296C128.68 113.68 128.902 114.124 129.046 114.628C129.202 115.132 129.28 115.594 129.28 116.014C129.28 116.434 129.256 116.812 129.208 117.148H123.556C123.58 117.856 123.754 118.432 124.078 118.876C124.402 119.32 124.894 119.542 125.554 119.542C126.43 119.542 126.952 119.158 127.12 118.39H129.262C129.118 119.266 128.716 119.956 128.056 120.46C127.372 120.988 126.538 121.252 125.554 121.252C124.402 121.252 123.436 120.832 122.656 119.992C121.852 119.116 121.45 117.994 121.45 116.626C121.45 115.222 121.852 114.094 122.656 113.242C123.424 112.426 124.39 112.018 125.554 112.018C126.766 112.018 127.708 112.444 128.38 113.296ZM125.572 113.71C124.972 113.71 124.504 113.908 124.168 114.304C123.832 114.688 123.634 115.186 123.574 115.798H127.3C127.3 114.85 127 114.214 126.4 113.89C126.172 113.77 125.896 113.71 125.572 113.71ZM134.702 115.888C135.398 115.888 136.202 116.002 137.114 116.23V115.366C137.114 114.754 136.988 114.304 136.736 114.016C136.496 113.716 136.094 113.566 135.53 113.566C134.978 113.566 134.552 113.68 134.252 113.908C133.952 114.124 133.802 114.436 133.802 114.844H131.48C131.48 113.848 131.828 113.128 132.524 112.684C133.232 112.24 134.216 112.018 135.476 112.018C137.276 112.018 138.44 112.648 138.968 113.908C139.148 114.34 139.238 114.85 139.238 115.438V121H137.384L137.222 119.83C136.658 120.778 135.794 121.252 134.63 121.252C133.502 121.252 132.626 120.976 132.002 120.424C131.426 119.896 131.138 119.23 131.138 118.426C131.138 117.61 131.456 116.986 132.092 116.554C132.728 116.11 133.598 115.888 134.702 115.888ZM137.114 117.58C136.406 117.388 135.746 117.292 135.134 117.292C133.982 117.292 133.406 117.676 133.406 118.444C133.406 118.768 133.538 119.05 133.802 119.29C134.066 119.518 134.486 119.632 135.062 119.632C135.65 119.632 136.13 119.44 136.502 119.056C136.886 118.66 137.09 118.168 137.114 117.58ZM148.04 119.65C147.5 120.718 146.672 121.252 145.556 121.252C144.44 121.252 143.504 120.826 142.748 119.974C141.968 119.086 141.578 117.958 141.578 116.59C141.578 115.222 141.95 114.112 142.694 113.26C143.426 112.432 144.338 112.018 145.43 112.018C146.522 112.018 147.344 112.456 147.896 113.332V108.652H150.038V121H148.292L148.04 119.65ZM145.826 113.926C145.226 113.926 144.722 114.172 144.314 114.664C143.918 115.144 143.72 115.792 143.72 116.608C143.72 117.424 143.924 118.084 144.332 118.588C144.74 119.08 145.256 119.326 145.88 119.326C146.396 119.326 146.858 119.122 147.266 118.714C147.686 118.294 147.896 117.766 147.896 117.13V115.996C147.872 115.372 147.662 114.862 147.266 114.466C146.906 114.106 146.426 113.926 145.826 113.926ZM154.579 118.336C154.603 119.164 155.209 119.578 156.397 119.578C156.853 119.578 157.225 119.482 157.513 119.29C157.813 119.086 157.963 118.852 157.963 118.588C157.963 118.324 157.873 118.12 157.693 117.976C157.513 117.832 157.231 117.7 156.847 117.58L154.939 116.896C153.523 116.404 152.815 115.6 152.815 114.484C152.815 113.74 153.145 113.146 153.805 112.702C154.477 112.246 155.371 112.018 156.487 112.018C157.615 112.018 158.479 112.264 159.079 112.756C159.691 113.248 160.009 113.866 160.033 114.61H158.035C158.011 114.322 157.873 114.094 157.621 113.926C157.369 113.758 157.009 113.674 156.541 113.674C156.073 113.674 155.707 113.77 155.443 113.962C155.191 114.142 155.065 114.352 155.065 114.592C155.065 115.012 155.419 115.324 156.127 115.528L158.197 116.302C158.881 116.53 159.403 116.824 159.763 117.184C160.135 117.532 160.321 117.988 160.321 118.552C160.321 119.272 159.979 119.896 159.295 120.424C158.587 120.976 157.651 121.252 156.487 121.252C155.323 121.252 154.387 121 153.679 120.496C152.971 119.98 152.611 119.26 152.599 118.336H154.579ZM168.624 118.336C168.648 119.164 169.254 119.578 170.442 119.578C170.898 119.578 171.27 119.482 171.558 119.29C171.858 119.086 172.008 118.852 172.008 118.588C172.008 118.324 171.918 118.12 171.738 117.976C171.558 117.832 171.276 117.7 170.892 117.58L168.984 116.896C167.568 116.404 166.86 115.6 166.86 114.484C166.86 113.74 167.19 113.146 167.85 112.702C168.522 112.246 169.416 112.018 170.532 112.018C171.66 112.018 172.524 112.264 173.124 112.756C173.736 113.248 174.054 113.866 174.078 114.61H172.08C172.056 114.322 171.918 114.094 171.666 113.926C171.414 113.758 171.054 113.674 170.586 113.674C170.118 113.674 169.752 113.77 169.488 113.962C169.236 114.142 169.11 114.352 169.11 114.592C169.11 115.012 169.464 115.324 170.172 115.528L172.242 116.302C172.926 116.53 173.448 116.824 173.808 117.184C174.18 117.532 174.366 117.988 174.366 118.552C174.366 119.272 174.024 119.896 173.34 120.424C172.632 120.976 171.696 121.252 170.532 121.252C169.368 121.252 168.432 121 167.724 120.496C167.016 119.98 166.656 119.26 166.644 118.336H168.624ZM183.03 113.296C183.33 113.68 183.552 114.124 183.696 114.628C183.852 115.132 183.93 115.594 183.93 116.014C183.93 116.434 183.906 116.812 183.858 117.148H178.206C178.23 117.856 178.404 118.432 178.728 118.876C179.052 119.32 179.544 119.542 180.204 119.542C181.08 119.542 181.602 119.158 181.77 118.39H183.912C183.768 119.266 183.366 119.956 182.706 120.46C182.022 120.988 181.188 121.252 180.204 121.252C179.052 121.252 178.086 120.832 177.306 119.992C176.502 119.116 176.1 117.994 176.1 116.626C176.1 115.222 176.502 114.094 177.306 113.242C178.074 112.426 179.04 112.018 180.204 112.018C181.416 112.018 182.358 112.444 183.03 113.296ZM180.222 113.71C179.622 113.71 179.154 113.908 178.818 114.304C178.482 114.688 178.284 115.186 178.224 115.798H181.95C181.95 114.85 181.65 114.214 181.05 113.89C180.822 113.77 180.546 113.71 180.222 113.71ZM189.353 115.888C190.049 115.888 190.853 116.002 191.765 116.23V115.366C191.765 114.754 191.639 114.304 191.387 114.016C191.147 113.716 190.745 113.566 190.181 113.566C189.629 113.566 189.203 113.68 188.903 113.908C188.603 114.124 188.453 114.436 188.453 114.844H186.131C186.131 113.848 186.479 113.128 187.175 112.684C187.883 112.24 188.867 112.018 190.127 112.018C191.927 112.018 193.091 112.648 193.619 113.908C193.799 114.34 193.889 114.85 193.889 115.438V121H192.035L191.873 119.83C191.309 120.778 190.445 121.252 189.281 121.252C188.153 121.252 187.277 120.976 186.653 120.424C186.077 119.896 185.789 119.23 185.789 118.426C185.789 117.61 186.107 116.986 186.743 116.554C187.379 116.11 188.249 115.888 189.353 115.888ZM191.765 117.58C191.057 117.388 190.397 117.292 189.785 117.292C188.633 117.292 188.057 117.676 188.057 118.444C188.057 118.768 188.189 119.05 188.453 119.29C188.717 119.518 189.137 119.632 189.713 119.632C190.301 119.632 190.781 119.44 191.153 119.056C191.537 118.66 191.741 118.168 191.765 117.58ZM204.761 113.908C205.325 112.648 206.315 112.018 207.731 112.018C208.775 112.018 209.585 112.372 210.161 113.08C210.713 113.752 210.989 114.688 210.989 115.888V121H208.847V115.888C208.847 115.24 208.691 114.754 208.379 114.43C208.067 114.094 207.629 113.926 207.065 113.926C206.501 113.926 206.039 114.172 205.679 114.664C205.319 115.156 205.127 115.9 205.103 116.896V121H202.979V115.888C202.979 115.24 202.823 114.754 202.511 114.43C202.199 114.094 201.761 113.926 201.197 113.926C200.633 113.926 200.147 114.178 199.739 114.682C199.343 115.186 199.133 115.942 199.109 116.95V121H196.985V112.252H198.839L199.073 113.764C199.649 112.6 200.573 112.018 201.845 112.018C202.577 112.018 203.183 112.186 203.663 112.522C204.155 112.858 204.521 113.32 204.761 113.908ZM214.07 108.652H216.194V121H214.07V108.652ZM225.639 113.296C225.939 113.68 226.161 114.124 226.305 114.628C226.461 115.132 226.539 115.594 226.539 116.014C226.539 116.434 226.515 116.812 226.467 117.148H220.815C220.839 117.856 221.013 118.432 221.337 118.876C221.661 119.32 222.153 119.542 222.813 119.542C223.689 119.542 224.211 119.158 224.379 118.39H226.521C226.377 119.266 225.975 119.956 225.315 120.46C224.631 120.988 223.797 121.252 222.813 121.252C221.661 121.252 220.695 120.832 219.915 119.992C219.111 119.116 218.709 117.994 218.709 116.626C218.709 115.222 219.111 114.094 219.915 113.242C220.683 112.426 221.649 112.018 222.813 112.018C224.025 112.018 224.967 112.444 225.639 113.296ZM222.831 113.71C222.231 113.71 221.763 113.908 221.427 114.304C221.091 114.688 220.893 115.186 220.833 115.798H224.559C224.559 114.85 224.259 114.214 223.659 113.89C223.431 113.77 223.155 113.71 222.831 113.71ZM230.27 118.336C230.294 119.164 230.9 119.578 232.088 119.578C232.544 119.578 232.916 119.482 233.204 119.29C233.504 119.086 233.654 118.852 233.654 118.588C233.654 118.324 233.564 118.12 233.384 117.976C233.204 117.832 232.922 117.7 232.538 117.58L230.63 116.896C229.214 116.404 228.506 115.6 228.506 114.484C228.506 113.74 228.836 113.146 229.496 112.702C230.168 112.246 231.062 112.018 232.178 112.018C233.306 112.018 234.17 112.264 234.77 112.756C235.382 113.248 235.7 113.866 235.724 114.61H233.726C233.702 114.322 233.564 114.094 233.312 113.926C233.06 113.758 232.7 113.674 232.232 113.674C231.764 113.674 231.398 113.77 231.134 113.962C230.882 114.142 230.756 114.352 230.756 114.592C230.756 115.012 231.11 115.324 231.818 115.528L233.888 116.302C234.572 116.53 235.094 116.824 235.454 117.184C235.826 117.532 236.012 117.988 236.012 118.552C236.012 119.272 235.67 119.896 234.986 120.424C234.278 120.976 233.342 121.252 232.178 121.252C231.014 121.252 230.078 121 229.37 120.496C228.662 119.98 228.302 119.26 228.29 118.336H230.27ZM239.762 118.336C239.786 119.164 240.392 119.578 241.58 119.578C242.036 119.578 242.408 119.482 242.696 119.29C242.996 119.086 243.146 118.852 243.146 118.588C243.146 118.324 243.056 118.12 242.876 117.976C242.696 117.832 242.414 117.7 242.03 117.58L240.122 116.896C238.706 116.404 237.998 115.6 237.998 114.484C237.998 113.74 238.328 113.146 238.988 112.702C239.66 112.246 240.554 112.018 241.67 112.018C242.798 112.018 243.662 112.264 244.262 112.756C244.874 113.248 245.192 113.866 245.216 114.61H243.218C243.194 114.322 243.056 114.094 242.804 113.926C242.552 113.758 242.192 113.674 241.724 113.674C241.256 113.674 240.89 113.77 240.626 113.962C240.374 114.142 240.248 114.352 240.248 114.592C240.248 115.012 240.602 115.324 241.31 115.528L243.38 116.302C244.064 116.53 244.586 116.824 244.946 117.184C245.318 117.532 245.504 117.988 245.504 118.552C245.504 119.272 245.162 119.896 244.478 120.424C243.77 120.976 242.834 121.252 241.67 121.252C240.506 121.252 239.57 121 238.862 120.496C238.154 119.98 237.794 119.26 237.782 118.336H239.762ZM248.067 108.652H250.191V121H248.067V108.652ZM254.613 112.252L256.719 118.552L258.555 112.252H260.715L257.367 122.584C257.019 123.628 256.593 124.378 256.089 124.834C255.597 125.29 254.967 125.518 254.199 125.518C253.419 125.518 252.639 125.326 251.859 124.942V123.07C252.483 123.466 253.113 123.664 253.749 123.664C254.169 123.664 254.511 123.496 254.775 123.16C255.051 122.824 255.273 122.386 255.441 121.846L255.711 121L252.201 112.252H254.613ZM270.036 115.888C270.732 115.888 271.536 116.002 272.448 116.23V115.366C272.448 114.754 272.322 114.304 272.07 114.016C271.83 113.716 271.428 113.566 270.864 113.566C270.312 113.566 269.886 113.68 269.586 113.908C269.286 114.124 269.136 114.436 269.136 114.844H266.814C266.814 113.848 267.162 113.128 267.858 112.684C268.566 112.24 269.55 112.018 270.81 112.018C272.61 112.018 273.774 112.648 274.302 113.908C274.482 114.34 274.572 114.85 274.572 115.438V121H272.718L272.556 119.83C271.992 120.778 271.128 121.252 269.964 121.252C268.836 121.252 267.96 120.976 267.336 120.424C266.76 119.896 266.472 119.23 266.472 118.426C266.472 117.61 266.79 116.986 267.426 116.554C268.062 116.11 268.932 115.888 270.036 115.888ZM272.448 117.58C271.74 117.388 271.08 117.292 270.468 117.292C269.316 117.292 268.74 117.676 268.74 118.444C268.74 118.768 268.872 119.05 269.136 119.29C269.4 119.518 269.82 119.632 270.396 119.632C270.984 119.632 271.464 119.44 271.836 119.056C272.22 118.66 272.424 118.168 272.448 117.58ZM279.756 113.764C280.332 112.6 281.256 112.018 282.528 112.018C283.608 112.018 284.418 112.372 284.958 113.08C285.51 113.788 285.786 114.724 285.786 115.888V121H283.662V115.888C283.662 115.24 283.506 114.754 283.194 114.43C282.882 114.094 282.444 113.926 281.88 113.926C281.316 113.926 280.83 114.178 280.422 114.682C280.026 115.186 279.816 115.942 279.792 116.95V121H277.668V112.252H279.522L279.756 113.764ZM294.589 119.65C294.049 120.718 293.221 121.252 292.105 121.252C290.989 121.252 290.053 120.826 289.297 119.974C288.517 119.086 288.127 117.958 288.127 116.59C288.127 115.222 288.499 114.112 289.243 113.26C289.975 112.432 290.887 112.018 291.979 112.018C293.071 112.018 293.893 112.456 294.445 113.332V108.652H296.587V121H294.841L294.589 119.65ZM292.375 113.926C291.775 113.926 291.271 114.172 290.863 114.664C290.467 115.144 290.269 115.792 290.269 116.608C290.269 117.424 290.473 118.084 290.881 118.588C291.289 119.08 291.805 119.326 292.429 119.326C292.945 119.326 293.407 119.122 293.815 118.714C294.235 118.294 294.445 117.766 294.445 117.13V115.996C294.421 115.372 294.211 114.862 293.815 114.466C293.455 114.106 292.975 113.926 292.375 113.926ZM306.616 113.674C307.216 112.57 308.092 112.018 309.244 112.018C310.396 112.018 311.242 112.372 311.782 113.08C312.334 113.788 312.61 114.724 312.61 115.888V121H310.486V115.888C310.486 115.24 310.33 114.754 310.018 114.43C309.706 114.094 309.268 113.926 308.704 113.926C308.14 113.926 307.654 114.178 307.246 114.682C306.85 115.186 306.64 115.942 306.616 116.95V121H304.492V108.652H306.616V113.674ZM321.809 113.296C322.109 113.68 322.331 114.124 322.475 114.628C322.631 115.132 322.709 115.594 322.709 116.014C322.709 116.434 322.685 116.812 322.637 117.148H316.985C317.009 117.856 317.183 118.432 317.507 118.876C317.831 119.32 318.323 119.542 318.983 119.542C319.859 119.542 320.381 119.158 320.549 118.39H322.691C322.547 119.266 322.145 119.956 321.485 120.46C320.801 120.988 319.967 121.252 318.983 121.252C317.831 121.252 316.865 120.832 316.085 119.992C315.281 119.116 314.879 117.994 314.879 116.626C314.879 115.222 315.281 114.094 316.085 113.242C316.853 112.426 317.819 112.018 318.983 112.018C320.195 112.018 321.137 112.444 321.809 113.296ZM319.001 113.71C318.401 113.71 317.933 113.908 317.597 114.304C317.261 114.688 317.063 115.186 317.003 115.798H320.729C320.729 114.85 320.429 114.214 319.829 113.89C319.601 113.77 319.325 113.71 319.001 113.71ZM325.252 108.652H327.376V121H325.252V108.652ZM332.663 113.44C333.215 112.492 334.055 112.018 335.183 112.018C336.263 112.018 337.187 112.426 337.955 113.242C338.771 114.106 339.179 115.234 339.179 116.626C339.179 118.03 338.765 119.164 337.937 120.028C337.169 120.844 336.251 121.252 335.183 121.252C334.115 121.252 333.335 120.934 332.843 120.298V125.266H330.719V112.252H332.465L332.663 113.44ZM334.805 119.326C335.057 119.326 335.315 119.272 335.579 119.164C335.855 119.056 336.101 118.888 336.317 118.66C336.797 118.156 337.037 117.484 337.037 116.644C337.037 115.792 336.827 115.126 336.407 114.646C335.999 114.166 335.495 113.926 334.895 113.926C334.307 113.926 333.821 114.1 333.437 114.448C333.065 114.784 332.867 115.27 332.843 115.906V117.472C332.843 118.036 333.041 118.492 333.437 118.84C333.809 119.164 334.265 119.326 334.805 119.326ZM6.606 147.784C5.814 148.096 5.19 148.252 4.734 148.252C4.278 148.252 3.876 148.198 3.528 148.09C3.192 147.982 2.892 147.82 2.628 147.604C2.076 147.112 1.8 146.434 1.8 145.57V140.674H0.576V139.252H1.8V136.948H3.924V139.252H6.3V140.674H3.924V145.498C3.924 146.218 4.266 146.578 4.95 146.578C5.298 146.578 5.748 146.482 6.3 146.29L6.606 147.784ZM10.8996 140.674C11.4996 139.57 12.3756 139.018 13.5276 139.018C14.6796 139.018 15.5256 139.372 16.0656 140.08C16.6176 140.788 16.8936 141.724 16.8936 142.888V148H14.7696V142.888C14.7696 142.24 14.6136 141.754 14.3016 141.43C13.9896 141.094 13.5516 140.926 12.9876 140.926C12.4236 140.926 11.9376 141.178 11.5296 141.682C11.1336 142.186 10.9236 142.942 10.8996 143.95V148H8.77556V135.652H10.8996V140.674ZM26.0924 140.296C26.3924 140.68 26.6144 141.124 26.7584 141.628C26.9144 142.132 26.9924 142.594 26.9924 143.014C26.9924 143.434 26.9684 143.812 26.9204 144.148H21.2684C21.2924 144.856 21.4664 145.432 21.7904 145.876C22.1144 146.32 22.6064 146.542 23.2664 146.542C24.1424 146.542 24.6644 146.158 24.8324 145.39H26.9744C26.8304 146.266 26.4284 146.956 25.7684 147.46C25.0844 147.988 24.2504 148.252 23.2664 148.252C22.1144 148.252 21.1484 147.832 20.3684 146.992C19.5644 146.116 19.1624 144.994 19.1624 143.626C19.1624 142.222 19.5644 141.094 20.3684 140.242C21.1364 139.426 22.1024 139.018 23.2664 139.018C24.4784 139.018 25.4204 139.444 26.0924 140.296ZM23.2844 140.71C22.6844 140.71 22.2164 140.908 21.8804 141.304C21.5444 141.688 21.3464 142.186 21.2864 142.798H25.0124C25.0124 141.85 24.7124 141.214 24.1124 140.89C23.8844 140.77 23.6084 140.71 23.2844 140.71ZM37.3113 140.908C37.8753 139.648 38.8653 139.018 40.2813 139.018C41.3253 139.018 42.1353 139.372 42.7113 140.08C43.2633 140.752 43.5393 141.688 43.5393 142.888V148H41.3973V142.888C41.3973 142.24 41.2413 141.754 40.9293 141.43C40.6173 141.094 40.1793 140.926 39.6153 140.926C39.0513 140.926 38.5893 141.172 38.2293 141.664C37.8693 142.156 37.6773 142.9 37.6533 143.896V148H35.5293V142.888C35.5293 142.24 35.3733 141.754 35.0613 141.43C34.7493 141.094 34.3113 140.926 33.7473 140.926C33.1833 140.926 32.6973 141.178 32.2893 141.682C31.8933 142.186 31.6833 142.942 31.6593 143.95V148H29.5353V139.252H31.3893L31.6233 140.764C32.1993 139.6 33.1233 139.018 34.3953 139.018C35.1273 139.018 35.7333 139.186 36.2133 139.522C36.7053 139.858 37.0713 140.32 37.3113 140.908ZM56.106 147.784C55.314 148.096 54.69 148.252 54.234 148.252C53.778 148.252 53.376 148.198 53.028 148.09C52.692 147.982 52.392 147.82 52.128 147.604C51.576 147.112 51.3 146.434 51.3 145.57V140.674H50.076V139.252H51.3V136.948H53.424V139.252H55.8V140.674H53.424V145.498C53.424 146.218 53.766 146.578 54.45 146.578C54.798 146.578 55.248 146.482 55.8 146.29L56.106 147.784ZM60.3996 140.674C60.9996 139.57 61.8756 139.018 63.0276 139.018C64.1796 139.018 65.0256 139.372 65.5656 140.08C66.1176 140.788 66.3936 141.724 66.3936 142.888V148H64.2696V142.888C64.2696 142.24 64.1136 141.754 63.8016 141.43C63.4896 141.094 63.0516 140.926 62.4876 140.926C61.9236 140.926 61.4376 141.178 61.0296 141.682C60.6336 142.186 60.4236 142.942 60.3996 143.95V148H58.2756V135.652H60.3996V140.674ZM71.6144 140.98C72.1424 139.72 72.9344 139.09 73.9904 139.09C74.1944 139.09 74.4524 139.132 74.7644 139.216L74.7284 141.34C74.3924 141.268 74.0624 141.232 73.7384 141.232C72.3224 141.232 71.6144 142.21 71.6144 144.166V148H69.4904V139.234H71.6144V140.98ZM80.4167 139.018C81.0047 139.018 81.5567 139.114 82.0727 139.306C82.5887 139.486 83.0327 139.768 83.4047 140.152C84.2327 140.992 84.6467 142.156 84.6467 143.644C84.6467 145.108 84.2327 146.26 83.4047 147.1C82.6607 147.868 81.6647 148.252 80.4167 148.252C79.1687 148.252 78.1607 147.868 77.3927 147.1C76.5647 146.272 76.1507 145.12 76.1507 143.644C76.1507 142.144 76.5647 140.98 77.3927 140.152C78.1487 139.396 79.1567 139.018 80.4167 139.018ZM82.5227 143.626C82.5227 142.702 82.3427 142.012 81.9827 141.556C81.6227 141.088 81.1187 140.854 80.4707 140.854C79.8347 140.854 79.3127 141.088 78.9047 141.556C78.4967 142.012 78.2927 142.702 78.2927 143.626C78.2927 144.55 78.4727 145.246 78.8327 145.714C79.2047 146.17 79.7087 146.398 80.3447 146.398C80.9807 146.398 81.5027 146.17 81.9107 145.714C82.3187 145.246 82.5227 144.55 82.5227 143.626ZM92.988 146.416C92.436 147.58 91.548 148.162 90.324 148.162C88.776 148.162 87.756 147.556 87.264 146.344C87.084 145.924 86.994 145.414 86.994 144.814V139.234H89.118V144.598C89.118 145.174 89.256 145.606 89.532 145.894C89.808 146.17 90.144 146.308 90.54 146.308C90.948 146.308 91.29 146.254 91.566 146.146C91.842 146.026 92.082 145.852 92.286 145.624C92.73 145.108 92.964 144.418 92.988 143.554V139.234H95.112V148H92.988V146.416ZM99.2152 144.418C98.5072 143.818 98.1532 143.068 98.1532 142.168C98.1532 141.22 98.5252 140.452 99.2692 139.864C99.9892 139.3 100.811 139.018 101.735 139.018C102.671 139.018 103.451 139.192 104.075 139.54C104.147 138.856 104.441 138.304 104.957 137.884C105.461 137.464 106.055 137.254 106.739 137.254L106.631 139.288C105.599 139.288 105.065 139.63 105.029 140.314C105.473 140.866 105.695 141.43 105.695 142.006C105.695 142.582 105.593 143.068 105.389 143.464C105.185 143.848 104.909 144.172 104.561 144.436C103.841 145.012 102.965 145.3 101.933 145.3C101.345 145.3 100.811 145.21 100.331 145.03C99.8512 145.174 99.6112 145.462 99.6112 145.894C99.6112 146.434 100.067 146.704 100.979 146.704H103.913C105.905 146.704 106.901 147.4 106.901 148.792C106.901 149.26 106.781 149.716 106.541 150.16C106.313 150.616 105.977 151.018 105.533 151.366C104.549 152.134 103.313 152.518 101.825 152.518C100.385 152.518 99.2152 152.224 98.3152 151.636C97.4752 151.072 97.0552 150.382 97.0552 149.566C97.0552 149.026 97.2172 148.594 97.5412 148.27C97.8772 147.958 98.3152 147.76 98.8552 147.676C98.1472 147.244 97.7932 146.71 97.7932 146.074C97.7932 145.654 97.9252 145.306 98.1892 145.03C98.4532 144.742 98.7952 144.538 99.2152 144.418ZM100.835 148.198C99.7072 148.246 99.1432 148.672 99.1432 149.476C99.1432 149.884 99.3772 150.208 99.8452 150.448C100.325 150.7 100.889 150.826 101.537 150.826C102.185 150.826 102.689 150.772 103.049 150.664C103.421 150.556 103.733 150.412 103.985 150.232C104.525 149.872 104.795 149.44 104.795 148.936C104.795 148.72 104.717 148.54 104.561 148.396C104.417 148.264 104.201 148.198 103.913 148.198H100.835ZM103.589 142.15C103.589 141.658 103.451 141.262 103.175 140.962C102.911 140.65 102.503 140.494 101.951 140.494C101.399 140.494 100.979 140.65 100.691 140.962C100.403 141.262 100.259 141.658 100.259 142.15C100.259 142.63 100.403 143.026 100.691 143.338C100.979 143.65 101.399 143.806 101.951 143.806C102.503 143.806 102.911 143.65 103.175 143.338C103.451 143.026 103.589 142.63 103.589 142.15ZM111.06 140.674C111.66 139.57 112.536 139.018 113.688 139.018C114.84 139.018 115.686 139.372 116.226 140.08C116.778 140.788 117.054 141.724 117.054 142.888V148H114.93V142.888C114.93 142.24 114.774 141.754 114.462 141.43C114.15 141.094 113.712 140.926 113.148 140.926C112.584 140.926 112.098 141.178 111.69 141.682C111.294 142.186 111.084 142.942 111.06 143.95V148H108.936V135.652H111.06V140.674ZM129.635 147.784C128.843 148.096 128.219 148.252 127.763 148.252C127.307 148.252 126.905 148.198 126.557 148.09C126.221 147.982 125.921 147.82 125.657 147.604C125.105 147.112 124.829 146.434 124.829 145.57V140.674H123.605V139.252H124.829V136.948H126.953V139.252H129.329V140.674H126.953V145.498C126.953 146.218 127.295 146.578 127.979 146.578C128.327 146.578 128.777 146.482 129.329 146.29L129.635 147.784ZM133.929 140.674C134.529 139.57 135.405 139.018 136.557 139.018C137.709 139.018 138.555 139.372 139.095 140.08C139.647 140.788 139.923 141.724 139.923 142.888V148H137.799V142.888C137.799 142.24 137.643 141.754 137.331 141.43C137.019 141.094 136.581 140.926 136.017 140.926C135.453 140.926 134.967 141.178 134.559 141.682C134.163 142.186 133.953 142.942 133.929 143.95V148H131.805V135.652H133.929V140.674ZM149.122 140.296C149.422 140.68 149.644 141.124 149.788 141.628C149.944 142.132 150.022 142.594 150.022 143.014C150.022 143.434 149.998 143.812 149.95 144.148H144.298C144.322 144.856 144.496 145.432 144.82 145.876C145.144 146.32 145.636 146.542 146.296 146.542C147.172 146.542 147.694 146.158 147.862 145.39H150.004C149.86 146.266 149.458 146.956 148.798 147.46C148.114 147.988 147.28 148.252 146.296 148.252C145.144 148.252 144.178 147.832 143.398 146.992C142.594 146.116 142.192 144.994 142.192 143.626C142.192 142.222 142.594 141.094 143.398 140.242C144.166 139.426 145.132 139.018 146.296 139.018C147.508 139.018 148.45 139.444 149.122 140.296ZM146.314 140.71C145.714 140.71 145.246 140.908 144.91 141.304C144.574 141.688 144.376 142.186 144.316 142.798H148.042C148.042 141.85 147.742 141.214 147.142 140.89C146.914 140.77 146.638 140.71 146.314 140.71ZM159.241 140.674C159.841 139.57 160.717 139.018 161.869 139.018C163.021 139.018 163.867 139.372 164.407 140.08C164.959 140.788 165.235 141.724 165.235 142.888V148H163.111V142.888C163.111 142.24 162.955 141.754 162.643 141.43C162.331 141.094 161.893 140.926 161.329 140.926C160.765 140.926 160.279 141.178 159.871 141.682C159.475 142.186 159.265 142.942 159.241 143.95V148H157.117V135.652H159.241V140.674ZM171.77 139.018C172.358 139.018 172.91 139.114 173.426 139.306C173.942 139.486 174.386 139.768 174.758 140.152C175.586 140.992 176 142.156 176 143.644C176 145.108 175.586 146.26 174.758 147.1C174.014 147.868 173.018 148.252 171.77 148.252C170.522 148.252 169.514 147.868 168.746 147.1C167.918 146.272 167.504 145.12 167.504 143.644C167.504 142.144 167.918 140.98 168.746 140.152C169.502 139.396 170.51 139.018 171.77 139.018ZM173.876 143.626C173.876 142.702 173.696 142.012 173.336 141.556C172.976 141.088 172.472 140.854 171.824 140.854C171.188 140.854 170.666 141.088 170.258 141.556C169.85 142.012 169.646 142.702 169.646 143.626C169.646 144.55 169.826 145.246 170.186 145.714C170.558 146.17 171.062 146.398 171.698 146.398C172.334 146.398 172.856 146.17 173.264 145.714C173.672 145.246 173.876 144.55 173.876 143.626ZM186.304 140.908C186.868 139.648 187.858 139.018 189.274 139.018C190.318 139.018 191.128 139.372 191.704 140.08C192.256 140.752 192.532 141.688 192.532 142.888V148H190.39V142.888C190.39 142.24 190.234 141.754 189.922 141.43C189.61 141.094 189.172 140.926 188.608 140.926C188.044 140.926 187.582 141.172 187.222 141.664C186.862 142.156 186.67 142.9 186.646 143.896V148H184.522V142.888C184.522 142.24 184.366 141.754 184.054 141.43C183.742 141.094 183.304 140.926 182.74 140.926C182.176 140.926 181.69 141.178 181.282 141.682C180.886 142.186 180.676 142.942 180.652 143.95V148H178.528V139.252H180.382L180.616 140.764C181.192 139.6 182.116 139.018 183.388 139.018C184.12 139.018 184.726 139.186 185.206 139.522C185.698 139.858 186.064 140.32 186.304 140.908ZM201.715 140.296C202.015 140.68 202.237 141.124 202.381 141.628C202.537 142.132 202.615 142.594 202.615 143.014C202.615 143.434 202.591 143.812 202.543 144.148H196.891C196.915 144.856 197.089 145.432 197.413 145.876C197.737 146.32 198.229 146.542 198.889 146.542C199.765 146.542 200.287 146.158 200.455 145.39H202.597C202.453 146.266 202.051 146.956 201.391 147.46C200.707 147.988 199.873 148.252 198.889 148.252C197.737 148.252 196.771 147.832 195.991 146.992C195.187 146.116 194.785 144.994 194.785 143.626C194.785 142.222 195.187 141.094 195.991 140.242C196.759 139.426 197.725 139.018 198.889 139.018C200.101 139.018 201.043 139.444 201.715 140.296ZM198.907 140.71C198.307 140.71 197.839 140.908 197.503 141.304C197.167 141.688 196.969 142.186 196.909 142.798H200.635C200.635 141.85 200.335 141.214 199.735 140.89C199.507 140.77 199.231 140.71 198.907 140.71ZM212.502 140.278C213.246 141.118 213.618 142.222 213.618 143.59C213.618 144.958 213.228 146.086 212.448 146.974C211.692 147.826 210.75 148.252 209.622 148.252C209.082 148.252 208.584 148.108 208.128 147.82C207.684 147.532 207.33 147.088 207.066 146.488L206.544 148H205.158V135.652H207.282V140.35C207.834 139.462 208.656 139.018 209.748 139.018C210.852 139.018 211.77 139.438 212.502 140.278ZM207.282 143.086V144.238C207.306 144.85 207.528 145.354 207.948 145.75C208.344 146.134 208.824 146.326 209.388 146.326C209.964 146.326 210.456 146.08 210.864 145.588C211.272 145.084 211.476 144.424 211.476 143.608C211.476 142.792 211.272 142.144 210.864 141.664C210.468 141.172 209.97 140.926 209.37 140.926C208.77 140.926 208.272 141.124 207.876 141.52C207.48 141.916 207.282 142.438 207.282 143.086ZM222.029 146.416C221.477 147.58 220.589 148.162 219.365 148.162C217.817 148.162 216.797 147.556 216.305 146.344C216.125 145.924 216.035 145.414 216.035 144.814V139.234H218.159V144.598C218.159 145.174 218.297 145.606 218.573 145.894C218.849 146.17 219.185 146.308 219.581 146.308C219.989 146.308 220.331 146.254 220.607 146.146C220.883 146.026 221.123 145.852 221.327 145.624C221.771 145.108 222.005 144.418 222.029 143.554V139.234H224.153V148H222.029V146.416ZM228.58 139.252L230.686 145.552L232.522 139.252H234.682L231.334 149.584C230.986 150.628 230.56 151.378 230.056 151.834C229.564 152.29 228.934 152.518 228.166 152.518C227.386 152.518 226.606 152.326 225.826 151.942V150.07C226.45 150.466 227.08 150.664 227.716 150.664C228.136 150.664 228.478 150.496 228.742 150.16C229.018 149.824 229.24 149.386 229.408 148.846L229.678 148L226.168 139.252H228.58ZM236.75 139.234H238.874V148H236.75V139.234ZM236.498 136.426C236.498 136.042 236.612 135.742 236.84 135.526C237.068 135.298 237.392 135.184 237.812 135.184C238.22 135.184 238.538 135.298 238.766 135.526C239.006 135.742 239.126 136.042 239.126 136.426C239.126 136.81 239.006 137.116 238.766 137.344C238.538 137.56 238.22 137.668 237.812 137.668C237.392 137.668 237.068 137.56 236.84 137.344C236.612 137.116 236.498 136.81 236.498 136.426ZM244.565 140.764C245.141 139.6 246.065 139.018 247.337 139.018C248.417 139.018 249.227 139.372 249.767 140.08C250.319 140.788 250.595 141.724 250.595 142.888V148H248.471V142.888C248.471 142.24 248.315 141.754 248.003 141.43C247.691 141.094 247.253 140.926 246.689 140.926C246.125 140.926 245.639 141.178 245.231 141.682C244.835 142.186 244.625 142.942 244.601 143.95V148H242.477V139.252H244.331L244.565 140.764ZM254.448 144.418C253.74 143.818 253.386 143.068 253.386 142.168C253.386 141.22 253.758 140.452 254.502 139.864C255.222 139.3 256.044 139.018 256.968 139.018C257.904 139.018 258.684 139.192 259.308 139.54C259.38 138.856 259.674 138.304 260.19 137.884C260.694 137.464 261.288 137.254 261.972 137.254L261.864 139.288C260.832 139.288 260.298 139.63 260.262 140.314C260.706 140.866 260.928 141.43 260.928 142.006C260.928 142.582 260.826 143.068 260.622 143.464C260.418 143.848 260.142 144.172 259.794 144.436C259.074 145.012 258.198 145.3 257.166 145.3C256.578 145.3 256.044 145.21 255.564 145.03C255.084 145.174 254.844 145.462 254.844 145.894C254.844 146.434 255.3 146.704 256.212 146.704H259.146C261.138 146.704 262.134 147.4 262.134 148.792C262.134 149.26 262.014 149.716 261.774 150.16C261.546 150.616 261.21 151.018 260.766 151.366C259.782 152.134 258.546 152.518 257.058 152.518C255.618 152.518 254.448 152.224 253.548 151.636C252.708 151.072 252.288 150.382 252.288 149.566C252.288 149.026 252.45 148.594 252.774 148.27C253.11 147.958 253.548 147.76 254.088 147.676C253.38 147.244 253.026 146.71 253.026 146.074C253.026 145.654 253.158 145.306 253.422 145.03C253.686 144.742 254.028 144.538 254.448 144.418ZM256.068 148.198C254.94 148.246 254.376 148.672 254.376 149.476C254.376 149.884 254.61 150.208 255.078 150.448C255.558 150.7 256.122 150.826 256.77 150.826C257.418 150.826 257.922 150.772 258.282 150.664C258.654 150.556 258.966 150.412 259.218 150.232C259.758 149.872 260.028 149.44 260.028 148.936C260.028 148.72 259.95 148.54 259.794 148.396C259.65 148.264 259.434 148.198 259.146 148.198H256.068ZM258.822 142.15C258.822 141.658 258.684 141.262 258.408 140.962C258.144 140.65 257.736 140.494 257.184 140.494C256.632 140.494 256.212 140.65 255.924 140.962C255.636 141.262 255.492 141.658 255.492 142.15C255.492 142.63 255.636 143.026 255.924 143.338C256.212 143.65 256.632 143.806 257.184 143.806C257.736 143.806 258.144 143.65 258.408 143.338C258.684 143.026 258.822 142.63 258.822 142.15ZM270.665 140.44C271.217 139.492 272.057 139.018 273.185 139.018C274.265 139.018 275.189 139.426 275.957 140.242C276.773 141.106 277.181 142.234 277.181 143.626C277.181 145.03 276.767 146.164 275.939 147.028C275.171 147.844 274.253 148.252 273.185 148.252C272.117 148.252 271.337 147.934 270.845 147.298V152.266H268.721V139.252H270.467L270.665 140.44ZM272.807 146.326C273.059 146.326 273.317 146.272 273.581 146.164C273.857 146.056 274.103 145.888 274.319 145.66C274.799 145.156 275.039 144.484 275.039 143.644C275.039 142.792 274.829 142.126 274.409 141.646C274.001 141.166 273.497 140.926 272.897 140.926C272.309 140.926 271.823 141.1 271.439 141.448C271.067 141.784 270.869 142.27 270.845 142.906V144.472C270.845 145.036 271.043 145.492 271.439 145.84C271.811 146.164 272.267 146.326 272.807 146.326ZM281.831 140.98C282.359 139.72 283.151 139.09 284.207 139.09C284.411 139.09 284.669 139.132 284.981 139.216L284.945 141.34C284.609 141.268 284.279 141.232 283.955 141.232C282.539 141.232 281.831 142.21 281.831 144.166V148H279.707V139.234H281.831V140.98ZM290.633 139.018C291.221 139.018 291.773 139.114 292.289 139.306C292.805 139.486 293.249 139.768 293.621 140.152C294.449 140.992 294.863 142.156 294.863 143.644C294.863 145.108 294.449 146.26 293.621 147.1C292.877 147.868 291.881 148.252 290.633 148.252C289.385 148.252 288.377 147.868 287.609 147.1C286.781 146.272 286.367 145.12 286.367 143.644C286.367 142.144 286.781 140.98 287.609 140.152C288.365 139.396 289.373 139.018 290.633 139.018ZM292.739 143.626C292.739 142.702 292.559 142.012 292.199 141.556C291.839 141.088 291.335 140.854 290.687 140.854C290.051 140.854 289.529 141.088 289.121 141.556C288.713 142.012 288.509 142.702 288.509 143.626C288.509 144.55 288.689 145.246 289.049 145.714C289.421 146.17 289.925 146.398 290.561 146.398C291.197 146.398 291.719 146.17 292.127 145.714C292.535 145.246 292.739 144.55 292.739 143.626ZM300.721 139.018C301.273 139.018 301.765 139.114 302.197 139.306C302.641 139.486 303.013 139.726 303.313 140.026C303.913 140.602 304.267 141.328 304.375 142.204L302.233 142.258C302.137 141.874 301.957 141.556 301.693 141.304C301.441 141.052 301.147 140.926 300.811 140.926C300.475 140.926 300.187 140.98 299.947 141.088C299.707 141.184 299.497 141.34 299.317 141.556C298.909 142.06 298.705 142.756 298.705 143.644C298.705 144.532 298.897 145.204 299.281 145.66C299.665 146.104 300.127 146.326 300.667 146.326C301.219 146.326 301.615 146.2 301.855 145.948C302.107 145.684 302.233 145.33 302.233 144.886H304.375C304.375 145.846 304.057 146.644 303.421 147.28C302.773 147.928 301.867 148.252 300.703 148.252C299.551 148.252 298.585 147.832 297.805 146.992C296.977 146.092 296.563 144.97 296.563 143.626C296.563 142.21 296.977 141.076 297.805 140.224C298.585 139.42 299.557 139.018 300.721 139.018ZM313.038 140.296C313.338 140.68 313.56 141.124 313.704 141.628C313.86 142.132 313.938 142.594 313.938 143.014C313.938 143.434 313.914 143.812 313.866 144.148H308.214C308.238 144.856 308.412 145.432 308.736 145.876C309.06 146.32 309.552 146.542 310.212 146.542C311.088 146.542 311.61 146.158 311.778 145.39H313.92C313.776 146.266 313.374 146.956 312.714 147.46C312.03 147.988 311.196 148.252 310.212 148.252C309.06 148.252 308.094 147.832 307.314 146.992C306.51 146.116 306.108 144.994 306.108 143.626C306.108 142.222 306.51 141.094 307.314 140.242C308.082 139.426 309.048 139.018 310.212 139.018C311.424 139.018 312.366 139.444 313.038 140.296ZM310.23 140.71C309.63 140.71 309.162 140.908 308.826 141.304C308.49 141.688 308.292 142.186 308.232 142.798H311.958C311.958 141.85 311.658 141.214 311.058 140.89C310.83 140.77 310.554 140.71 310.23 140.71ZM317.669 145.336C317.693 146.164 318.299 146.578 319.487 146.578C319.943 146.578 320.315 146.482 320.603 146.29C320.903 146.086 321.053 145.852 321.053 145.588C321.053 145.324 320.963 145.12 320.783 144.976C320.603 144.832 320.321 144.7 319.937 144.58L318.029 143.896C316.613 143.404 315.905 142.6 315.905 141.484C315.905 140.74 316.235 140.146 316.895 139.702C317.567 139.246 318.461 139.018 319.577 139.018C320.705 139.018 321.569 139.264 322.169 139.756C322.781 140.248 323.099 140.866 323.123 141.61H321.125C321.101 141.322 320.963 141.094 320.711 140.926C320.459 140.758 320.099 140.674 319.631 140.674C319.163 140.674 318.797 140.77 318.533 140.962C318.281 141.142 318.155 141.352 318.155 141.592C318.155 142.012 318.509 142.324 319.217 142.528L321.287 143.302C321.971 143.53 322.493 143.824 322.853 144.184C323.225 144.532 323.411 144.988 323.411 145.552C323.411 146.272 323.069 146.896 322.385 147.424C321.677 147.976 320.741 148.252 319.577 148.252C318.413 148.252 317.477 148 316.769 147.496C316.061 146.98 315.701 146.26 315.689 145.336H317.669ZM327.161 145.336C327.185 146.164 327.791 146.578 328.979 146.578C329.435 146.578 329.807 146.482 330.095 146.29C330.395 146.086 330.545 145.852 330.545 145.588C330.545 145.324 330.455 145.12 330.275 144.976C330.095 144.832 329.813 144.7 329.429 144.58L327.521 143.896C326.105 143.404 325.397 142.6 325.397 141.484C325.397 140.74 325.727 140.146 326.387 139.702C327.059 139.246 327.953 139.018 329.069 139.018C330.197 139.018 331.061 139.264 331.661 139.756C332.273 140.248 332.591 140.866 332.615 141.61H330.617C330.593 141.322 330.455 141.094 330.203 140.926C329.951 140.758 329.591 140.674 329.123 140.674C328.655 140.674 328.289 140.77 328.025 140.962C327.773 141.142 327.647 141.352 327.647 141.592C327.647 142.012 328.001 142.324 328.709 142.528L330.779 143.302C331.463 143.53 331.985 143.824 332.345 144.184C332.717 144.532 332.903 144.988 332.903 145.552C332.903 146.272 332.561 146.896 331.877 147.424C331.169 147.976 330.233 148.252 329.069 148.252C327.905 148.252 326.969 148 326.261 147.496C325.553 146.98 325.193 146.26 325.181 145.336H327.161ZM335.699 148.162C335.267 148.162 334.913 148.03 334.637 147.766C334.361 147.502 334.223 147.166 334.223 146.758C334.223 146.35 334.361 146.008 334.637 145.732C334.913 145.456 335.267 145.318 335.699 145.318C336.131 145.318 336.491 145.456 336.779 145.732C337.067 146.008 337.211 146.35 337.211 146.758C337.211 147.166 337.067 147.502 336.779 147.766C336.491 148.03 336.131 148.162 335.699 148.162Z" fill="#616161"/>
</svg>
