<svg width="360" height="237" viewBox="0 0 360 237" fill="none" xmlns="http://www.w3.org/2000/svg">
<path d="M10.944 10.816C12.3307 10.816 13.6 11.0507 14.752 11.52C15.904 11.968 16.896 12.64 17.728 13.536C19.4773 15.4133 20.352 18.1013 20.352 21.6C20.352 25.12 19.4773 27.84 17.728 29.76C16.064 31.552 13.792 32.448 10.912 32.448C8.05333 32.448 5.792 31.5307 4.128 29.696C2.37867 27.7973 1.504 25.0987 1.504 21.6C1.504 18.0587 2.37867 15.3493 4.128 13.472C5.77067 11.7013 8.04267 10.816 10.944 10.816ZM16.448 21.664C16.448 19.2747 15.9467 17.44 14.944 16.16C13.9627 14.8587 12.6293 14.208 10.944 14.208C9.25867 14.208 7.91467 14.8587 6.912 16.16C5.90933 17.44 5.408 19.2747 5.408 21.664C5.408 24.032 5.90933 25.856 6.912 27.136C7.91467 28.3947 9.25867 29.024 10.944 29.024C12.6293 29.024 13.9627 28.3947 14.944 27.136C15.9467 25.856 16.448 24.032 16.448 21.664ZM28.5318 19.136C29.5558 17.0667 31.1984 16.032 33.4598 16.032C35.3798 16.032 36.8198 16.6613 37.7798 17.92C38.7611 19.1787 39.2518 20.8427 39.2518 22.912V32H35.4758V22.912C35.4758 21.76 35.1984 20.896 34.6438 20.32C34.0891 19.7227 33.3104 19.424 32.3078 19.424C31.3051 19.424 30.4411 19.872 29.7158 20.768C29.0118 21.664 28.6384 23.008 28.5958 24.8V32H24.8198V16.448H28.1158L28.5318 19.136ZM44.7573 10.048H48.5333V32H44.7573V10.048ZM56.396 16.448L60.14 27.648L63.404 16.448H67.244L61.292 34.816C60.6733 36.672 59.916 38.0053 59.02 38.816C58.1453 39.6267 57.0253 40.032 55.66 40.032C54.2733 40.032 52.8867 39.6907 51.5 39.008V35.68C52.6093 36.384 53.7293 36.736 54.86 36.736C55.6067 36.736 56.2147 36.4373 56.684 35.84C57.1747 35.2427 57.5693 34.464 57.868 33.504L58.348 32L52.108 16.448H56.396ZM85.9268 11.232C88.2734 11.232 90.0974 11.808 91.3988 12.96C92.7214 14.0907 93.3828 15.7227 93.3828 17.856C93.3828 19.968 92.7214 21.6 91.3988 22.752C90.0974 23.8827 88.2734 24.448 85.9268 24.448H82.4068V32H78.5988V11.232H85.9268ZM85.9268 21.152C87.1001 21.152 87.9854 20.8427 88.5828 20.224C89.1801 19.6053 89.4788 18.816 89.4788 17.856C89.4788 16.8747 89.1801 16.0747 88.5828 15.456C87.9854 14.816 87.1001 14.496 85.9268 14.496H82.4068V21.152H85.9268ZM102.409 22.912C103.646 22.912 105.075 23.1147 106.697 23.52V21.984C106.697 20.896 106.473 20.096 106.025 19.584C105.598 19.0507 104.883 18.784 103.881 18.784C102.899 18.784 102.142 18.9867 101.609 19.392C101.075 19.776 100.809 20.3307 100.809 21.056H96.6805C96.6805 19.2853 97.2992 18.0053 98.5365 17.216C99.7952 16.4267 101.545 16.032 103.785 16.032C106.985 16.032 109.054 17.152 109.993 19.392C110.312 20.16 110.472 21.0667 110.472 22.112V32H107.177L106.889 29.92C105.886 31.6053 104.35 32.448 102.281 32.448C100.275 32.448 98.7178 31.9573 97.6085 30.976C96.5845 30.0373 96.0725 28.8533 96.0725 27.424C96.0725 25.9733 96.6378 24.864 97.7685 24.096C98.8992 23.3067 100.446 22.912 102.409 22.912ZM106.697 25.92C105.438 25.5787 104.265 25.408 103.177 25.408C101.129 25.408 100.105 26.0907 100.105 27.456C100.105 28.032 100.339 28.5333 100.809 28.96C101.278 29.3653 102.025 29.568 103.049 29.568C104.094 29.568 104.947 29.2267 105.609 28.544C106.291 27.84 106.654 26.9653 106.697 25.92ZM117.896 16.448L121.64 27.648L124.904 16.448H128.744L122.792 34.816C122.173 36.672 121.416 38.0053 120.52 38.816C119.645 39.6267 118.525 40.032 117.16 40.032C115.773 40.032 114.387 39.6907 113 39.008V35.68C114.109 36.384 115.229 36.736 116.36 36.736C117.107 36.736 117.715 36.4373 118.184 35.84C118.675 35.2427 119.069 34.464 119.368 33.504L119.848 32L113.608 16.448H117.896ZM140.195 11.232H153.283V14.496H143.971V19.968H152.483V23.2H143.971V32H140.195V11.232ZM162.776 16.032C163.821 16.032 164.802 16.2027 165.72 16.544C166.637 16.864 167.426 17.3653 168.088 18.048C169.56 19.5413 170.296 21.6107 170.296 24.256C170.296 26.8587 169.56 28.9067 168.088 30.4C166.765 31.7653 164.994 32.448 162.776 32.448C160.557 32.448 158.765 31.7653 157.4 30.4C155.928 28.928 155.192 26.88 155.192 24.256C155.192 21.5893 155.928 19.52 157.4 18.048C158.744 16.704 160.536 16.032 162.776 16.032ZM166.52 24.224C166.52 22.5813 166.2 21.3547 165.56 20.544C164.92 19.712 164.024 19.296 162.872 19.296C161.741 19.296 160.813 19.712 160.088 20.544C159.362 21.3547 159 22.5813 159 24.224C159 25.8667 159.32 27.104 159.96 27.936C160.621 28.7467 161.517 29.152 162.648 29.152C163.778 29.152 164.706 28.7467 165.432 27.936C166.157 27.104 166.52 25.8667 166.52 24.224ZM178.565 19.52C179.503 17.28 180.911 16.16 182.789 16.16C183.151 16.16 183.61 16.2347 184.165 16.384L184.101 20.16C183.503 20.032 182.917 19.968 182.341 19.968C179.823 19.968 178.565 21.7067 178.565 25.184V32H174.789V16.416H178.565V19.52ZM199.971 28.704H208.515V32H196.195V11.232H199.971V28.704ZM222.855 18.304C223.389 18.9867 223.783 19.776 224.039 20.672C224.317 21.568 224.455 22.3893 224.455 23.136C224.455 23.8827 224.413 24.5547 224.327 25.152H214.279C214.322 26.4107 214.631 27.4347 215.207 28.224C215.783 29.0133 216.658 29.408 217.831 29.408C219.389 29.408 220.317 28.7253 220.615 27.36H224.423C224.167 28.9173 223.453 30.144 222.279 31.04C221.063 31.9787 219.581 32.448 217.831 32.448C215.783 32.448 214.066 31.7013 212.679 30.208C211.25 28.6507 210.535 26.656 210.535 24.224C210.535 21.728 211.25 19.7227 212.679 18.208C214.045 16.7573 215.762 16.032 217.831 16.032C219.986 16.032 221.661 16.7893 222.855 18.304ZM217.863 19.04C216.797 19.04 215.965 19.392 215.367 20.096C214.77 20.7787 214.418 21.664 214.311 22.752H220.935C220.935 21.0667 220.402 19.936 219.335 19.36C218.93 19.1467 218.439 19.04 217.863 19.04ZM234.096 22.912C235.333 22.912 236.763 23.1147 238.384 23.52V21.984C238.384 20.896 238.16 20.096 237.712 19.584C237.285 19.0507 236.571 18.784 235.568 18.784C234.587 18.784 233.829 18.9867 233.296 19.392C232.763 19.776 232.496 20.3307 232.496 21.056H228.368C228.368 19.2853 228.987 18.0053 230.224 17.216C231.483 16.4267 233.232 16.032 235.472 16.032C238.672 16.032 240.741 17.152 241.68 19.392C242 20.16 242.16 21.0667 242.16 22.112V32H238.864L238.576 29.92C237.573 31.6053 236.037 32.448 233.968 32.448C231.963 32.448 230.405 31.9573 229.296 30.976C228.272 30.0373 227.76 28.8533 227.76 27.424C227.76 25.9733 228.325 24.864 229.456 24.096C230.587 23.3067 232.133 22.912 234.096 22.912ZM238.384 25.92C237.125 25.5787 235.952 25.408 234.864 25.408C232.816 25.408 231.792 26.0907 231.792 27.456C231.792 28.032 232.027 28.5333 232.496 28.96C232.965 29.3653 233.712 29.568 234.736 29.568C235.781 29.568 236.635 29.2267 237.296 28.544C237.979 27.84 238.341 26.9653 238.384 25.92ZM257.808 29.6C256.848 31.4987 255.376 32.448 253.392 32.448C251.408 32.448 249.744 31.6907 248.4 30.176C247.013 28.5973 246.32 26.592 246.32 24.16C246.32 21.728 246.981 19.7547 248.304 18.24C249.605 16.768 251.226 16.032 253.168 16.032C255.109 16.032 256.57 16.8107 257.552 18.368V10.048H261.36V32H258.256L257.808 29.6ZM253.872 19.424C252.805 19.424 251.909 19.8613 251.184 20.736C250.48 21.5893 250.128 22.7413 250.128 24.192C250.128 25.6427 250.49 26.816 251.216 27.712C251.941 28.5867 252.858 29.024 253.968 29.024C254.885 29.024 255.706 28.6613 256.432 27.936C257.178 27.1893 257.552 26.2507 257.552 25.12V23.104C257.509 21.9947 257.136 21.088 256.432 20.384C255.792 19.744 254.938 19.424 253.872 19.424ZM269.432 27.264C269.474 28.736 270.552 29.472 272.664 29.472C273.474 29.472 274.136 29.3013 274.648 28.96C275.181 28.5973 275.448 28.1813 275.448 27.712C275.448 27.2427 275.288 26.88 274.968 26.624C274.648 26.368 274.146 26.1333 273.464 25.92L270.072 24.704C267.554 23.8293 266.296 22.4 266.296 20.416C266.296 19.0933 266.882 18.0373 268.056 17.248C269.25 16.4373 270.84 16.032 272.824 16.032C274.829 16.032 276.365 16.4693 277.432 17.344C278.52 18.2187 279.085 19.3173 279.128 20.64H275.576C275.533 20.128 275.288 19.7227 274.84 19.424C274.392 19.1253 273.752 18.976 272.92 18.976C272.088 18.976 271.437 19.1467 270.968 19.488C270.52 19.808 270.296 20.1813 270.296 20.608C270.296 21.3547 270.925 21.9093 272.184 22.272L275.864 23.648C277.08 24.0533 278.008 24.576 278.648 25.216C279.309 25.8347 279.64 26.6453 279.64 27.648C279.64 28.928 279.032 30.0373 277.816 30.976C276.557 31.9573 274.893 32.448 272.824 32.448C270.754 32.448 269.09 32 267.832 31.104C266.573 30.1867 265.933 28.9067 265.912 27.264H269.432ZM294.305 11.232L298.881 19.52L303.681 11.232H308.128L300.737 23.424V32H296.961V23.424L289.825 11.232H294.305ZM315.119 16.032C316.165 16.032 317.146 16.2027 318.063 16.544C318.981 16.864 319.77 17.3653 320.431 18.048C321.903 19.5413 322.639 21.6107 322.639 24.256C322.639 26.8587 321.903 28.9067 320.431 30.4C319.109 31.7653 317.338 32.448 315.119 32.448C312.901 32.448 311.109 31.7653 309.743 30.4C308.271 28.928 307.535 26.88 307.535 24.256C307.535 21.5893 308.271 19.52 309.743 18.048C311.087 16.704 312.879 16.032 315.119 16.032ZM318.863 24.224C318.863 22.5813 318.543 21.3547 317.903 20.544C317.263 19.712 316.367 19.296 315.215 19.296C314.085 19.296 313.157 19.712 312.431 20.544C311.706 21.3547 311.343 22.5813 311.343 24.224C311.343 25.8667 311.663 27.104 312.303 27.936C312.965 28.7467 313.861 29.152 314.991 29.152C316.122 29.152 317.05 28.7467 317.775 27.936C318.501 27.104 318.863 25.8667 318.863 24.224ZM337.468 29.184C336.487 31.2533 334.908 32.288 332.732 32.288C329.98 32.288 328.167 31.2107 327.292 29.056C326.972 28.3093 326.812 27.4027 326.812 26.336V16.416H330.588V25.952C330.588 26.976 330.834 27.744 331.324 28.256C331.815 28.7467 332.412 28.992 333.116 28.992C333.842 28.992 334.45 28.896 334.94 28.704C335.431 28.4907 335.858 28.1813 336.22 27.776C337.01 26.8587 337.426 25.632 337.468 24.096V16.416H341.244V32H337.468V29.184ZM4.864 53.232L9.44 69.008L13.888 54.608H16.448L21.152 69.072L26.016 53.232H30.272L23.136 74H19.168L15.264 62.288L11.392 74H7.424L0.64 53.232H4.864ZM37.6898 64.912C38.9271 64.912 40.3564 65.1147 41.9778 65.52V63.984C41.9778 62.896 41.7538 62.096 41.3058 61.584C40.8791 61.0507 40.1644 60.784 39.1618 60.784C38.1804 60.784 37.4231 60.9867 36.8898 61.392C36.3564 61.776 36.0898 62.3307 36.0898 63.056H31.9618C31.9618 61.2853 32.5804 60.0053 33.8177 59.216C35.0764 58.4267 36.8258 58.032 39.0658 58.032C42.2658 58.032 44.3351 59.152 45.2738 61.392C45.5938 62.16 45.7537 63.0667 45.7537 64.112V74H42.4578L42.1698 71.92C41.1671 73.6053 39.6311 74.448 37.5618 74.448C35.5564 74.448 33.9991 73.9573 32.8898 72.976C31.8658 72.0373 31.3538 70.8533 31.3538 69.424C31.3538 67.9733 31.9191 66.864 33.0498 66.096C34.1804 65.3067 35.7271 64.912 37.6898 64.912ZM41.9778 67.92C40.7191 67.5787 39.5458 67.408 38.4578 67.408C36.4098 67.408 35.3858 68.0907 35.3858 69.456C35.3858 70.032 35.6204 70.5333 36.0898 70.96C36.5591 71.3653 37.3058 71.568 38.3298 71.568C39.3751 71.568 40.2284 71.2267 40.8898 70.544C41.5724 69.84 41.9351 68.9653 41.9778 67.92ZM54.9693 61.136C55.9933 59.0667 57.6359 58.032 59.8973 58.032C61.8173 58.032 63.2573 58.6613 64.2173 59.92C65.1986 61.1787 65.6893 62.8427 65.6893 64.912V74H61.9133V64.912C61.9133 63.76 61.6359 62.896 61.0813 62.32C60.5266 61.7227 59.7479 61.424 58.7453 61.424C57.7426 61.424 56.8786 61.872 56.1533 62.768C55.4493 63.664 55.0759 65.008 55.0333 66.8V74H51.2573V58.448H54.5533L54.9693 61.136ZM79.9628 73.616C78.5548 74.1707 77.4454 74.448 76.6348 74.448C75.8241 74.448 75.1094 74.352 74.4908 74.16C73.8934 73.968 73.3601 73.68 72.8908 73.296C71.9094 72.4213 71.4188 71.216 71.4188 69.68V60.976H69.2428V58.448H71.4188V54.352H75.1948V58.448H79.4188V60.976H75.1948V69.552C75.1948 70.832 75.8028 71.472 77.0188 71.472C77.6374 71.472 78.4374 71.3013 79.4188 70.96L79.9628 73.616Z" fill="black"/>
<path d="M5.674 109.318H7.798V121H5.674V109.318ZM10.1868 112.252H11.4828V111.226C11.4828 110.326 11.7468 109.636 12.2748 109.156C12.7548 108.724 13.3788 108.508 14.1468 108.508C14.6388 108.508 15.2448 108.58 15.9648 108.724L15.5508 110.362C15.2148 110.242 14.9088 110.182 14.6328 110.182C14.3688 110.182 14.1348 110.26 13.9308 110.416C13.7268 110.56 13.6248 110.836 13.6248 111.244V112.252H15.2268V113.674H13.6248V121H11.4828V113.674H10.1868V112.252ZM23.0593 112.252L24.8233 118.498L26.4973 112.738H28.4233L30.0973 118.516L31.8793 112.252H34.0033L31.1233 121H29.0353L27.4153 115.762L25.8313 121H23.7253L20.8273 112.252H23.0593ZM42.028 113.296C42.328 113.68 42.55 114.124 42.694 114.628C42.85 115.132 42.928 115.594 42.928 116.014C42.928 116.434 42.904 116.812 42.856 117.148H37.204C37.228 117.856 37.402 118.432 37.726 118.876C38.05 119.32 38.542 119.542 39.202 119.542C40.078 119.542 40.6 119.158 40.768 118.39H42.91C42.766 119.266 42.364 119.956 41.704 120.46C41.02 120.988 40.186 121.252 39.202 121.252C38.05 121.252 37.084 120.832 36.304 119.992C35.5 119.116 35.098 117.994 35.098 116.626C35.098 115.222 35.5 114.094 36.304 113.242C37.072 112.426 38.038 112.018 39.202 112.018C40.414 112.018 41.356 112.444 42.028 113.296ZM39.22 113.71C38.62 113.71 38.152 113.908 37.816 114.304C37.48 114.688 37.282 115.186 37.222 115.798H40.948C40.948 114.85 40.648 114.214 40.048 113.89C39.82 113.77 39.544 113.71 39.22 113.71ZM51.2116 118.336C51.2356 119.164 51.8416 119.578 53.0296 119.578C53.4856 119.578 53.8576 119.482 54.1456 119.29C54.4456 119.086 54.5956 118.852 54.5956 118.588C54.5956 118.324 54.5056 118.12 54.3256 117.976C54.1456 117.832 53.8636 117.7 53.4796 117.58L51.5716 116.896C50.1556 116.404 49.4476 115.6 49.4476 114.484C49.4476 113.74 49.7776 113.146 50.4376 112.702C51.1096 112.246 52.0036 112.018 53.1196 112.018C54.2476 112.018 55.1116 112.264 55.7116 112.756C56.3236 113.248 56.6416 113.866 56.6656 114.61H54.6676C54.6436 114.322 54.5056 114.094 54.2536 113.926C54.0016 113.758 53.6416 113.674 53.1736 113.674C52.7056 113.674 52.3396 113.77 52.0756 113.962C51.8236 114.142 51.6976 114.352 51.6976 114.592C51.6976 115.012 52.0516 115.324 52.7596 115.528L54.8296 116.302C55.5136 116.53 56.0356 116.824 56.3956 117.184C56.7676 117.532 56.9536 117.988 56.9536 118.552C56.9536 119.272 56.6116 119.896 55.9276 120.424C55.2196 120.976 54.2836 121.252 53.1196 121.252C51.9556 121.252 51.0196 121 50.3116 120.496C49.6036 119.98 49.2436 119.26 49.2316 118.336H51.2116ZM65.6178 113.296C65.9178 113.68 66.1398 114.124 66.2838 114.628C66.4398 115.132 66.5178 115.594 66.5178 116.014C66.5178 116.434 66.4938 116.812 66.4458 117.148H60.7938C60.8178 117.856 60.9918 118.432 61.3158 118.876C61.6398 119.32 62.1318 119.542 62.7918 119.542C63.6678 119.542 64.1898 119.158 64.3578 118.39H66.4998C66.3558 119.266 65.9538 119.956 65.2938 120.46C64.6098 120.988 63.7758 121.252 62.7918 121.252C61.6398 121.252 60.6738 120.832 59.8938 119.992C59.0898 119.116 58.6878 117.994 58.6878 116.626C58.6878 115.222 59.0898 114.094 59.8938 113.242C60.6618 112.426 61.6278 112.018 62.7918 112.018C64.0038 112.018 64.9458 112.444 65.6178 113.296ZM62.8098 113.71C62.2098 113.71 61.7418 113.908 61.4058 114.304C61.0698 114.688 60.8718 115.186 60.8118 115.798H64.5378C64.5378 114.85 64.2378 114.214 63.6378 113.89C63.4098 113.77 63.1338 113.71 62.8098 113.71ZM71.1487 113.764C71.7247 112.6 72.6487 112.018 73.9207 112.018C75.0007 112.018 75.8107 112.372 76.3507 113.08C76.9027 113.788 77.1787 114.724 77.1787 115.888V121H75.0547V115.888C75.0547 115.24 74.8987 114.754 74.5867 114.43C74.2747 114.094 73.8367 113.926 73.2727 113.926C72.7087 113.926 72.2227 114.178 71.8147 114.682C71.4187 115.186 71.2087 115.942 71.1847 116.95V121H69.0607V112.252H70.9147L71.1487 113.764ZM85.9816 119.65C85.4416 120.718 84.6136 121.252 83.4976 121.252C82.3816 121.252 81.4456 120.826 80.6896 119.974C79.9096 119.086 79.5196 117.958 79.5196 116.59C79.5196 115.222 79.8916 114.112 80.6356 113.26C81.3676 112.432 82.2796 112.018 83.3716 112.018C84.4636 112.018 85.2856 112.456 85.8376 113.332V108.652H87.9796V121H86.2336L85.9816 119.65ZM83.7676 113.926C83.1676 113.926 82.6636 114.172 82.2556 114.664C81.8596 115.144 81.6616 115.792 81.6616 116.608C81.6616 117.424 81.8656 118.084 82.2736 118.588C82.6816 119.08 83.1976 119.326 83.8216 119.326C84.3376 119.326 84.7996 119.122 85.2076 118.714C85.6276 118.294 85.8376 117.766 85.8376 117.13V115.996C85.8136 115.372 85.6036 114.862 85.2076 114.466C84.8476 114.106 84.3676 113.926 83.7676 113.926ZM96.9649 112.252L99.0709 118.552L100.907 112.252H103.067L99.7189 122.584C99.3709 123.628 98.9449 124.378 98.4409 124.834C97.9489 125.29 97.3189 125.518 96.5509 125.518C95.7709 125.518 94.9909 125.326 94.2109 124.942V123.07C94.8349 123.466 95.4649 123.664 96.1009 123.664C96.5209 123.664 96.8629 123.496 97.1269 123.16C97.4029 122.824 97.6249 122.386 97.7929 121.846L98.0629 121L94.5529 112.252H96.9649ZM108.393 112.018C108.981 112.018 109.533 112.114 110.049 112.306C110.565 112.486 111.009 112.768 111.381 113.152C112.209 113.992 112.623 115.156 112.623 116.644C112.623 118.108 112.209 119.26 111.381 120.1C110.637 120.868 109.641 121.252 108.393 121.252C107.145 121.252 106.137 120.868 105.369 120.1C104.541 119.272 104.127 118.12 104.127 116.644C104.127 115.144 104.541 113.98 105.369 113.152C106.125 112.396 107.133 112.018 108.393 112.018ZM110.499 116.626C110.499 115.702 110.319 115.012 109.959 114.556C109.599 114.088 109.095 113.854 108.447 113.854C107.811 113.854 107.289 114.088 106.881 114.556C106.473 115.012 106.269 115.702 106.269 116.626C106.269 117.55 106.449 118.246 106.809 118.714C107.181 119.17 107.685 119.398 108.321 119.398C108.957 119.398 109.479 119.17 109.887 118.714C110.295 118.246 110.499 117.55 110.499 116.626ZM120.965 119.416C120.413 120.58 119.525 121.162 118.301 121.162C116.753 121.162 115.733 120.556 115.241 119.344C115.061 118.924 114.971 118.414 114.971 117.814V112.234H117.095V117.598C117.095 118.174 117.233 118.606 117.509 118.894C117.785 119.17 118.121 119.308 118.517 119.308C118.925 119.308 119.267 119.254 119.543 119.146C119.819 119.026 120.059 118.852 120.263 118.624C120.707 118.108 120.941 117.418 120.965 116.554V112.234H123.089V121H120.965V119.416ZM133.868 115.888C134.564 115.888 135.368 116.002 136.28 116.23V115.366C136.28 114.754 136.154 114.304 135.902 114.016C135.662 113.716 135.26 113.566 134.696 113.566C134.144 113.566 133.718 113.68 133.418 113.908C133.118 114.124 132.968 114.436 132.968 114.844H130.646C130.646 113.848 130.994 113.128 131.69 112.684C132.398 112.24 133.382 112.018 134.642 112.018C136.442 112.018 137.606 112.648 138.134 113.908C138.314 114.34 138.404 114.85 138.404 115.438V121H136.55L136.388 119.83C135.824 120.778 134.96 121.252 133.796 121.252C132.668 121.252 131.792 120.976 131.168 120.424C130.592 119.896 130.304 119.23 130.304 118.426C130.304 117.61 130.622 116.986 131.258 116.554C131.894 116.11 132.764 115.888 133.868 115.888ZM136.28 117.58C135.572 117.388 134.912 117.292 134.3 117.292C133.148 117.292 132.572 117.676 132.572 118.444C132.572 118.768 132.704 119.05 132.968 119.29C133.232 119.518 133.652 119.632 134.228 119.632C134.816 119.632 135.296 119.44 135.668 119.056C136.052 118.66 136.256 118.168 136.28 117.58ZM146.053 108.652H148.177V121H146.053V108.652ZM157.622 113.296C157.922 113.68 158.144 114.124 158.288 114.628C158.444 115.132 158.522 115.594 158.522 116.014C158.522 116.434 158.498 116.812 158.45 117.148H152.798C152.822 117.856 152.996 118.432 153.32 118.876C153.644 119.32 154.136 119.542 154.796 119.542C155.672 119.542 156.194 119.158 156.362 118.39H158.504C158.36 119.266 157.958 119.956 157.298 120.46C156.614 120.988 155.78 121.252 154.796 121.252C153.644 121.252 152.678 120.832 151.898 119.992C151.094 119.116 150.692 117.994 150.692 116.626C150.692 115.222 151.094 114.094 151.898 113.242C152.666 112.426 153.632 112.018 154.796 112.018C156.008 112.018 156.95 112.444 157.622 113.296ZM154.814 113.71C154.214 113.71 153.746 113.908 153.41 114.304C153.074 114.688 152.876 115.186 152.816 115.798H156.542C156.542 114.85 156.242 114.214 155.642 113.89C155.414 113.77 155.138 113.71 154.814 113.71ZM163.945 115.888C164.641 115.888 165.445 116.002 166.357 116.23V115.366C166.357 114.754 166.231 114.304 165.979 114.016C165.739 113.716 165.337 113.566 164.773 113.566C164.221 113.566 163.795 113.68 163.495 113.908C163.195 114.124 163.045 114.436 163.045 114.844H160.723C160.723 113.848 161.071 113.128 161.767 112.684C162.475 112.24 163.459 112.018 164.719 112.018C166.519 112.018 167.683 112.648 168.211 113.908C168.391 114.34 168.481 114.85 168.481 115.438V121H166.627L166.465 119.83C165.901 120.778 165.037 121.252 163.873 121.252C162.745 121.252 161.869 120.976 161.245 120.424C160.669 119.896 160.381 119.23 160.381 118.426C160.381 117.61 160.699 116.986 161.335 116.554C161.971 116.11 162.841 115.888 163.945 115.888ZM166.357 117.58C165.649 117.388 164.989 117.292 164.377 117.292C163.225 117.292 162.649 117.676 162.649 118.444C162.649 118.768 162.781 119.05 163.045 119.29C163.309 119.518 163.729 119.632 164.305 119.632C164.893 119.632 165.373 119.44 165.745 119.056C166.129 118.66 166.333 118.168 166.357 117.58ZM177.282 119.65C176.742 120.718 175.914 121.252 174.798 121.252C173.682 121.252 172.746 120.826 171.99 119.974C171.21 119.086 170.82 117.958 170.82 116.59C170.82 115.222 171.192 114.112 171.936 113.26C172.668 112.432 173.58 112.018 174.672 112.018C175.764 112.018 176.586 112.456 177.138 113.332V108.652H179.28V121H177.534L177.282 119.65ZM175.068 113.926C174.468 113.926 173.964 114.172 173.556 114.664C173.16 115.144 172.962 115.792 172.962 116.608C172.962 117.424 173.166 118.084 173.574 118.588C173.982 119.08 174.498 119.326 175.122 119.326C175.638 119.326 176.1 119.122 176.508 118.714C176.928 118.294 177.138 117.766 177.138 117.13V115.996C177.114 115.372 176.904 114.862 176.508 114.466C176.148 114.106 175.668 113.926 175.068 113.926ZM192.118 120.784C191.326 121.096 190.702 121.252 190.246 121.252C189.79 121.252 189.388 121.198 189.04 121.09C188.704 120.982 188.404 120.82 188.14 120.604C187.588 120.112 187.312 119.434 187.312 118.57V113.674H186.088V112.252H187.312V109.948H189.436V112.252H191.812V113.674H189.436V118.498C189.436 119.218 189.778 119.578 190.462 119.578C190.81 119.578 191.26 119.482 191.812 119.29L192.118 120.784ZM196.411 113.674C197.011 112.57 197.887 112.018 199.039 112.018C200.191 112.018 201.037 112.372 201.577 113.08C202.129 113.788 202.405 114.724 202.405 115.888V121H200.281V115.888C200.281 115.24 200.125 114.754 199.813 114.43C199.501 114.094 199.063 113.926 198.499 113.926C197.935 113.926 197.449 114.178 197.041 114.682C196.645 115.186 196.435 115.942 196.411 116.95V121H194.287V108.652H196.411V113.674ZM208.382 115.888C209.078 115.888 209.882 116.002 210.794 116.23V115.366C210.794 114.754 210.668 114.304 210.416 114.016C210.176 113.716 209.774 113.566 209.21 113.566C208.658 113.566 208.232 113.68 207.932 113.908C207.632 114.124 207.482 114.436 207.482 114.844H205.16C205.16 113.848 205.508 113.128 206.204 112.684C206.912 112.24 207.896 112.018 209.156 112.018C210.956 112.018 212.12 112.648 212.648 113.908C212.828 114.34 212.918 114.85 212.918 115.438V121H211.064L210.902 119.83C210.338 120.778 209.474 121.252 208.31 121.252C207.182 121.252 206.306 120.976 205.682 120.424C205.106 119.896 204.818 119.23 204.818 118.426C204.818 117.61 205.136 116.986 205.772 116.554C206.408 116.11 207.278 115.888 208.382 115.888ZM210.794 117.58C210.086 117.388 209.426 117.292 208.814 117.292C207.662 117.292 207.086 117.676 207.086 118.444C207.086 118.768 207.218 119.05 207.482 119.29C207.746 119.518 208.166 119.632 208.742 119.632C209.33 119.632 209.81 119.44 210.182 119.056C210.566 118.66 210.77 118.168 210.794 117.58ZM220.946 120.784C220.154 121.096 219.53 121.252 219.074 121.252C218.618 121.252 218.216 121.198 217.868 121.09C217.532 120.982 217.232 120.82 216.968 120.604C216.416 120.112 216.14 119.434 216.14 118.57V113.674H214.916V112.252H216.14V109.948H218.264V112.252H220.64V113.674H218.264V118.498C218.264 119.218 218.606 119.578 219.29 119.578C219.638 119.578 220.088 119.482 220.64 119.29L220.946 120.784ZM228.748 112.252L230.854 118.552L232.69 112.252H234.85L231.502 122.584C231.154 123.628 230.728 124.378 230.224 124.834C229.732 125.29 229.102 125.518 228.334 125.518C227.554 125.518 226.774 125.326 225.994 124.942V123.07C226.618 123.466 227.248 123.664 227.884 123.664C228.304 123.664 228.646 123.496 228.91 123.16C229.186 122.824 229.408 122.386 229.576 121.846L229.846 121L226.336 112.252H228.748ZM240.176 112.018C240.764 112.018 241.316 112.114 241.832 112.306C242.348 112.486 242.792 112.768 243.164 113.152C243.992 113.992 244.406 115.156 244.406 116.644C244.406 118.108 243.992 119.26 243.164 120.1C242.42 120.868 241.424 121.252 240.176 121.252C238.928 121.252 237.92 120.868 237.152 120.1C236.324 119.272 235.91 118.12 235.91 116.644C235.91 115.144 236.324 113.98 237.152 113.152C237.908 112.396 238.916 112.018 240.176 112.018ZM242.282 116.626C242.282 115.702 242.102 115.012 241.742 114.556C241.382 114.088 240.878 113.854 240.23 113.854C239.594 113.854 239.072 114.088 238.664 114.556C238.256 115.012 238.052 115.702 238.052 116.626C238.052 117.55 238.232 118.246 238.592 118.714C238.964 119.17 239.468 119.398 240.104 119.398C240.74 119.398 241.262 119.17 241.67 118.714C242.078 118.246 242.282 117.55 242.282 116.626ZM252.748 119.416C252.196 120.58 251.308 121.162 250.084 121.162C248.536 121.162 247.516 120.556 247.024 119.344C246.844 118.924 246.754 118.414 246.754 117.814V112.234H248.878V117.598C248.878 118.174 249.016 118.606 249.292 118.894C249.568 119.17 249.904 119.308 250.3 119.308C250.708 119.308 251.05 119.254 251.326 119.146C251.602 119.026 251.842 118.852 252.046 118.624C252.49 118.108 252.724 117.418 252.748 116.554V112.234H254.872V121H252.748V119.416ZM268.478 119.65C267.938 120.718 267.11 121.252 265.994 121.252C264.878 121.252 263.942 120.826 263.186 119.974C262.406 119.086 262.016 117.958 262.016 116.59C262.016 115.222 262.388 114.112 263.132 113.26C263.864 112.432 264.776 112.018 265.868 112.018C266.96 112.018 267.782 112.456 268.334 113.332V108.652H270.476V121H268.73L268.478 119.65ZM266.264 113.926C265.664 113.926 265.16 114.172 264.752 114.664C264.356 115.144 264.158 115.792 264.158 116.608C264.158 117.424 264.362 118.084 264.77 118.588C265.178 119.08 265.694 119.326 266.318 119.326C266.834 119.326 267.296 119.122 267.704 118.714C268.124 118.294 268.334 117.766 268.334 117.13V115.996C268.31 115.372 268.1 114.862 267.704 114.466C267.344 114.106 266.864 113.926 266.264 113.926ZM277.266 112.018C277.854 112.018 278.406 112.114 278.922 112.306C279.438 112.486 279.882 112.768 280.254 113.152C281.082 113.992 281.496 115.156 281.496 116.644C281.496 118.108 281.082 119.26 280.254 120.1C279.51 120.868 278.514 121.252 277.266 121.252C276.018 121.252 275.01 120.868 274.242 120.1C273.414 119.272 273 118.12 273 116.644C273 115.144 273.414 113.98 274.242 113.152C274.998 112.396 276.006 112.018 277.266 112.018ZM279.372 116.626C279.372 115.702 279.192 115.012 278.832 114.556C278.472 114.088 277.968 113.854 277.32 113.854C276.684 113.854 276.162 114.088 275.754 114.556C275.346 115.012 275.142 115.702 275.142 116.626C275.142 117.55 275.322 118.246 275.682 118.714C276.054 119.17 276.558 119.398 277.194 119.398C277.83 119.398 278.352 119.17 278.76 118.714C279.168 118.246 279.372 117.55 279.372 116.626ZM286.112 113.764C286.688 112.6 287.612 112.018 288.884 112.018C289.964 112.018 290.774 112.372 291.314 113.08C291.866 113.788 292.142 114.724 292.142 115.888V121H290.018V115.888C290.018 115.24 289.862 114.754 289.55 114.43C289.238 114.094 288.8 113.926 288.236 113.926C287.672 113.926 287.186 114.178 286.778 114.682C286.382 115.186 286.172 115.942 286.148 116.95V121H284.024V112.252H285.878L286.112 113.764ZM294.536 110.542C294.536 110.182 294.674 109.882 294.95 109.642C295.226 109.39 295.598 109.264 296.066 109.264C296.546 109.264 296.936 109.456 297.236 109.84C297.548 110.212 297.704 110.68 297.704 111.244C297.704 111.796 297.506 112.342 297.11 112.882C296.726 113.422 296.21 113.854 295.562 114.178L294.086 113.368C295.01 112.9 295.568 112.372 295.76 111.784C295.412 111.724 295.118 111.592 294.878 111.388C294.65 111.184 294.536 110.902 294.536 110.542ZM305.057 120.784C304.265 121.096 303.641 121.252 303.185 121.252C302.729 121.252 302.327 121.198 301.979 121.09C301.643 120.982 301.343 120.82 301.079 120.604C300.527 120.112 300.251 119.434 300.251 118.57V113.674H299.027V112.252H300.251V109.948H302.375V112.252H304.751V113.674H302.375V118.498C302.375 119.218 302.717 119.578 303.401 119.578C303.749 119.578 304.199 119.482 304.751 119.29L305.057 120.784ZM312.553 112.252L314.317 118.498L315.991 112.738H317.917L319.591 118.516L321.373 112.252H323.497L320.617 121H318.529L316.909 115.762L315.325 121H313.219L310.321 112.252H312.553ZM328.3 115.888C328.996 115.888 329.8 116.002 330.712 116.23V115.366C330.712 114.754 330.586 114.304 330.334 114.016C330.094 113.716 329.692 113.566 329.128 113.566C328.576 113.566 328.15 113.68 327.85 113.908C327.55 114.124 327.4 114.436 327.4 114.844H325.078C325.078 113.848 325.426 113.128 326.122 112.684C326.83 112.24 327.814 112.018 329.074 112.018C330.874 112.018 332.038 112.648 332.566 113.908C332.746 114.34 332.836 114.85 332.836 115.438V121H330.982L330.82 119.83C330.256 120.778 329.392 121.252 328.228 121.252C327.1 121.252 326.224 120.976 325.6 120.424C325.024 119.896 324.736 119.23 324.736 118.426C324.736 117.61 325.054 116.986 325.69 116.554C326.326 116.11 327.196 115.888 328.3 115.888ZM330.712 117.58C330.004 117.388 329.344 117.292 328.732 117.292C327.58 117.292 327.004 117.676 327.004 118.444C327.004 118.768 327.136 119.05 327.4 119.29C327.664 119.518 328.084 119.632 328.66 119.632C329.248 119.632 329.728 119.44 330.1 119.056C330.484 118.66 330.688 118.168 330.712 117.58ZM338.02 113.764C338.596 112.6 339.52 112.018 340.792 112.018C341.872 112.018 342.682 112.372 343.222 113.08C343.774 113.788 344.05 114.724 344.05 115.888V121H341.926V115.888C341.926 115.24 341.77 114.754 341.458 114.43C341.146 114.094 340.708 113.926 340.144 113.926C339.58 113.926 339.094 114.178 338.686 114.682C338.29 115.186 338.08 115.942 338.056 116.95V121H335.932V112.252H337.786L338.02 113.764ZM352.079 120.784C351.287 121.096 350.663 121.252 350.207 121.252C349.751 121.252 349.349 121.198 349.001 121.09C348.665 120.982 348.365 120.82 348.101 120.604C347.549 120.112 347.273 119.434 347.273 118.57V113.674H346.049V112.252H347.273V109.948H349.397V112.252H351.773V113.674H349.397V118.498C349.397 119.218 349.739 119.578 350.423 119.578C350.771 119.578 351.221 119.482 351.773 119.29L352.079 120.784ZM354.662 121.09C354.326 121.03 354.038 120.898 353.798 120.694C353.57 120.478 353.456 120.196 353.456 119.848C353.456 119.488 353.594 119.182 353.87 118.93C354.146 118.678 354.524 118.552 355.004 118.552C355.484 118.552 355.874 118.738 356.174 119.11C356.474 119.482 356.624 119.938 356.624 120.478C356.624 121.354 356.228 122.152 355.436 122.872C355.184 123.1 354.902 123.292 354.59 123.448L353.006 122.656C353.402 122.452 353.75 122.224 354.05 121.972C354.362 121.72 354.566 121.426 354.662 121.09ZM11.38 146.65C10.84 147.718 10.012 148.252 8.896 148.252C7.78 148.252 6.844 147.826 6.088 146.974C5.308 146.086 4.918 144.958 4.918 143.59C4.918 142.222 5.29 141.112 6.034 140.26C6.766 139.432 7.678 139.018 8.77 139.018C9.862 139.018 10.684 139.456 11.236 140.332V135.652H13.378V148H11.632L11.38 146.65ZM9.166 140.926C8.566 140.926 8.062 141.172 7.654 141.664C7.258 142.144 7.06 142.792 7.06 143.608C7.06 144.424 7.264 145.084 7.672 145.588C8.08 146.08 8.596 146.326 9.22 146.326C9.736 146.326 10.198 146.122 10.606 145.714C11.026 145.294 11.236 144.766 11.236 144.13V142.996C11.212 142.372 11.002 141.862 10.606 141.466C10.246 141.106 9.766 140.926 9.166 140.926ZM20.1686 139.018C20.7566 139.018 21.3086 139.114 21.8246 139.306C22.3406 139.486 22.7846 139.768 23.1566 140.152C23.9846 140.992 24.3986 142.156 24.3986 143.644C24.3986 145.108 23.9846 146.26 23.1566 147.1C22.4126 147.868 21.4166 148.252 20.1686 148.252C18.9206 148.252 17.9126 147.868 17.1446 147.1C16.3166 146.272 15.9026 145.12 15.9026 143.644C15.9026 142.144 16.3166 140.98 17.1446 140.152C17.9006 139.396 18.9086 139.018 20.1686 139.018ZM22.2746 143.626C22.2746 142.702 22.0946 142.012 21.7346 141.556C21.3746 141.088 20.8706 140.854 20.2226 140.854C19.5866 140.854 19.0646 141.088 18.6566 141.556C18.2486 142.012 18.0446 142.702 18.0446 143.626C18.0446 144.55 18.2246 145.246 18.5846 145.714C18.9566 146.17 19.4606 146.398 20.0966 146.398C20.7326 146.398 21.2546 146.17 21.6626 145.714C22.0706 145.246 22.2746 144.55 22.2746 143.626ZM29.014 140.764C29.59 139.6 30.514 139.018 31.786 139.018C32.866 139.018 33.676 139.372 34.216 140.08C34.768 140.788 35.044 141.724 35.044 142.888V148H32.92V142.888C32.92 142.24 32.764 141.754 32.452 141.43C32.14 141.094 31.702 140.926 31.138 140.926C30.574 140.926 30.088 141.178 29.68 141.682C29.284 142.186 29.074 142.942 29.05 143.95V148H26.926V139.252H28.78L29.014 140.764ZM37.4388 137.542C37.4388 137.182 37.5768 136.882 37.8528 136.642C38.1288 136.39 38.5008 136.264 38.9688 136.264C39.4488 136.264 39.8388 136.456 40.1388 136.84C40.4508 137.212 40.6068 137.68 40.6068 138.244C40.6068 138.796 40.4088 139.342 40.0128 139.882C39.6288 140.422 39.1128 140.854 38.4648 141.178L36.9888 140.368C37.9128 139.9 38.4708 139.372 38.6628 138.784C38.3148 138.724 38.0208 138.592 37.7808 138.388C37.5528 138.184 37.4388 137.902 37.4388 137.542ZM47.9595 147.784C47.1675 148.096 46.5435 148.252 46.0875 148.252C45.6315 148.252 45.2295 148.198 44.8815 148.09C44.5455 147.982 44.2455 147.82 43.9815 147.604C43.4295 147.112 43.1535 146.434 43.1535 145.57V140.674H41.9295V139.252H43.1535V136.948H45.2775V139.252H47.6535V140.674H45.2775V145.498C45.2775 146.218 45.6195 146.578 46.3035 146.578C46.6515 146.578 47.1015 146.482 47.6535 146.29L47.9595 147.784ZM56.6258 140.44C57.1778 139.492 58.0178 139.018 59.1458 139.018C60.2258 139.018 61.1498 139.426 61.9178 140.242C62.7338 141.106 63.1418 142.234 63.1418 143.626C63.1418 145.03 62.7278 146.164 61.8998 147.028C61.1318 147.844 60.2138 148.252 59.1458 148.252C58.0778 148.252 57.2978 147.934 56.8058 147.298V152.266H54.6818V139.252H56.4278L56.6258 140.44ZM58.7678 146.326C59.0198 146.326 59.2778 146.272 59.5418 146.164C59.8178 146.056 60.0638 145.888 60.2798 145.66C60.7598 145.156 60.9998 144.484 60.9998 143.644C60.9998 142.792 60.7898 142.126 60.3698 141.646C59.9618 141.166 59.4578 140.926 58.8578 140.926C58.2698 140.926 57.7838 141.1 57.3998 141.448C57.0278 141.784 56.8298 142.27 56.8058 142.906V144.472C56.8058 145.036 57.0038 145.492 57.3998 145.84C57.7718 146.164 58.2278 146.326 58.7678 146.326ZM68.5481 142.888C69.2441 142.888 70.0481 143.002 70.9601 143.23V142.366C70.9601 141.754 70.8341 141.304 70.5821 141.016C70.3421 140.716 69.9401 140.566 69.3761 140.566C68.8241 140.566 68.3981 140.68 68.0981 140.908C67.7981 141.124 67.6481 141.436 67.6481 141.844H65.3261C65.3261 140.848 65.6741 140.128 66.3701 139.684C67.0781 139.24 68.0621 139.018 69.3221 139.018C71.1221 139.018 72.2861 139.648 72.8141 140.908C72.9941 141.34 73.0841 141.85 73.0841 142.438V148H71.2301L71.0681 146.83C70.5041 147.778 69.6401 148.252 68.4761 148.252C67.3481 148.252 66.4721 147.976 65.8481 147.424C65.2721 146.896 64.9841 146.23 64.9841 145.426C64.9841 144.61 65.3021 143.986 65.9381 143.554C66.5741 143.11 67.4441 142.888 68.5481 142.888ZM70.9601 144.58C70.2521 144.388 69.5921 144.292 68.9801 144.292C67.8281 144.292 67.2521 144.676 67.2521 145.444C67.2521 145.768 67.3841 146.05 67.6481 146.29C67.9121 146.518 68.3321 146.632 68.9081 146.632C69.4961 146.632 69.9761 146.44 70.3481 146.056C70.7321 145.66 70.9361 145.168 70.9601 144.58ZM77.2599 139.252L79.3659 145.552L81.2019 139.252H83.3619L80.0139 149.584C79.6659 150.628 79.2399 151.378 78.7359 151.834C78.2439 152.29 77.6139 152.518 76.8459 152.518C76.0659 152.518 75.2859 152.326 74.5059 151.942V150.07C75.1299 150.466 75.7599 150.664 76.3959 150.664C76.8159 150.664 77.1579 150.496 77.4219 150.16C77.6979 149.824 77.9199 149.386 78.0879 148.846L78.3579 148L74.8479 139.252H77.2599ZM88.8489 139.252H90.1449V138.226C90.1449 137.326 90.4089 136.636 90.9369 136.156C91.4169 135.724 92.0409 135.508 92.8089 135.508C93.3009 135.508 93.9069 135.58 94.6269 135.724L94.2129 137.362C93.8769 137.242 93.5709 137.182 93.2949 137.182C93.0309 137.182 92.7969 137.26 92.5929 137.416C92.3889 137.56 92.2869 137.836 92.2869 138.244V139.252H93.8889V140.674H92.2869V148H90.1449V140.674H88.8489V139.252ZM99.8327 139.018C100.421 139.018 100.973 139.114 101.489 139.306C102.005 139.486 102.449 139.768 102.821 140.152C103.649 140.992 104.063 142.156 104.063 143.644C104.063 145.108 103.649 146.26 102.821 147.1C102.077 147.868 101.081 148.252 99.8327 148.252C98.5847 148.252 97.5767 147.868 96.8087 147.1C95.9807 146.272 95.5667 145.12 95.5667 143.644C95.5667 142.144 95.9807 140.98 96.8087 140.152C97.5647 139.396 98.5727 139.018 99.8327 139.018ZM101.939 143.626C101.939 142.702 101.759 142.012 101.399 141.556C101.039 141.088 100.535 140.854 99.8867 140.854C99.2507 140.854 98.7287 141.088 98.3207 141.556C97.9127 142.012 97.7087 142.702 97.7087 143.626C97.7087 144.55 97.8887 145.246 98.2487 145.714C98.6207 146.17 99.1247 146.398 99.7607 146.398C100.397 146.398 100.919 146.17 101.327 145.714C101.735 145.246 101.939 144.55 101.939 143.626ZM108.714 140.98C109.242 139.72 110.034 139.09 111.09 139.09C111.294 139.09 111.552 139.132 111.864 139.216L111.828 141.34C111.492 141.268 111.162 141.232 110.838 141.232C109.422 141.232 108.714 142.21 108.714 144.166V148H106.59V139.234H108.714V140.98ZM118.811 139.234H120.935V148H118.811V139.234ZM118.559 136.426C118.559 136.042 118.673 135.742 118.901 135.526C119.129 135.298 119.453 135.184 119.873 135.184C120.281 135.184 120.599 135.298 120.827 135.526C121.067 135.742 121.187 136.042 121.187 136.426C121.187 136.81 121.067 137.116 120.827 137.344C120.599 137.56 120.281 137.668 119.873 137.668C119.453 137.668 119.129 137.56 118.901 137.344C118.673 137.116 118.559 136.81 118.559 136.426ZM129.469 147.784C128.677 148.096 128.053 148.252 127.597 148.252C127.141 148.252 126.739 148.198 126.391 148.09C126.055 147.982 125.755 147.82 125.491 147.604C124.939 147.112 124.663 146.434 124.663 145.57V140.674H123.439V139.252H124.663V136.948H126.787V139.252H129.163V140.674H126.787V145.498C126.787 146.218 127.129 146.578 127.813 146.578C128.161 146.578 128.611 146.482 129.163 146.29L129.469 147.784ZM131.873 148.162C131.441 148.162 131.087 148.03 130.811 147.766C130.535 147.502 130.397 147.166 130.397 146.758C130.397 146.35 130.535 146.008 130.811 145.732C131.087 145.456 131.441 145.318 131.873 145.318C132.305 145.318 132.665 145.456 132.953 145.732C133.241 146.008 133.385 146.35 133.385 146.758C133.385 147.166 133.241 147.502 132.953 147.766C132.665 148.03 132.305 148.162 131.873 148.162ZM141.193 136.318L143.767 140.98L146.467 136.318H148.969L144.811 143.176V148H142.687V143.176L138.673 136.318H141.193ZM152.901 139.018C153.489 139.018 154.041 139.114 154.557 139.306C155.073 139.486 155.517 139.768 155.889 140.152C156.717 140.992 157.131 142.156 157.131 143.644C157.131 145.108 156.717 146.26 155.889 147.1C155.145 147.868 154.149 148.252 152.901 148.252C151.653 148.252 150.645 147.868 149.877 147.1C149.049 146.272 148.635 145.12 148.635 143.644C148.635 142.144 149.049 140.98 149.877 140.152C150.633 139.396 151.641 139.018 152.901 139.018ZM155.007 143.626C155.007 142.702 154.827 142.012 154.467 141.556C154.107 141.088 153.603 140.854 152.955 140.854C152.319 140.854 151.797 141.088 151.389 141.556C150.981 142.012 150.777 142.702 150.777 143.626C150.777 144.55 150.957 145.246 151.317 145.714C151.689 146.17 152.193 146.398 152.829 146.398C153.465 146.398 153.987 146.17 154.395 145.714C154.803 145.246 155.007 144.55 155.007 143.626ZM165.472 146.416C164.92 147.58 164.032 148.162 162.808 148.162C161.26 148.162 160.24 147.556 159.748 146.344C159.568 145.924 159.478 145.414 159.478 144.814V139.234H161.602V144.598C161.602 145.174 161.74 145.606 162.016 145.894C162.292 146.17 162.628 146.308 163.024 146.308C163.432 146.308 163.774 146.254 164.05 146.146C164.326 146.026 164.566 145.852 164.77 145.624C165.214 145.108 165.448 144.418 165.472 143.554V139.234H167.596V148H165.472V146.416ZM170.242 137.542C170.242 137.182 170.38 136.882 170.656 136.642C170.932 136.39 171.304 136.264 171.772 136.264C172.252 136.264 172.642 136.456 172.942 136.84C173.254 137.212 173.41 137.68 173.41 138.244C173.41 138.796 173.212 139.342 172.816 139.882C172.432 140.422 171.916 140.854 171.268 141.178L169.792 140.368C170.716 139.9 171.274 139.372 171.466 138.784C171.118 138.724 170.824 138.592 170.584 138.388C170.356 138.184 170.242 137.902 170.242 137.542ZM177.954 140.98C178.482 139.72 179.274 139.09 180.33 139.09C180.534 139.09 180.792 139.132 181.104 139.216L181.068 141.34C180.732 141.268 180.402 141.232 180.078 141.232C178.662 141.232 177.954 142.21 177.954 144.166V148H175.83V139.234H177.954V140.98ZM189.421 140.296C189.721 140.68 189.943 141.124 190.087 141.628C190.243 142.132 190.321 142.594 190.321 143.014C190.321 143.434 190.297 143.812 190.249 144.148H184.597C184.621 144.856 184.795 145.432 185.119 145.876C185.443 146.32 185.935 146.542 186.595 146.542C187.471 146.542 187.993 146.158 188.161 145.39H190.303C190.159 146.266 189.757 146.956 189.097 147.46C188.413 147.988 187.579 148.252 186.595 148.252C185.443 148.252 184.477 147.832 183.697 146.992C182.893 146.116 182.491 144.994 182.491 143.626C182.491 142.222 182.893 141.094 183.697 140.242C184.465 139.426 185.431 139.018 186.595 139.018C187.807 139.018 188.749 139.444 189.421 140.296ZM186.613 140.71C186.013 140.71 185.545 140.908 185.209 141.304C184.873 141.688 184.675 142.186 184.615 142.798H188.341C188.341 141.85 188.041 141.214 187.441 140.89C187.213 140.77 186.937 140.71 186.613 140.71ZM200.854 139.018C201.442 139.018 201.994 139.114 202.51 139.306C203.026 139.486 203.47 139.768 203.842 140.152C204.67 140.992 205.084 142.156 205.084 143.644C205.084 145.108 204.67 146.26 203.842 147.1C203.098 147.868 202.102 148.252 200.854 148.252C199.606 148.252 198.598 147.868 197.83 147.1C197.002 146.272 196.588 145.12 196.588 143.644C196.588 142.144 197.002 140.98 197.83 140.152C198.586 139.396 199.594 139.018 200.854 139.018ZM202.96 143.626C202.96 142.702 202.78 142.012 202.42 141.556C202.06 141.088 201.556 140.854 200.908 140.854C200.272 140.854 199.75 141.088 199.342 141.556C198.934 142.012 198.73 142.702 198.73 143.626C198.73 144.55 198.91 145.246 199.27 145.714C199.642 146.17 200.146 146.398 200.782 146.398C201.418 146.398 201.94 146.17 202.348 145.714C202.756 145.246 202.96 144.55 202.96 143.626ZM209.7 140.764C210.276 139.6 211.2 139.018 212.472 139.018C213.552 139.018 214.362 139.372 214.902 140.08C215.454 140.788 215.73 141.724 215.73 142.888V148H213.606V142.888C213.606 142.24 213.45 141.754 213.138 141.43C212.826 141.094 212.388 140.926 211.824 140.926C211.26 140.926 210.774 141.178 210.366 141.682C209.97 142.186 209.76 142.942 209.736 143.95V148H207.612V139.252H209.466L209.7 140.764ZM218.826 135.652H220.95V148H218.826V135.652ZM225.373 139.252L227.479 145.552L229.315 139.252H231.475L228.127 149.584C227.779 150.628 227.353 151.378 226.849 151.834C226.357 152.29 225.727 152.518 224.959 152.518C224.179 152.518 223.399 152.326 222.619 151.942V150.07C223.243 150.466 223.873 150.664 224.509 150.664C224.929 150.664 225.271 150.496 225.535 150.16C225.811 149.824 226.033 149.386 226.201 148.846L226.471 148L222.961 139.252H225.373ZM241.246 139.018C241.798 139.018 242.29 139.114 242.722 139.306C243.166 139.486 243.538 139.726 243.838 140.026C244.438 140.602 244.792 141.328 244.9 142.204L242.758 142.258C242.662 141.874 242.482 141.556 242.218 141.304C241.966 141.052 241.672 140.926 241.336 140.926C241 140.926 240.712 140.98 240.472 141.088C240.232 141.184 240.022 141.34 239.842 141.556C239.434 142.06 239.23 142.756 239.23 143.644C239.23 144.532 239.422 145.204 239.806 145.66C240.19 146.104 240.652 146.326 241.192 146.326C241.744 146.326 242.14 146.2 242.38 145.948C242.632 145.684 242.758 145.33 242.758 144.886H244.9C244.9 145.846 244.582 146.644 243.946 147.28C243.298 147.928 242.392 148.252 241.228 148.252C240.076 148.252 239.11 147.832 238.33 146.992C237.502 146.092 237.088 144.97 237.088 143.626C237.088 142.21 237.502 141.076 238.33 140.224C239.11 139.42 240.082 139.018 241.246 139.018ZM249.585 140.674C250.185 139.57 251.061 139.018 252.213 139.018C253.365 139.018 254.211 139.372 254.751 140.08C255.303 140.788 255.579 141.724 255.579 142.888V148H253.455V142.888C253.455 142.24 253.299 141.754 252.987 141.43C252.675 141.094 252.237 140.926 251.673 140.926C251.109 140.926 250.623 141.178 250.215 141.682C249.819 142.186 249.609 142.942 249.585 143.95V148H247.461V135.652H249.585V140.674ZM261.556 142.888C262.252 142.888 263.056 143.002 263.968 143.23V142.366C263.968 141.754 263.842 141.304 263.59 141.016C263.35 140.716 262.948 140.566 262.384 140.566C261.832 140.566 261.406 140.68 261.106 140.908C260.806 141.124 260.656 141.436 260.656 141.844H258.334C258.334 140.848 258.682 140.128 259.378 139.684C260.086 139.24 261.07 139.018 262.33 139.018C264.13 139.018 265.294 139.648 265.822 140.908C266.002 141.34 266.092 141.85 266.092 142.438V148H264.238L264.076 146.83C263.512 147.778 262.648 148.252 261.484 148.252C260.356 148.252 259.48 147.976 258.856 147.424C258.28 146.896 257.992 146.23 257.992 145.426C257.992 144.61 258.31 143.986 258.946 143.554C259.582 143.11 260.452 142.888 261.556 142.888ZM263.968 144.58C263.26 144.388 262.6 144.292 261.988 144.292C260.836 144.292 260.26 144.676 260.26 145.444C260.26 145.768 260.392 146.05 260.656 146.29C260.92 146.518 261.34 146.632 261.916 146.632C262.504 146.632 262.984 146.44 263.356 146.056C263.74 145.66 263.944 145.168 263.968 144.58ZM271.312 140.98C271.84 139.72 272.632 139.09 273.688 139.09C273.892 139.09 274.15 139.132 274.462 139.216L274.426 141.34C274.09 141.268 273.76 141.232 273.436 141.232C272.02 141.232 271.312 142.21 271.312 144.166V148H269.188V139.234H271.312V140.98ZM277.291 144.418C276.583 143.818 276.229 143.068 276.229 142.168C276.229 141.22 276.601 140.452 277.345 139.864C278.065 139.3 278.887 139.018 279.811 139.018C280.747 139.018 281.527 139.192 282.151 139.54C282.223 138.856 282.517 138.304 283.033 137.884C283.537 137.464 284.131 137.254 284.815 137.254L284.707 139.288C283.675 139.288 283.141 139.63 283.105 140.314C283.549 140.866 283.771 141.43 283.771 142.006C283.771 142.582 283.669 143.068 283.465 143.464C283.261 143.848 282.985 144.172 282.637 144.436C281.917 145.012 281.041 145.3 280.009 145.3C279.421 145.3 278.887 145.21 278.407 145.03C277.927 145.174 277.687 145.462 277.687 145.894C277.687 146.434 278.143 146.704 279.055 146.704H281.989C283.981 146.704 284.977 147.4 284.977 148.792C284.977 149.26 284.857 149.716 284.617 150.16C284.389 150.616 284.053 151.018 283.609 151.366C282.625 152.134 281.389 152.518 279.901 152.518C278.461 152.518 277.291 152.224 276.391 151.636C275.551 151.072 275.131 150.382 275.131 149.566C275.131 149.026 275.293 148.594 275.617 148.27C275.953 147.958 276.391 147.76 276.931 147.676C276.223 147.244 275.869 146.71 275.869 146.074C275.869 145.654 276.001 145.306 276.265 145.03C276.529 144.742 276.871 144.538 277.291 144.418ZM278.911 148.198C277.783 148.246 277.219 148.672 277.219 149.476C277.219 149.884 277.453 150.208 277.921 150.448C278.401 150.7 278.965 150.826 279.613 150.826C280.261 150.826 280.765 150.772 281.125 150.664C281.497 150.556 281.809 150.412 282.061 150.232C282.601 149.872 282.871 149.44 282.871 148.936C282.871 148.72 282.793 148.54 282.637 148.396C282.493 148.264 282.277 148.198 281.989 148.198H278.911ZM281.665 142.15C281.665 141.658 281.527 141.262 281.251 140.962C280.987 140.65 280.579 140.494 280.027 140.494C279.475 140.494 279.055 140.65 278.767 140.962C278.479 141.262 278.335 141.658 278.335 142.15C278.335 142.63 278.479 143.026 278.767 143.338C279.055 143.65 279.475 143.806 280.027 143.806C280.579 143.806 280.987 143.65 281.251 143.338C281.527 143.026 281.665 142.63 281.665 142.15ZM293.114 140.296C293.414 140.68 293.636 141.124 293.78 141.628C293.936 142.132 294.014 142.594 294.014 143.014C294.014 143.434 293.99 143.812 293.942 144.148H288.29C288.314 144.856 288.488 145.432 288.812 145.876C289.136 146.32 289.628 146.542 290.288 146.542C291.164 146.542 291.686 146.158 291.854 145.39H293.996C293.852 146.266 293.45 146.956 292.79 147.46C292.106 147.988 291.272 148.252 290.288 148.252C289.136 148.252 288.17 147.832 287.39 146.992C286.586 146.116 286.184 144.994 286.184 143.626C286.184 142.222 286.586 141.094 287.39 140.242C288.158 139.426 289.124 139.018 290.288 139.018C291.5 139.018 292.442 139.444 293.114 140.296ZM290.306 140.71C289.706 140.71 289.238 140.908 288.902 141.304C288.566 141.688 288.368 142.186 288.308 142.798H292.034C292.034 141.85 291.734 141.214 291.134 140.89C290.906 140.77 290.63 140.71 290.306 140.71ZM302.263 146.65C301.723 147.718 300.895 148.252 299.779 148.252C298.663 148.252 297.727 147.826 296.971 146.974C296.191 146.086 295.801 144.958 295.801 143.59C295.801 142.222 296.173 141.112 296.917 140.26C297.649 139.432 298.561 139.018 299.653 139.018C300.745 139.018 301.567 139.456 302.119 140.332V135.652H304.261V148H302.515L302.263 146.65ZM300.049 140.926C299.449 140.926 298.945 141.172 298.537 141.664C298.141 142.144 297.943 142.792 297.943 143.608C297.943 144.424 298.147 145.084 298.555 145.588C298.963 146.08 299.479 146.326 300.103 146.326C300.619 146.326 301.081 146.122 301.489 145.714C301.909 145.294 302.119 144.766 302.119 144.13V142.996C302.095 142.372 301.885 141.862 301.489 141.466C301.129 141.106 300.649 140.926 300.049 140.926ZM311.212 139.252H312.508V138.226C312.508 137.326 312.772 136.636 313.3 136.156C313.78 135.724 314.404 135.508 315.172 135.508C315.664 135.508 316.27 135.58 316.99 135.724L316.576 137.362C316.24 137.242 315.934 137.182 315.658 137.182C315.394 137.182 315.16 137.26 314.956 137.416C314.752 137.56 314.65 137.836 314.65 138.244V139.252H316.252V140.674H314.65V148H312.508V140.674H311.212V139.252ZM322.196 139.018C322.784 139.018 323.336 139.114 323.852 139.306C324.368 139.486 324.812 139.768 325.184 140.152C326.012 140.992 326.426 142.156 326.426 143.644C326.426 145.108 326.012 146.26 325.184 147.1C324.44 147.868 323.444 148.252 322.196 148.252C320.948 148.252 319.94 147.868 319.172 147.1C318.344 146.272 317.93 145.12 317.93 143.644C317.93 142.144 318.344 140.98 319.172 140.152C319.928 139.396 320.936 139.018 322.196 139.018ZM324.302 143.626C324.302 142.702 324.122 142.012 323.762 141.556C323.402 141.088 322.898 140.854 322.25 140.854C321.614 140.854 321.092 141.088 320.684 141.556C320.276 142.012 320.072 142.702 320.072 143.626C320.072 144.55 320.252 145.246 320.612 145.714C320.984 146.17 321.488 146.398 322.124 146.398C322.76 146.398 323.282 146.17 323.69 145.714C324.098 145.246 324.302 144.55 324.302 143.626ZM331.077 140.98C331.605 139.72 332.397 139.09 333.453 139.09C333.657 139.09 333.915 139.132 334.227 139.216L334.191 141.34C333.855 141.268 333.525 141.232 333.201 141.232C331.785 141.232 331.077 142.21 331.077 144.166V148H328.953V139.234H331.077V140.98ZM11.488 173.416C10.936 174.58 10.048 175.162 8.824 175.162C7.276 175.162 6.256 174.556 5.764 173.344C5.584 172.924 5.494 172.414 5.494 171.814V166.234H7.618V171.598C7.618 172.174 7.756 172.606 8.032 172.894C8.308 173.17 8.644 173.308 9.04 173.308C9.448 173.308 9.79 173.254 10.066 173.146C10.342 173.026 10.582 172.852 10.786 172.624C11.23 172.108 11.464 171.418 11.488 170.554V166.234H13.612V175H11.488V173.416ZM18.1472 172.336C18.1712 173.164 18.7772 173.578 19.9652 173.578C20.4212 173.578 20.7932 173.482 21.0812 173.29C21.3812 173.086 21.5312 172.852 21.5312 172.588C21.5312 172.324 21.4412 172.12 21.2612 171.976C21.0812 171.832 20.7992 171.7 20.4152 171.58L18.5072 170.896C17.0912 170.404 16.3832 169.6 16.3832 168.484C16.3832 167.74 16.7132 167.146 17.3732 166.702C18.0452 166.246 18.9392 166.018 20.0552 166.018C21.1832 166.018 22.0472 166.264 22.6472 166.756C23.2592 167.248 23.5772 167.866 23.6012 168.61H21.6032C21.5792 168.322 21.4412 168.094 21.1892 167.926C20.9372 167.758 20.5772 167.674 20.1092 167.674C19.6412 167.674 19.2752 167.77 19.0112 167.962C18.7592 168.142 18.6332 168.352 18.6332 168.592C18.6332 169.012 18.9872 169.324 19.6952 169.528L21.7652 170.302C22.4492 170.53 22.9712 170.824 23.3312 171.184C23.7032 171.532 23.8892 171.988 23.8892 172.552C23.8892 173.272 23.5472 173.896 22.8632 174.424C22.1552 174.976 21.2192 175.252 20.0552 175.252C18.8912 175.252 17.9552 175 17.2472 174.496C16.5392 173.98 16.1792 173.26 16.1672 172.336H18.1472ZM26.6313 166.234H28.7553V175H26.6313V166.234ZM26.3793 163.426C26.3793 163.042 26.4933 162.742 26.7213 162.526C26.9493 162.298 27.2733 162.184 27.6933 162.184C28.1013 162.184 28.4193 162.298 28.6473 162.526C28.8873 162.742 29.0073 163.042 29.0073 163.426C29.0073 163.81 28.8873 164.116 28.6473 164.344C28.4193 164.56 28.1013 164.668 27.6933 164.668C27.2733 164.668 26.9493 164.56 26.7213 164.344C26.4933 164.116 26.3793 163.81 26.3793 163.426ZM34.4456 167.764C35.0216 166.6 35.9456 166.018 37.2176 166.018C38.2976 166.018 39.1076 166.372 39.6476 167.08C40.1996 167.788 40.4756 168.724 40.4756 169.888V175H38.3516V169.888C38.3516 169.24 38.1956 168.754 37.8836 168.43C37.5716 168.094 37.1336 167.926 36.5696 167.926C36.0056 167.926 35.5196 168.178 35.1116 168.682C34.7156 169.186 34.5056 169.942 34.4816 170.95V175H32.3576V166.252H34.2116L34.4456 167.764ZM44.3284 171.418C43.6204 170.818 43.2664 170.068 43.2664 169.168C43.2664 168.22 43.6384 167.452 44.3824 166.864C45.1024 166.3 45.9244 166.018 46.8484 166.018C47.7844 166.018 48.5644 166.192 49.1884 166.54C49.2604 165.856 49.5544 165.304 50.0704 164.884C50.5744 164.464 51.1684 164.254 51.8524 164.254L51.7444 166.288C50.7124 166.288 50.1784 166.63 50.1424 167.314C50.5864 167.866 50.8084 168.43 50.8084 169.006C50.8084 169.582 50.7064 170.068 50.5024 170.464C50.2984 170.848 50.0224 171.172 49.6744 171.436C48.9544 172.012 48.0784 172.3 47.0464 172.3C46.4584 172.3 45.9244 172.21 45.4444 172.03C44.9644 172.174 44.7244 172.462 44.7244 172.894C44.7244 173.434 45.1804 173.704 46.0924 173.704H49.0264C51.0184 173.704 52.0144 174.4 52.0144 175.792C52.0144 176.26 51.8944 176.716 51.6544 177.16C51.4264 177.616 51.0904 178.018 50.6464 178.366C49.6624 179.134 48.4264 179.518 46.9384 179.518C45.4984 179.518 44.3284 179.224 43.4284 178.636C42.5884 178.072 42.1684 177.382 42.1684 176.566C42.1684 176.026 42.3304 175.594 42.6544 175.27C42.9904 174.958 43.4284 174.76 43.9684 174.676C43.2604 174.244 42.9064 173.71 42.9064 173.074C42.9064 172.654 43.0384 172.306 43.3024 172.03C43.5664 171.742 43.9084 171.538 44.3284 171.418ZM45.9484 175.198C44.8204 175.246 44.2564 175.672 44.2564 176.476C44.2564 176.884 44.4904 177.208 44.9584 177.448C45.4384 177.7 46.0024 177.826 46.6504 177.826C47.2984 177.826 47.8024 177.772 48.1624 177.664C48.5344 177.556 48.8464 177.412 49.0984 177.232C49.6384 176.872 49.9084 176.44 49.9084 175.936C49.9084 175.72 49.8304 175.54 49.6744 175.396C49.5304 175.264 49.3144 175.198 49.0264 175.198H45.9484ZM48.7024 169.15C48.7024 168.658 48.5644 168.262 48.2884 167.962C48.0244 167.65 47.6164 167.494 47.0644 167.494C46.5124 167.494 46.0924 167.65 45.8044 167.962C45.5164 168.262 45.3724 168.658 45.3724 169.15C45.3724 169.63 45.5164 170.026 45.8044 170.338C46.0924 170.65 46.5124 170.806 47.0644 170.806C47.6164 170.806 48.0244 170.65 48.2884 170.338C48.5644 170.026 48.7024 169.63 48.7024 169.15ZM61.4817 169.888C62.1777 169.888 62.9817 170.002 63.8937 170.23V169.366C63.8937 168.754 63.7677 168.304 63.5157 168.016C63.2757 167.716 62.8737 167.566 62.3097 167.566C61.7577 167.566 61.3317 167.68 61.0317 167.908C60.7317 168.124 60.5817 168.436 60.5817 168.844H58.2597C58.2597 167.848 58.6077 167.128 59.3037 166.684C60.0117 166.24 60.9957 166.018 62.2557 166.018C64.0557 166.018 65.2197 166.648 65.7477 167.908C65.9277 168.34 66.0177 168.85 66.0177 169.438V175H64.1637L64.0017 173.83C63.4377 174.778 62.5737 175.252 61.4097 175.252C60.2817 175.252 59.4057 174.976 58.7817 174.424C58.2057 173.896 57.9177 173.23 57.9177 172.426C57.9177 171.61 58.2357 170.986 58.8717 170.554C59.5077 170.11 60.3777 169.888 61.4817 169.888ZM63.8937 171.58C63.1857 171.388 62.5257 171.292 61.9137 171.292C60.7617 171.292 60.1857 171.676 60.1857 172.444C60.1857 172.768 60.3177 173.05 60.5817 173.29C60.8457 173.518 61.2657 173.632 61.8417 173.632C62.4297 173.632 62.9097 173.44 63.2817 173.056C63.6657 172.66 63.8697 172.168 63.8937 171.58ZM81.4422 167.908C82.0062 166.648 82.9962 166.018 84.4122 166.018C85.4562 166.018 86.2662 166.372 86.8422 167.08C87.3942 167.752 87.6702 168.688 87.6702 169.888V175H85.5282V169.888C85.5282 169.24 85.3722 168.754 85.0602 168.43C84.7482 168.094 84.3102 167.926 83.7462 167.926C83.1822 167.926 82.7202 168.172 82.3602 168.664C82.0002 169.156 81.8082 169.9 81.7842 170.896V175H79.6602V169.888C79.6602 169.24 79.5042 168.754 79.1922 168.43C78.8802 168.094 78.4422 167.926 77.8782 167.926C77.3142 167.926 76.8282 168.178 76.4202 168.682C76.0242 169.186 75.8142 169.942 75.7902 170.95V175H73.6662V166.252H75.5202L75.7542 167.764C76.3302 166.6 77.2542 166.018 78.5262 166.018C79.2582 166.018 79.8642 166.186 80.3442 166.522C80.8362 166.858 81.2022 167.32 81.4422 167.908ZM96.8541 167.296C97.1541 167.68 97.3761 168.124 97.5201 168.628C97.6761 169.132 97.7541 169.594 97.7541 170.014C97.7541 170.434 97.7301 170.812 97.6821 171.148H92.0301C92.0541 171.856 92.2281 172.432 92.5521 172.876C92.8761 173.32 93.3681 173.542 94.0281 173.542C94.9041 173.542 95.4261 173.158 95.5941 172.39H97.7361C97.5921 173.266 97.1901 173.956 96.5301 174.46C95.8461 174.988 95.0121 175.252 94.0281 175.252C92.8761 175.252 91.9101 174.832 91.1301 173.992C90.3261 173.116 89.9241 171.994 89.9241 170.626C89.9241 169.222 90.3261 168.094 91.1301 167.242C91.8981 166.426 92.8641 166.018 94.0281 166.018C95.2401 166.018 96.1821 166.444 96.8541 167.296ZM94.0461 167.71C93.4461 167.71 92.9781 167.908 92.6421 168.304C92.3061 168.688 92.1081 169.186 92.0481 169.798H95.7741C95.7741 168.85 95.4741 168.214 94.8741 167.89C94.6461 167.77 94.3701 167.71 94.0461 167.71ZM101.485 172.336C101.509 173.164 102.115 173.578 103.303 173.578C103.759 173.578 104.131 173.482 104.419 173.29C104.719 173.086 104.869 172.852 104.869 172.588C104.869 172.324 104.779 172.12 104.599 171.976C104.419 171.832 104.137 171.7 103.753 171.58L101.845 170.896C100.429 170.404 99.721 169.6 99.721 168.484C99.721 167.74 100.051 167.146 100.711 166.702C101.383 166.246 102.277 166.018 103.393 166.018C104.521 166.018 105.385 166.264 105.985 166.756C106.597 167.248 106.915 167.866 106.939 168.61H104.941C104.917 168.322 104.779 168.094 104.527 167.926C104.275 167.758 103.915 167.674 103.447 167.674C102.979 167.674 102.613 167.77 102.349 167.962C102.097 168.142 101.971 168.352 101.971 168.592C101.971 169.012 102.325 169.324 103.033 169.528L105.103 170.302C105.787 170.53 106.309 170.824 106.669 171.184C107.041 171.532 107.227 171.988 107.227 172.552C107.227 173.272 106.885 173.896 106.201 174.424C105.493 174.976 104.557 175.252 103.393 175.252C102.229 175.252 101.293 175 100.585 174.496C99.877 173.98 99.517 173.26 99.505 172.336H101.485ZM110.977 172.336C111.001 173.164 111.607 173.578 112.795 173.578C113.251 173.578 113.623 173.482 113.911 173.29C114.211 173.086 114.361 172.852 114.361 172.588C114.361 172.324 114.271 172.12 114.091 171.976C113.911 171.832 113.629 171.7 113.245 171.58L111.337 170.896C109.921 170.404 109.213 169.6 109.213 168.484C109.213 167.74 109.543 167.146 110.203 166.702C110.875 166.246 111.769 166.018 112.885 166.018C114.013 166.018 114.877 166.264 115.477 166.756C116.089 167.248 116.407 167.866 116.431 168.61H114.433C114.409 168.322 114.271 168.094 114.019 167.926C113.767 167.758 113.407 167.674 112.939 167.674C112.471 167.674 112.105 167.77 111.841 167.962C111.589 168.142 111.463 168.352 111.463 168.592C111.463 169.012 111.817 169.324 112.525 169.528L114.595 170.302C115.279 170.53 115.801 170.824 116.161 171.184C116.533 171.532 116.719 171.988 116.719 172.552C116.719 173.272 116.377 173.896 115.693 174.424C114.985 174.976 114.049 175.252 112.885 175.252C111.721 175.252 110.785 175 110.077 174.496C109.369 173.98 109.009 173.26 108.997 172.336H110.977ZM122.161 169.888C122.857 169.888 123.661 170.002 124.573 170.23V169.366C124.573 168.754 124.447 168.304 124.195 168.016C123.955 167.716 123.553 167.566 122.989 167.566C122.437 167.566 122.011 167.68 121.711 167.908C121.411 168.124 121.261 168.436 121.261 168.844H118.939C118.939 167.848 119.287 167.128 119.983 166.684C120.691 166.24 121.675 166.018 122.935 166.018C124.735 166.018 125.899 166.648 126.427 167.908C126.607 168.34 126.697 168.85 126.697 169.438V175H124.843L124.681 173.83C124.117 174.778 123.253 175.252 122.089 175.252C120.961 175.252 120.085 174.976 119.461 174.424C118.885 173.896 118.597 173.23 118.597 172.426C118.597 171.61 118.915 170.986 119.551 170.554C120.187 170.11 121.057 169.888 122.161 169.888ZM124.573 171.58C123.865 171.388 123.205 171.292 122.593 171.292C121.441 171.292 120.865 171.676 120.865 172.444C120.865 172.768 120.997 173.05 121.261 173.29C121.525 173.518 121.945 173.632 122.521 173.632C123.109 173.632 123.589 173.44 123.961 173.056C124.345 172.66 124.549 172.168 124.573 171.58ZM130.549 171.418C129.841 170.818 129.487 170.068 129.487 169.168C129.487 168.22 129.859 167.452 130.603 166.864C131.323 166.3 132.145 166.018 133.069 166.018C134.005 166.018 134.785 166.192 135.409 166.54C135.481 165.856 135.775 165.304 136.291 164.884C136.795 164.464 137.389 164.254 138.073 164.254L137.965 166.288C136.933 166.288 136.399 166.63 136.363 167.314C136.807 167.866 137.029 168.43 137.029 169.006C137.029 169.582 136.927 170.068 136.723 170.464C136.519 170.848 136.243 171.172 135.895 171.436C135.175 172.012 134.299 172.3 133.267 172.3C132.679 172.3 132.145 172.21 131.665 172.03C131.185 172.174 130.945 172.462 130.945 172.894C130.945 173.434 131.401 173.704 132.313 173.704H135.247C137.239 173.704 138.235 174.4 138.235 175.792C138.235 176.26 138.115 176.716 137.875 177.16C137.647 177.616 137.311 178.018 136.867 178.366C135.883 179.134 134.647 179.518 133.159 179.518C131.719 179.518 130.549 179.224 129.649 178.636C128.809 178.072 128.389 177.382 128.389 176.566C128.389 176.026 128.551 175.594 128.875 175.27C129.211 174.958 129.649 174.76 130.189 174.676C129.481 174.244 129.127 173.71 129.127 173.074C129.127 172.654 129.259 172.306 129.523 172.03C129.787 171.742 130.129 171.538 130.549 171.418ZM132.169 175.198C131.041 175.246 130.477 175.672 130.477 176.476C130.477 176.884 130.711 177.208 131.179 177.448C131.659 177.7 132.223 177.826 132.871 177.826C133.519 177.826 134.023 177.772 134.383 177.664C134.755 177.556 135.067 177.412 135.319 177.232C135.859 176.872 136.129 176.44 136.129 175.936C136.129 175.72 136.051 175.54 135.895 175.396C135.751 175.264 135.535 175.198 135.247 175.198H132.169ZM134.923 169.15C134.923 168.658 134.785 168.262 134.509 167.962C134.245 167.65 133.837 167.494 133.285 167.494C132.733 167.494 132.313 167.65 132.025 167.962C131.737 168.262 131.593 168.658 131.593 169.15C131.593 169.63 131.737 170.026 132.025 170.338C132.313 170.65 132.733 170.806 133.285 170.806C133.837 170.806 134.245 170.65 134.509 170.338C134.785 170.026 134.923 169.63 134.923 169.15ZM146.372 167.296C146.672 167.68 146.894 168.124 147.038 168.628C147.194 169.132 147.272 169.594 147.272 170.014C147.272 170.434 147.248 170.812 147.2 171.148H141.548C141.572 171.856 141.746 172.432 142.07 172.876C142.394 173.32 142.886 173.542 143.546 173.542C144.422 173.542 144.944 173.158 145.112 172.39H147.254C147.11 173.266 146.708 173.956 146.048 174.46C145.364 174.988 144.53 175.252 143.546 175.252C142.394 175.252 141.428 174.832 140.648 173.992C139.844 173.116 139.442 171.994 139.442 170.626C139.442 169.222 139.844 168.094 140.648 167.242C141.416 166.426 142.382 166.018 143.546 166.018C144.758 166.018 145.7 166.444 146.372 167.296ZM143.564 167.71C142.964 167.71 142.496 167.908 142.16 168.304C141.824 168.688 141.626 169.186 141.566 169.798H145.292C145.292 168.85 144.992 168.214 144.392 167.89C144.164 167.77 143.888 167.71 143.564 167.71ZM157.697 166.018C158.249 166.018 158.741 166.114 159.173 166.306C159.617 166.486 159.989 166.726 160.289 167.026C160.889 167.602 161.243 168.328 161.351 169.204L159.209 169.258C159.113 168.874 158.933 168.556 158.669 168.304C158.417 168.052 158.123 167.926 157.787 167.926C157.451 167.926 157.163 167.98 156.923 168.088C156.683 168.184 156.473 168.34 156.293 168.556C155.885 169.06 155.681 169.756 155.681 170.644C155.681 171.532 155.873 172.204 156.257 172.66C156.641 173.104 157.103 173.326 157.643 173.326C158.195 173.326 158.591 173.2 158.831 172.948C159.083 172.684 159.209 172.33 159.209 171.886H161.351C161.351 172.846 161.033 173.644 160.397 174.28C159.749 174.928 158.843 175.252 157.679 175.252C156.527 175.252 155.561 174.832 154.781 173.992C153.953 173.092 153.539 171.97 153.539 170.626C153.539 169.21 153.953 168.076 154.781 167.224C155.561 166.42 156.533 166.018 157.697 166.018ZM166.036 167.98C166.564 166.72 167.356 166.09 168.412 166.09C168.616 166.09 168.874 166.132 169.186 166.216L169.15 168.34C168.814 168.268 168.484 168.232 168.16 168.232C166.744 168.232 166.036 169.21 166.036 171.166V175H163.912V166.234H166.036V167.98ZM177.503 167.296C177.803 167.68 178.025 168.124 178.169 168.628C178.325 169.132 178.403 169.594 178.403 170.014C178.403 170.434 178.379 170.812 178.331 171.148H172.679C172.703 171.856 172.877 172.432 173.201 172.876C173.525 173.32 174.017 173.542 174.677 173.542C175.553 173.542 176.075 173.158 176.243 172.39H178.385C178.241 173.266 177.839 173.956 177.179 174.46C176.495 174.988 175.661 175.252 174.677 175.252C173.525 175.252 172.559 174.832 171.779 173.992C170.975 173.116 170.573 171.994 170.573 170.626C170.573 169.222 170.975 168.094 171.779 167.242C172.547 166.426 173.513 166.018 174.677 166.018C175.889 166.018 176.831 166.444 177.503 167.296ZM174.695 167.71C174.095 167.71 173.627 167.908 173.291 168.304C172.955 168.688 172.757 169.186 172.697 169.798H176.423C176.423 168.85 176.123 168.214 175.523 167.89C175.295 167.77 175.019 167.71 174.695 167.71ZM186.651 173.65C186.111 174.718 185.283 175.252 184.167 175.252C183.051 175.252 182.115 174.826 181.359 173.974C180.579 173.086 180.189 171.958 180.189 170.59C180.189 169.222 180.561 168.112 181.305 167.26C182.037 166.432 182.949 166.018 184.041 166.018C185.133 166.018 185.955 166.456 186.507 167.332V162.652H188.649V175H186.903L186.651 173.65ZM184.437 167.926C183.837 167.926 183.333 168.172 182.925 168.664C182.529 169.144 182.331 169.792 182.331 170.608C182.331 171.424 182.535 172.084 182.943 172.588C183.351 173.08 183.867 173.326 184.491 173.326C185.007 173.326 185.469 173.122 185.877 172.714C186.297 172.294 186.507 171.766 186.507 171.13V169.996C186.483 169.372 186.273 168.862 185.877 168.466C185.517 168.106 185.037 167.926 184.437 167.926ZM192.182 166.234H194.306V175H192.182V166.234ZM191.93 163.426C191.93 163.042 192.044 162.742 192.272 162.526C192.5 162.298 192.824 162.184 193.244 162.184C193.652 162.184 193.97 162.298 194.198 162.526C194.438 162.742 194.558 163.042 194.558 163.426C194.558 163.81 194.438 164.116 194.198 164.344C193.97 164.56 193.652 164.668 193.244 164.668C192.824 164.668 192.5 164.56 192.272 164.344C192.044 164.116 191.93 163.81 191.93 163.426ZM202.84 174.784C202.048 175.096 201.424 175.252 200.968 175.252C200.512 175.252 200.11 175.198 199.762 175.09C199.426 174.982 199.126 174.82 198.862 174.604C198.31 174.112 198.034 173.434 198.034 172.57V167.674H196.81V166.252H198.034V163.948H200.158V166.252H202.534V167.674H200.158V172.498C200.158 173.218 200.5 173.578 201.184 173.578C201.532 173.578 201.982 173.482 202.534 173.29L202.84 174.784ZM210.337 166.252L212.101 172.498L213.775 166.738H215.701L217.375 172.516L219.157 166.252H221.281L218.401 175H216.313L214.693 169.762L213.109 175H211.003L208.105 166.252H210.337ZM225.327 167.674C225.927 166.57 226.803 166.018 227.955 166.018C229.107 166.018 229.953 166.372 230.493 167.08C231.045 167.788 231.321 168.724 231.321 169.888V175H229.197V169.888C229.197 169.24 229.041 168.754 228.729 168.43C228.417 168.094 227.979 167.926 227.415 167.926C226.851 167.926 226.365 168.178 225.957 168.682C225.561 169.186 225.351 169.942 225.327 170.95V175H223.203V162.652H225.327V167.674ZM240.52 167.296C240.82 167.68 241.042 168.124 241.186 168.628C241.342 169.132 241.42 169.594 241.42 170.014C241.42 170.434 241.396 170.812 241.348 171.148H235.696C235.72 171.856 235.894 172.432 236.218 172.876C236.542 173.32 237.034 173.542 237.694 173.542C238.57 173.542 239.092 173.158 239.26 172.39H241.402C241.258 173.266 240.856 173.956 240.196 174.46C239.512 174.988 238.678 175.252 237.694 175.252C236.542 175.252 235.576 174.832 234.796 173.992C233.992 173.116 233.59 171.994 233.59 170.626C233.59 169.222 233.992 168.094 234.796 167.242C235.564 166.426 236.53 166.018 237.694 166.018C238.906 166.018 239.848 166.444 240.52 167.296ZM237.712 167.71C237.112 167.71 236.644 167.908 236.308 168.304C235.972 168.688 235.774 169.186 235.714 169.798H239.44C239.44 168.85 239.14 168.214 238.54 167.89C238.312 167.77 238.036 167.71 237.712 167.71ZM246.051 167.764C246.627 166.6 247.551 166.018 248.823 166.018C249.903 166.018 250.713 166.372 251.253 167.08C251.805 167.788 252.081 168.724 252.081 169.888V175H249.957V169.888C249.957 169.24 249.801 168.754 249.489 168.43C249.177 168.094 248.739 167.926 248.175 167.926C247.611 167.926 247.125 168.178 246.717 168.682C246.321 169.186 246.111 169.942 246.087 170.95V175H243.963V166.252H245.817L246.051 167.764ZM260.811 166.252L262.917 172.552L264.753 166.252H266.913L263.565 176.584C263.217 177.628 262.791 178.378 262.287 178.834C261.795 179.29 261.165 179.518 260.397 179.518C259.617 179.518 258.837 179.326 258.057 178.942V177.07C258.681 177.466 259.311 177.664 259.947 177.664C260.367 177.664 260.709 177.496 260.973 177.16C261.249 176.824 261.471 176.386 261.639 175.846L261.909 175L258.399 166.252H260.811ZM272.239 166.018C272.827 166.018 273.379 166.114 273.895 166.306C274.411 166.486 274.855 166.768 275.227 167.152C276.055 167.992 276.469 169.156 276.469 170.644C276.469 172.108 276.055 173.26 275.227 174.1C274.483 174.868 273.487 175.252 272.239 175.252C270.991 175.252 269.983 174.868 269.215 174.1C268.387 173.272 267.973 172.12 267.973 170.644C267.973 169.144 268.387 167.98 269.215 167.152C269.971 166.396 270.979 166.018 272.239 166.018ZM274.345 170.626C274.345 169.702 274.165 169.012 273.805 168.556C273.445 168.088 272.941 167.854 272.293 167.854C271.657 167.854 271.135 168.088 270.727 168.556C270.319 169.012 270.115 169.702 270.115 170.626C270.115 171.55 270.295 172.246 270.655 172.714C271.027 173.17 271.531 173.398 272.167 173.398C272.803 173.398 273.325 173.17 273.733 172.714C274.141 172.246 274.345 171.55 274.345 170.626ZM284.81 173.416C284.258 174.58 283.37 175.162 282.146 175.162C280.598 175.162 279.578 174.556 279.086 173.344C278.906 172.924 278.816 172.414 278.816 171.814V166.234H280.94V171.598C280.94 172.174 281.078 172.606 281.354 172.894C281.63 173.17 281.966 173.308 282.362 173.308C282.77 173.308 283.112 173.254 283.388 173.146C283.664 173.026 283.904 172.852 284.108 172.624C284.552 172.108 284.786 171.418 284.81 170.554V166.234H286.934V175H284.81V173.416ZM8.554 196.888C9.25 196.888 10.054 197.002 10.966 197.23V196.366C10.966 195.754 10.84 195.304 10.588 195.016C10.348 194.716 9.946 194.566 9.382 194.566C8.83 194.566 8.404 194.68 8.104 194.908C7.804 195.124 7.654 195.436 7.654 195.844H5.332C5.332 194.848 5.68 194.128 6.376 193.684C7.084 193.24 8.068 193.018 9.328 193.018C11.128 193.018 12.292 193.648 12.82 194.908C13 195.34 13.09 195.85 13.09 196.438V202H11.236L11.074 200.83C10.51 201.778 9.646 202.252 8.482 202.252C7.354 202.252 6.478 201.976 5.854 201.424C5.278 200.896 4.99 200.23 4.99 199.426C4.99 198.61 5.308 197.986 5.944 197.554C6.58 197.11 7.45 196.888 8.554 196.888ZM10.966 198.58C10.258 198.388 9.598 198.292 8.986 198.292C7.834 198.292 7.258 198.676 7.258 199.444C7.258 199.768 7.39 200.05 7.654 200.29C7.918 200.518 8.338 200.632 8.914 200.632C9.502 200.632 9.982 200.44 10.354 200.056C10.738 199.66 10.942 199.168 10.966 198.58ZM19.5157 193.018C20.0677 193.018 20.5597 193.114 20.9917 193.306C21.4357 193.486 21.8077 193.726 22.1077 194.026C22.7077 194.602 23.0617 195.328 23.1697 196.204L21.0277 196.258C20.9317 195.874 20.7517 195.556 20.4877 195.304C20.2357 195.052 19.9417 194.926 19.6057 194.926C19.2697 194.926 18.9817 194.98 18.7417 195.088C18.5017 195.184 18.2917 195.34 18.1117 195.556C17.7037 196.06 17.4997 196.756 17.4997 197.644C17.4997 198.532 17.6917 199.204 18.0757 199.66C18.4597 200.104 18.9217 200.326 19.4617 200.326C20.0137 200.326 20.4097 200.2 20.6497 199.948C20.9017 199.684 21.0277 199.33 21.0277 198.886H23.1697C23.1697 199.846 22.8517 200.644 22.2157 201.28C21.5677 201.928 20.6617 202.252 19.4977 202.252C18.3457 202.252 17.3797 201.832 16.5997 200.992C15.7717 200.092 15.3577 198.97 15.3577 197.626C15.3577 196.21 15.7717 195.076 16.5997 194.224C17.3797 193.42 18.3517 193.018 19.5157 193.018ZM30.6626 201.784C29.8706 202.096 29.2466 202.252 28.7906 202.252C28.3346 202.252 27.9326 202.198 27.5846 202.09C27.2486 201.982 26.9486 201.82 26.6846 201.604C26.1326 201.112 25.8566 200.434 25.8566 199.57V194.674H24.6326V193.252H25.8566V190.948H27.9806V193.252H30.3566V194.674H27.9806V199.498C27.9806 200.218 28.3226 200.578 29.0066 200.578C29.3546 200.578 29.8046 200.482 30.3566 200.29L30.6626 201.784ZM38.6462 200.416C38.0942 201.58 37.2062 202.162 35.9822 202.162C34.4342 202.162 33.4142 201.556 32.9222 200.344C32.7422 199.924 32.6522 199.414 32.6522 198.814V193.234H34.7762V198.598C34.7762 199.174 34.9142 199.606 35.1902 199.894C35.4662 200.17 35.8022 200.308 36.1982 200.308C36.6062 200.308 36.9482 200.254 37.2242 200.146C37.5002 200.026 37.7402 199.852 37.9442 199.624C38.3882 199.108 38.6222 198.418 38.6462 197.554V193.234H40.7702V202H38.6462V200.416ZM46.9974 196.888C47.6934 196.888 48.4974 197.002 49.4094 197.23V196.366C49.4094 195.754 49.2834 195.304 49.0314 195.016C48.7914 194.716 48.3894 194.566 47.8254 194.566C47.2734 194.566 46.8474 194.68 46.5474 194.908C46.2474 195.124 46.0974 195.436 46.0974 195.844H43.7754C43.7754 194.848 44.1234 194.128 44.8194 193.684C45.5274 193.24 46.5114 193.018 47.7714 193.018C49.5714 193.018 50.7354 193.648 51.2634 194.908C51.4434 195.34 51.5334 195.85 51.5334 196.438V202H49.6794L49.5174 200.83C48.9534 201.778 48.0894 202.252 46.9254 202.252C45.7974 202.252 44.9214 201.976 44.2974 201.424C43.7214 200.896 43.4334 200.23 43.4334 199.426C43.4334 198.61 43.7514 197.986 44.3874 197.554C45.0234 197.11 45.8934 196.888 46.9974 196.888ZM49.4094 198.58C48.7014 198.388 48.0414 198.292 47.4294 198.292C46.2774 198.292 45.7014 198.676 45.7014 199.444C45.7014 199.768 45.8334 200.05 46.0974 200.29C46.3614 200.518 46.7814 200.632 47.3574 200.632C47.9454 200.632 48.4254 200.44 48.7974 200.056C49.1814 199.66 49.3854 199.168 49.4094 198.58ZM54.6291 189.652H56.7531V202H54.6291V189.652ZM60.0959 189.652H62.2199V202H60.0959V189.652ZM66.6427 193.252L68.7487 199.552L70.5847 193.252H72.7447L69.3967 203.584C69.0487 204.628 68.6227 205.378 68.1187 205.834C67.6267 206.29 66.9967 206.518 66.2287 206.518C65.4487 206.518 64.6687 206.326 63.8887 205.942V204.07C64.5127 204.466 65.1427 204.664 65.7787 204.664C66.1987 204.664 66.5407 204.496 66.8047 204.16C67.0807 203.824 67.3027 203.386 67.4707 202.846L67.7407 202L64.2307 193.252H66.6427ZM81.3097 194.98C81.8377 193.72 82.6297 193.09 83.6857 193.09C83.8897 193.09 84.1477 193.132 84.4597 193.216L84.4237 195.34C84.0877 195.268 83.7577 195.232 83.4337 195.232C82.0177 195.232 81.3097 196.21 81.3097 198.166V202H79.1857V193.234H81.3097V194.98ZM92.776 194.296C93.076 194.68 93.298 195.124 93.442 195.628C93.598 196.132 93.676 196.594 93.676 197.014C93.676 197.434 93.652 197.812 93.604 198.148H87.952C87.976 198.856 88.15 199.432 88.474 199.876C88.798 200.32 89.29 200.542 89.95 200.542C90.826 200.542 91.348 200.158 91.516 199.39H93.658C93.514 200.266 93.112 200.956 92.452 201.46C91.768 201.988 90.934 202.252 89.95 202.252C88.798 202.252 87.832 201.832 87.052 200.992C86.248 200.116 85.846 198.994 85.846 197.626C85.846 196.222 86.248 195.094 87.052 194.242C87.82 193.426 88.786 193.018 89.95 193.018C91.162 193.018 92.104 193.444 92.776 194.296ZM89.968 194.71C89.368 194.71 88.9 194.908 88.564 195.304C88.228 195.688 88.03 196.186 87.97 196.798H91.696C91.696 195.85 91.396 195.214 90.796 194.89C90.568 194.77 90.292 194.71 89.968 194.71ZM99.0989 196.888C99.7949 196.888 100.599 197.002 101.511 197.23V196.366C101.511 195.754 101.385 195.304 101.133 195.016C100.893 194.716 100.491 194.566 99.9269 194.566C99.3749 194.566 98.9489 194.68 98.6489 194.908C98.3489 195.124 98.1989 195.436 98.1989 195.844H95.8769C95.8769 194.848 96.2249 194.128 96.9209 193.684C97.6289 193.24 98.6129 193.018 99.8729 193.018C101.673 193.018 102.837 193.648 103.365 194.908C103.545 195.34 103.635 195.85 103.635 196.438V202H101.781L101.619 200.83C101.055 201.778 100.191 202.252 99.0269 202.252C97.8989 202.252 97.0229 201.976 96.3989 201.424C95.8229 200.896 95.5349 200.23 95.5349 199.426C95.5349 198.61 95.8529 197.986 96.4889 197.554C97.1249 197.11 97.9949 196.888 99.0989 196.888ZM101.511 198.58C100.803 198.388 100.143 198.292 99.5309 198.292C98.3789 198.292 97.8029 198.676 97.8029 199.444C97.8029 199.768 97.9349 200.05 98.1989 200.29C98.4629 200.518 98.8829 200.632 99.4589 200.632C100.047 200.632 100.527 200.44 100.899 200.056C101.283 199.66 101.487 199.168 101.511 198.58ZM110.061 193.018C110.613 193.018 111.105 193.114 111.537 193.306C111.981 193.486 112.353 193.726 112.653 194.026C113.253 194.602 113.607 195.328 113.715 196.204L111.573 196.258C111.477 195.874 111.297 195.556 111.033 195.304C110.781 195.052 110.487 194.926 110.151 194.926C109.815 194.926 109.527 194.98 109.287 195.088C109.047 195.184 108.837 195.34 108.657 195.556C108.249 196.06 108.045 196.756 108.045 197.644C108.045 198.532 108.237 199.204 108.621 199.66C109.005 200.104 109.467 200.326 110.007 200.326C110.559 200.326 110.955 200.2 111.195 199.948C111.447 199.684 111.573 199.33 111.573 198.886H113.715C113.715 199.846 113.397 200.644 112.761 201.28C112.113 201.928 111.207 202.252 110.043 202.252C108.891 202.252 107.925 201.832 107.145 200.992C106.317 200.092 105.903 198.97 105.903 197.626C105.903 196.21 106.317 195.076 107.145 194.224C107.925 193.42 108.897 193.018 110.061 193.018ZM118.4 194.674C119 193.57 119.876 193.018 121.028 193.018C122.18 193.018 123.026 193.372 123.566 194.08C124.118 194.788 124.394 195.724 124.394 196.888V202H122.27V196.888C122.27 196.24 122.114 195.754 121.802 195.43C121.49 195.094 121.052 194.926 120.488 194.926C119.924 194.926 119.438 195.178 119.03 195.682C118.634 196.186 118.424 196.942 118.4 197.95V202H116.276V189.652H118.4V194.674ZM135.481 193.018C136.069 193.018 136.621 193.114 137.137 193.306C137.653 193.486 138.097 193.768 138.469 194.152C139.297 194.992 139.711 196.156 139.711 197.644C139.711 199.108 139.297 200.26 138.469 201.1C137.725 201.868 136.729 202.252 135.481 202.252C134.233 202.252 133.225 201.868 132.457 201.1C131.629 200.272 131.215 199.12 131.215 197.644C131.215 196.144 131.629 194.98 132.457 194.152C133.213 193.396 134.221 193.018 135.481 193.018ZM137.587 197.626C137.587 196.702 137.407 196.012 137.047 195.556C136.687 195.088 136.183 194.854 135.535 194.854C134.899 194.854 134.377 195.088 133.969 195.556C133.561 196.012 133.357 196.702 133.357 197.626C133.357 198.55 133.537 199.246 133.897 199.714C134.269 200.17 134.773 200.398 135.409 200.398C136.045 200.398 136.567 200.17 136.975 199.714C137.383 199.246 137.587 198.55 137.587 197.626ZM148.052 200.416C147.5 201.58 146.612 202.162 145.388 202.162C143.84 202.162 142.82 201.556 142.328 200.344C142.148 199.924 142.058 199.414 142.058 198.814V193.234H144.182V198.598C144.182 199.174 144.32 199.606 144.596 199.894C144.872 200.17 145.208 200.308 145.604 200.308C146.012 200.308 146.354 200.254 146.63 200.146C146.906 200.026 147.146 199.852 147.35 199.624C147.794 199.108 148.028 198.418 148.052 197.554V193.234H150.176V202H148.052V200.416ZM158.456 201.784C157.664 202.096 157.04 202.252 156.584 202.252C156.128 202.252 155.726 202.198 155.378 202.09C155.042 201.982 154.742 201.82 154.478 201.604C153.926 201.112 153.65 200.434 153.65 199.57V194.674H152.426V193.252H153.65V190.948H155.774V193.252H158.15V194.674H155.774V199.498C155.774 200.218 156.116 200.578 156.8 200.578C157.148 200.578 157.598 200.482 158.15 200.29L158.456 201.784ZM170.11 201.784C169.318 202.096 168.694 202.252 168.238 202.252C167.782 202.252 167.38 202.198 167.032 202.09C166.696 201.982 166.396 201.82 166.132 201.604C165.58 201.112 165.304 200.434 165.304 199.57V194.674H164.08V193.252H165.304V190.948H167.428V193.252H169.804V194.674H167.428V199.498C167.428 200.218 167.77 200.578 168.454 200.578C168.802 200.578 169.252 200.482 169.804 200.29L170.11 201.784ZM175.717 193.018C176.305 193.018 176.857 193.114 177.373 193.306C177.889 193.486 178.333 193.768 178.705 194.152C179.533 194.992 179.947 196.156 179.947 197.644C179.947 199.108 179.533 200.26 178.705 201.1C177.961 201.868 176.965 202.252 175.717 202.252C174.469 202.252 173.461 201.868 172.693 201.1C171.865 200.272 171.451 199.12 171.451 197.644C171.451 196.144 171.865 194.98 172.693 194.152C173.449 193.396 174.457 193.018 175.717 193.018ZM177.823 197.626C177.823 196.702 177.643 196.012 177.283 195.556C176.923 195.088 176.419 194.854 175.771 194.854C175.135 194.854 174.613 195.088 174.205 195.556C173.797 196.012 173.593 196.702 173.593 197.626C173.593 198.55 173.773 199.246 174.133 199.714C174.505 200.17 175.009 200.398 175.645 200.398C176.281 200.398 176.803 200.17 177.211 199.714C177.619 199.246 177.823 198.55 177.823 197.626ZM189.908 196.888C190.604 196.888 191.408 197.002 192.32 197.23V196.366C192.32 195.754 192.194 195.304 191.942 195.016C191.702 194.716 191.3 194.566 190.736 194.566C190.184 194.566 189.758 194.68 189.458 194.908C189.158 195.124 189.008 195.436 189.008 195.844H186.686C186.686 194.848 187.034 194.128 187.73 193.684C188.438 193.24 189.422 193.018 190.682 193.018C192.482 193.018 193.646 193.648 194.174 194.908C194.354 195.34 194.444 195.85 194.444 196.438V202H192.59L192.428 200.83C191.864 201.778 191 202.252 189.836 202.252C188.708 202.252 187.832 201.976 187.208 201.424C186.632 200.896 186.344 200.23 186.344 199.426C186.344 198.61 186.662 197.986 187.298 197.554C187.934 197.11 188.804 196.888 189.908 196.888ZM192.32 198.58C191.612 198.388 190.952 198.292 190.34 198.292C189.188 198.292 188.612 198.676 188.612 199.444C188.612 199.768 188.744 200.05 189.008 200.29C189.272 200.518 189.692 200.632 190.268 200.632C190.856 200.632 191.336 200.44 191.708 200.056C192.092 199.66 192.296 199.168 192.32 198.58ZM204.216 194.674C204.816 193.57 205.692 193.018 206.844 193.018C207.996 193.018 208.842 193.372 209.382 194.08C209.934 194.788 210.21 195.724 210.21 196.888V202H208.086V196.888C208.086 196.24 207.93 195.754 207.618 195.43C207.306 195.094 206.868 194.926 206.304 194.926C205.74 194.926 205.254 195.178 204.846 195.682C204.45 196.186 204.24 196.942 204.216 197.95V202H202.092V189.652H204.216V194.674ZM216.745 193.018C217.333 193.018 217.885 193.114 218.401 193.306C218.917 193.486 219.361 193.768 219.733 194.152C220.561 194.992 220.975 196.156 220.975 197.644C220.975 199.108 220.561 200.26 219.733 201.1C218.989 201.868 217.993 202.252 216.745 202.252C215.497 202.252 214.489 201.868 213.721 201.1C212.893 200.272 212.479 199.12 212.479 197.644C212.479 196.144 212.893 194.98 213.721 194.152C214.477 193.396 215.485 193.018 216.745 193.018ZM218.851 197.626C218.851 196.702 218.671 196.012 218.311 195.556C217.951 195.088 217.447 194.854 216.799 194.854C216.163 194.854 215.641 195.088 215.233 195.556C214.825 196.012 214.621 196.702 214.621 197.626C214.621 198.55 214.801 199.246 215.161 199.714C215.533 200.17 216.037 200.398 216.673 200.398C217.309 200.398 217.831 200.17 218.239 199.714C218.647 199.246 218.851 198.55 218.851 197.626ZM231.278 194.908C231.842 193.648 232.832 193.018 234.248 193.018C235.292 193.018 236.102 193.372 236.678 194.08C237.23 194.752 237.506 195.688 237.506 196.888V202H235.364V196.888C235.364 196.24 235.208 195.754 234.896 195.43C234.584 195.094 234.146 194.926 233.582 194.926C233.018 194.926 232.556 195.172 232.196 195.664C231.836 196.156 231.644 196.9 231.62 197.896V202H229.496V196.888C229.496 196.24 229.34 195.754 229.028 195.43C228.716 195.094 228.278 194.926 227.714 194.926C227.15 194.926 226.664 195.178 226.256 195.682C225.86 196.186 225.65 196.942 225.626 197.95V202H223.502V193.252H225.356L225.59 194.764C226.166 193.6 227.09 193.018 228.362 193.018C229.094 193.018 229.7 193.186 230.18 193.522C230.672 193.858 231.038 194.32 231.278 194.908ZM246.69 194.296C246.99 194.68 247.212 195.124 247.356 195.628C247.512 196.132 247.59 196.594 247.59 197.014C247.59 197.434 247.566 197.812 247.518 198.148H241.866C241.89 198.856 242.064 199.432 242.388 199.876C242.712 200.32 243.204 200.542 243.864 200.542C244.74 200.542 245.262 200.158 245.43 199.39H247.572C247.428 200.266 247.026 200.956 246.366 201.46C245.682 201.988 244.848 202.252 243.864 202.252C242.712 202.252 241.746 201.832 240.966 200.992C240.162 200.116 239.76 198.994 239.76 197.626C239.76 196.222 240.162 195.094 240.966 194.242C241.734 193.426 242.7 193.018 243.864 193.018C245.076 193.018 246.018 193.444 246.69 194.296ZM243.882 194.71C243.282 194.71 242.814 194.908 242.478 195.304C242.142 195.688 241.944 196.186 241.884 196.798H245.61C245.61 195.85 245.31 195.214 244.71 194.89C244.482 194.77 244.206 194.71 243.882 194.71ZM257.477 194.278C258.221 195.118 258.593 196.222 258.593 197.59C258.593 198.958 258.203 200.086 257.423 200.974C256.667 201.826 255.725 202.252 254.597 202.252C254.057 202.252 253.559 202.108 253.103 201.82C252.659 201.532 252.305 201.088 252.041 200.488L251.519 202H250.133V189.652H252.257V194.35C252.809 193.462 253.631 193.018 254.723 193.018C255.827 193.018 256.745 193.438 257.477 194.278ZM252.257 197.086V198.238C252.281 198.85 252.503 199.354 252.923 199.75C253.319 200.134 253.799 200.326 254.363 200.326C254.939 200.326 255.431 200.08 255.839 199.588C256.247 199.084 256.451 198.424 256.451 197.608C256.451 196.792 256.247 196.144 255.839 195.664C255.443 195.172 254.945 194.926 254.345 194.926C253.745 194.926 253.247 195.124 252.851 195.52C252.455 195.916 252.257 196.438 252.257 197.086ZM267.004 200.416C266.452 201.58 265.564 202.162 264.34 202.162C262.792 202.162 261.772 201.556 261.28 200.344C261.1 199.924 261.01 199.414 261.01 198.814V193.234H263.134V198.598C263.134 199.174 263.272 199.606 263.548 199.894C263.824 200.17 264.16 200.308 264.556 200.308C264.964 200.308 265.306 200.254 265.582 200.146C265.858 200.026 266.098 199.852 266.302 199.624C266.746 199.108 266.98 198.418 267.004 197.554V193.234H269.128V202H267.004V200.416ZM273.555 193.252L275.661 199.552L277.497 193.252H279.657L276.309 203.584C275.961 204.628 275.535 205.378 275.031 205.834C274.539 206.29 273.909 206.518 273.141 206.518C272.361 206.518 271.581 206.326 270.801 205.942V204.07C271.425 204.466 272.055 204.664 272.691 204.664C273.111 204.664 273.453 204.496 273.717 204.16C273.993 203.824 274.215 203.386 274.383 202.846L274.653 202L271.143 193.252H273.555ZM287.647 194.296C287.947 194.68 288.169 195.124 288.313 195.628C288.469 196.132 288.547 196.594 288.547 197.014C288.547 197.434 288.523 197.812 288.475 198.148H282.823C282.847 198.856 283.021 199.432 283.345 199.876C283.669 200.32 284.161 200.542 284.821 200.542C285.697 200.542 286.219 200.158 286.387 199.39H288.529C288.385 200.266 287.983 200.956 287.323 201.46C286.639 201.988 285.805 202.252 284.821 202.252C283.669 202.252 282.703 201.832 281.923 200.992C281.119 200.116 280.717 198.994 280.717 197.626C280.717 196.222 281.119 195.094 281.923 194.242C282.691 193.426 283.657 193.018 284.821 193.018C286.033 193.018 286.975 193.444 287.647 194.296ZM284.839 194.71C284.239 194.71 283.771 194.908 283.435 195.304C283.099 195.688 282.901 196.186 282.841 196.798H286.567C286.567 195.85 286.267 195.214 285.667 194.89C285.439 194.77 285.163 194.71 284.839 194.71ZM293.214 194.98C293.742 193.72 294.534 193.09 295.59 193.09C295.794 193.09 296.052 193.132 296.364 193.216L296.328 195.34C295.992 195.268 295.662 195.232 295.338 195.232C293.922 195.232 293.214 196.21 293.214 198.166V202H291.09V193.234H293.214V194.98ZM306.569 193.018C307.157 193.018 307.709 193.114 308.225 193.306C308.741 193.486 309.185 193.768 309.557 194.152C310.385 194.992 310.799 196.156 310.799 197.644C310.799 199.108 310.385 200.26 309.557 201.1C308.813 201.868 307.817 202.252 306.569 202.252C305.321 202.252 304.313 201.868 303.545 201.1C302.717 200.272 302.303 199.12 302.303 197.644C302.303 196.144 302.717 194.98 303.545 194.152C304.301 193.396 305.309 193.018 306.569 193.018ZM308.675 197.626C308.675 196.702 308.495 196.012 308.135 195.556C307.775 195.088 307.271 194.854 306.623 194.854C305.987 194.854 305.465 195.088 305.057 195.556C304.649 196.012 304.445 196.702 304.445 197.626C304.445 198.55 304.625 199.246 304.985 199.714C305.357 200.17 305.861 200.398 306.497 200.398C307.133 200.398 307.655 200.17 308.063 199.714C308.471 199.246 308.675 198.55 308.675 197.626ZM315.414 194.764C315.99 193.6 316.914 193.018 318.186 193.018C319.266 193.018 320.076 193.372 320.616 194.08C321.168 194.788 321.444 195.724 321.444 196.888V202H319.32V196.888C319.32 196.24 319.164 195.754 318.852 195.43C318.54 195.094 318.102 194.926 317.538 194.926C316.974 194.926 316.488 195.178 316.08 195.682C315.684 196.186 315.474 196.942 315.45 197.95V202H313.326V193.252H315.18L315.414 194.764ZM332.532 193.018C333.12 193.018 333.672 193.114 334.188 193.306C334.704 193.486 335.148 193.768 335.52 194.152C336.348 194.992 336.762 196.156 336.762 197.644C336.762 199.108 336.348 200.26 335.52 201.1C334.776 201.868 333.78 202.252 332.532 202.252C331.284 202.252 330.276 201.868 329.508 201.1C328.68 200.272 328.266 199.12 328.266 197.644C328.266 196.144 328.68 194.98 329.508 194.152C330.264 193.396 331.272 193.018 332.532 193.018ZM334.638 197.626C334.638 196.702 334.458 196.012 334.098 195.556C333.738 195.088 333.234 194.854 332.586 194.854C331.95 194.854 331.428 195.088 331.02 195.556C330.612 196.012 330.408 196.702 330.408 197.626C330.408 198.55 330.588 199.246 330.948 199.714C331.32 200.17 331.824 200.398 332.46 200.398C333.096 200.398 333.618 200.17 334.026 199.714C334.434 199.246 334.638 198.55 334.638 197.626ZM345.103 200.416C344.551 201.58 343.663 202.162 342.439 202.162C340.891 202.162 339.871 201.556 339.379 200.344C339.199 199.924 339.109 199.414 339.109 198.814V193.234H341.233V198.598C341.233 199.174 341.371 199.606 341.647 199.894C341.923 200.17 342.259 200.308 342.655 200.308C343.063 200.308 343.405 200.254 343.681 200.146C343.957 200.026 344.197 199.852 344.401 199.624C344.845 199.108 345.079 198.418 345.103 197.554V193.234H347.227V202H345.103V200.416ZM352.698 194.98C353.226 193.72 354.018 193.09 355.074 193.09C355.278 193.09 355.536 193.132 355.848 193.216L355.812 195.34C355.476 195.268 355.146 195.232 354.822 195.232C353.406 195.232 352.698 196.21 352.698 198.166V202H350.574V193.234H352.698V194.98ZM7.618 221.44C8.17 220.492 9.01 220.018 10.138 220.018C11.218 220.018 12.142 220.426 12.91 221.242C13.726 222.106 14.134 223.234 14.134 224.626C14.134 226.03 13.72 227.164 12.892 228.028C12.124 228.844 11.206 229.252 10.138 229.252C9.07 229.252 8.29 228.934 7.798 228.298V233.266H5.674V220.252H7.42L7.618 221.44ZM9.76 227.326C10.012 227.326 10.27 227.272 10.534 227.164C10.81 227.056 11.056 226.888 11.272 226.66C11.752 226.156 11.992 225.484 11.992 224.644C11.992 223.792 11.782 223.126 11.362 222.646C10.954 222.166 10.45 221.926 9.85 221.926C9.262 221.926 8.776 222.1 8.392 222.448C8.02 222.784 7.822 223.27 7.798 223.906V225.472C7.798 226.036 7.996 226.492 8.392 226.84C8.764 227.164 9.22 227.326 9.76 227.326ZM16.6603 216.652H18.7843V229H16.6603V216.652ZM25.0071 223.888C25.7031 223.888 26.5071 224.002 27.4191 224.23V223.366C27.4191 222.754 27.2931 222.304 27.0411 222.016C26.8011 221.716 26.3991 221.566 25.8351 221.566C25.2831 221.566 24.8571 221.68 24.5571 221.908C24.2571 222.124 24.1071 222.436 24.1071 222.844H21.7851C21.7851 221.848 22.1331 221.128 22.8291 220.684C23.5371 220.24 24.5211 220.018 25.7811 220.018C27.5811 220.018 28.7451 220.648 29.2731 221.908C29.4531 222.34 29.5431 222.85 29.5431 223.438V229H27.6891L27.5271 227.83C26.9631 228.778 26.0991 229.252 24.9351 229.252C23.8071 229.252 22.9311 228.976 22.3071 228.424C21.7311 227.896 21.4431 227.23 21.4431 226.426C21.4431 225.61 21.7611 224.986 22.3971 224.554C23.0331 224.11 23.9031 223.888 25.0071 223.888ZM27.4191 225.58C26.7111 225.388 26.0511 225.292 25.4391 225.292C24.2871 225.292 23.7111 225.676 23.7111 226.444C23.7111 226.768 23.8431 227.05 24.1071 227.29C24.3711 227.518 24.7911 227.632 25.3671 227.632C25.9551 227.632 26.4351 227.44 26.8071 227.056C27.1911 226.66 27.3951 226.168 27.4191 225.58ZM37.5708 228.784C36.7788 229.096 36.1548 229.252 35.6988 229.252C35.2428 229.252 34.8408 229.198 34.4928 229.09C34.1568 228.982 33.8568 228.82 33.5928 228.604C33.0408 228.112 32.7648 227.434 32.7648 226.57V221.674H31.5408V220.252H32.7648V217.948H34.8888V220.252H37.2648V221.674H34.8888V226.498C34.8888 227.218 35.2308 227.578 35.9148 227.578C36.2628 227.578 36.7128 227.482 37.2648 227.29L37.5708 228.784ZM38.7864 220.252H40.0824V219.226C40.0824 218.326 40.3464 217.636 40.8744 217.156C41.3544 216.724 41.9784 216.508 42.7464 216.508C43.2384 216.508 43.8444 216.58 44.5644 216.724L44.1504 218.362C43.8144 218.242 43.5084 218.182 43.2324 218.182C42.9684 218.182 42.7344 218.26 42.5304 218.416C42.3264 218.56 42.2244 218.836 42.2244 219.244V220.252H43.8264V221.674H42.2244V229H40.0824V221.674H38.7864V220.252ZM49.7702 220.018C50.3582 220.018 50.9102 220.114 51.4262 220.306C51.9422 220.486 52.3862 220.768 52.7582 221.152C53.5862 221.992 54.0002 223.156 54.0002 224.644C54.0002 226.108 53.5862 227.26 52.7582 228.1C52.0142 228.868 51.0182 229.252 49.7702 229.252C48.5222 229.252 47.5142 228.868 46.7462 228.1C45.9182 227.272 45.5042 226.12 45.5042 224.644C45.5042 223.144 45.9182 221.98 46.7462 221.152C47.5022 220.396 48.5102 220.018 49.7702 220.018ZM51.8762 224.626C51.8762 223.702 51.6962 223.012 51.3362 222.556C50.9762 222.088 50.4722 221.854 49.8242 221.854C49.1882 221.854 48.6662 222.088 48.2582 222.556C47.8502 223.012 47.6462 223.702 47.6462 224.626C47.6462 225.55 47.8262 226.246 48.1862 226.714C48.5582 227.17 49.0622 227.398 49.6982 227.398C50.3342 227.398 50.8562 227.17 51.2642 226.714C51.6722 226.246 51.8762 225.55 51.8762 224.626ZM58.6515 221.98C59.1795 220.72 59.9715 220.09 61.0275 220.09C61.2315 220.09 61.4895 220.132 61.8015 220.216L61.7655 222.34C61.4295 222.268 61.0995 222.232 60.7755 222.232C59.3595 222.232 58.6515 223.21 58.6515 225.166V229H56.5275V220.234H58.6515V221.98ZM71.7918 221.908C72.3558 220.648 73.3458 220.018 74.7618 220.018C75.8058 220.018 76.6158 220.372 77.1918 221.08C77.7438 221.752 78.0198 222.688 78.0198 223.888V229H75.8778V223.888C75.8778 223.24 75.7218 222.754 75.4098 222.43C75.0978 222.094 74.6598 221.926 74.0958 221.926C73.5318 221.926 73.0698 222.172 72.7098 222.664C72.3498 223.156 72.1578 223.9 72.1338 224.896V229H70.0098V223.888C70.0098 223.24 69.8538 222.754 69.5418 222.43C69.2298 222.094 68.7918 221.926 68.2278 221.926C67.6638 221.926 67.1778 222.178 66.7698 222.682C66.3738 223.186 66.1638 223.942 66.1398 224.95V229H64.0158V220.252H65.8698L66.1038 221.764C66.6798 220.6 67.6038 220.018 68.8758 220.018C69.6078 220.018 70.2138 220.186 70.6938 220.522C71.1858 220.858 71.5518 221.32 71.7918 221.908ZM81.3357 229.162C80.9037 229.162 80.5497 229.03 80.2737 228.766C79.9977 228.502 79.8597 228.166 79.8597 227.758C79.8597 227.35 79.9977 227.008 80.2737 226.732C80.5497 226.456 80.9037 226.318 81.3357 226.318C81.7677 226.318 82.1277 226.456 82.4157 226.732C82.7037 227.008 82.8477 227.35 82.8477 227.758C82.8477 228.166 82.7037 228.502 82.4157 228.766C82.1277 229.03 81.7677 229.162 81.3357 229.162Z" fill="#616161"/>
</svg>
