<svg width="44" height="44" viewBox="0 0 44 44" fill="none" xmlns="http://www.w3.org/2000/svg">
<g clip-path="url(#clip0)">
<path d="M42.3027 16.9317L39.6652 14.8074C38.9569 14.2371 37.9169 14.3492 37.3462 15.0572L33.4196 19.9331C32.8493 20.6411 32.9611 21.6814 33.6694 22.2518L36.0098 24.1367C36.3532 24.4133 36.4576 24.8994 36.2582 25.2931C35.8937 26.0122 34.0188 28.6014 32.4733 30.5206C30.8986 32.4756 28.8082 34.8144 28.1721 35.3331C27.83 35.6117 27.3328 35.6134 26.9894 35.3367L24.649 33.4518C24.3059 33.1752 23.8752 33.049 23.4378 33.0967C23 33.1437 22.6066 33.3588 22.3303 33.7016L18.4034 38.5775C17.833 39.2858 17.9452 40.3258 18.6535 40.8962L21.291 43.0208C22.0937 43.667 23.0833 44.0003 24.0793 44C24.7473 44 25.4184 43.8503 26.0377 43.5448C28.3214 42.4182 32.8187 38.6507 36.6544 33.8882C40.49 29.1257 43.2125 23.9292 43.8264 21.4575C44.2414 19.7878 43.6435 18.0113 42.3027 16.9317Z" fill="#5271FF"/>
<path d="M42.6377 17.2314C41.7293 20.2926 38.6044 26.1266 34.2803 31.4957C29.7478 37.1236 24.4337 41.5753 21.7348 42.9066C21.6109 42.9677 21.4847 43.0214 21.3578 43.0721C22.148 43.6841 23.1104 44.0003 24.0793 44C24.7473 44 25.4183 43.8503 26.0377 43.5448C28.3214 42.4182 32.8187 38.6507 36.6543 33.8882C40.49 29.1257 43.2124 23.9292 43.8264 21.4575C44.2051 19.9341 43.7401 18.3224 42.6377 17.2314Z" fill="#3154F5"/>
<path d="M27.305 23.7171C30.6173 21.1312 32.5055 17.5007 32.5055 13.6822C32.5055 10.005 30.7999 6.55508 27.7021 3.9679C24.6386 1.40924 20.5723 0 16.2529 0C11.9332 0 7.86697 1.40924 4.80344 3.9679C1.70599 6.55508 0 10.005 0 13.6822C0 17.3594 1.70599 20.8093 4.80344 23.3965C7.86697 25.9555 11.9332 27.3647 16.2529 27.3647C17.3439 27.3647 18.4145 27.2764 19.4598 27.1012C20.2702 27.688 22.9916 29.4484 27.2778 30.1151C27.3604 30.1278 27.4426 30.1342 27.5238 30.1342C28.0123 30.1342 28.4722 29.9069 28.7881 29.5001C29.1852 28.9878 29.2721 28.2969 29.0143 27.6967L27.305 23.7171Z" fill="#CDA1FE"/>
<path d="M27.305 23.7171C30.6173 21.1312 32.5055 17.5007 32.5055 13.6822C32.5055 10.005 30.7999 6.55508 27.7021 3.9679C24.6386 1.40924 20.5723 0 16.2529 0C15.7531 0 15.2569 0.0198059 14.7651 0.0570678C18.5239 0.342407 22.0171 1.70532 24.7265 3.9679C27.8239 6.55508 29.5299 10.005 29.5299 13.6822C29.5299 17.5007 27.6413 21.1312 24.3294 23.7171L26.0387 27.6967C26.2965 28.2969 26.2096 28.9878 25.8125 29.5001C25.7332 29.6018 25.6453 29.6924 25.55 29.771C26.0941 29.9032 26.6698 30.0204 27.2781 30.1151C27.3604 30.1278 27.4426 30.1342 27.5242 30.1342C28.0123 30.1342 28.4725 29.9069 28.7881 29.5001C29.1855 28.9878 29.2721 28.2969 29.0143 27.6967L27.305 23.7171Z" fill="#AD68FA"/>
<path d="M18.5484 16.3328C18.2053 16.2226 17.8387 16.408 17.7286 16.7514C17.7273 16.7547 17.6064 17.0958 17.2657 17.4241C16.8176 17.8558 16.2006 18.0747 15.4318 18.0747C13.6157 18.0747 13.1538 16.8054 13.1374 16.7584C13.0272 16.415 12.6593 16.2263 12.3163 16.3365C11.9732 16.4466 11.7838 16.8141 11.8939 17.1572C11.9232 17.2479 12.6389 19.3802 15.4318 19.3802C18.2245 19.3802 18.9405 17.2482 18.9694 17.1572C19.0795 16.8141 18.8915 16.4429 18.5484 16.3328Z" fill="#464649"/>
<path d="M8.89755 12.2507C8.09189 12.2507 7.43628 12.906 7.43628 13.712C7.43628 14.5177 8.09189 15.1729 8.89755 15.1729C9.70322 15.1729 10.3585 14.5177 10.3585 13.712C10.3585 12.906 9.70322 12.2507 8.89755 12.2507Z" fill="#464649"/>
<path d="M21.9658 12.2507C21.1601 12.2507 20.5048 12.906 20.5048 13.712C20.5048 14.5177 21.1601 15.1729 21.9658 15.1729C22.7718 15.1729 23.427 14.5177 23.427 13.712C23.427 12.906 22.7714 12.2507 21.9658 12.2507Z" fill="#464649"/>
</g>
<defs>
<clipPath id="clip0">
<rect width="44" height="44" fill="white"/>
</clipPath>
</defs>
</svg>
