<svg width="257" height="109" viewBox="0 0 257 109" fill="none" xmlns="http://www.w3.org/2000/svg">
<path d="M36.0844 99.832C32.7404 96.856 31.0684 93.368 31.0684 89.368C31.0684 85.336 32.7404 81.848 36.0844 78.904L38.1244 80.392C36.7484 81.832 35.7164 83.28 35.0284 84.736C34.3404 86.176 33.9964 87.72 33.9964 89.368C33.9964 91.016 34.3404 92.56 35.0284 94C35.7164 95.424 36.7484 96.856 38.1244 98.296L36.0844 99.832ZM46.4858 81.112C48.3098 81.112 49.8058 81.536 50.9738 82.384C52.1418 83.216 52.7258 84.28 52.7258 85.576C52.7258 86.36 52.4538 87.064 51.9098 87.688C51.3818 88.296 50.6138 88.688 49.6058 88.864C50.9338 89.392 51.8538 89.928 52.3658 90.472C52.9738 91.112 53.2778 91.912 53.2778 92.872C53.2778 94.2 52.7018 95.272 51.5498 96.088C50.3498 96.92 48.7258 97.336 46.6778 97.336C44.7098 97.336 43.1178 96.904 41.9018 96.04C40.7018 95.208 40.1018 94.128 40.1018 92.8C40.1018 91.824 40.4378 91.04 41.1098 90.448C41.7978 89.84 42.6698 89.472 43.7258 89.344C42.3338 88.672 41.3898 87.8 40.8938 86.728C40.7178 86.328 40.6298 85.872 40.6298 85.36C40.6298 84.048 41.1498 83.016 42.1898 82.264C43.2458 81.496 44.6778 81.112 46.4858 81.112ZM46.1978 90.328C44.7418 90.424 43.7578 90.888 43.2458 91.72C43.1018 91.96 43.0298 92.24 43.0298 92.56C43.0298 92.88 43.1258 93.176 43.3178 93.448C43.5098 93.72 43.7738 93.952 44.1098 94.144C44.7498 94.528 45.6458 94.72 46.7978 94.72C47.9658 94.72 48.8458 94.568 49.4378 94.264C50.0458 93.944 50.3498 93.56 50.3498 93.112C50.3498 92.648 50.1978 92.28 49.8938 92.008C49.6058 91.72 49.2058 91.472 48.6938 91.264L46.1978 90.328ZM45.1418 87.136L46.9418 87.832C47.7098 87.832 48.3818 87.64 48.9578 87.256C49.5178 86.872 49.7978 86.368 49.7978 85.744C49.7978 85.12 49.5098 84.624 48.9338 84.256C48.3578 83.872 47.6058 83.68 46.6778 83.68C45.7818 83.68 45.0378 83.848 44.4458 84.184C43.8538 84.52 43.5578 84.992 43.5578 85.6C43.5578 86.192 44.0858 86.704 45.1418 87.136ZM65.9848 81.424V84.136L59.3368 97H55.5208L62.6488 84.16H55.0408V81.424H65.9848ZM77.938 81.424V84.136L71.29 97H67.474L74.602 84.16H66.994V81.424H77.938ZM81.2031 78.904C84.5471 81.88 86.2191 85.368 86.2191 89.368C86.2191 93.336 84.5471 96.824 81.2031 99.832L79.1391 98.296C80.5311 96.856 81.5711 95.424 82.2591 94C82.9471 92.56 83.2911 91.016 83.2911 89.368C83.2911 87.72 82.9391 86.176 82.2351 84.736C81.5471 83.28 80.5151 81.832 79.1391 80.392L81.2031 78.904ZM95.1548 88.528H101.899V91H95.1548V88.528ZM116.49 83.68C114.746 83.68 113.73 84.344 113.442 85.672H110.466C110.626 84.136 111.25 82.976 112.338 82.192C113.362 81.472 114.706 81.112 116.37 81.112C118.082 81.112 119.474 81.512 120.546 82.312C121.666 83.128 122.226 84.176 122.226 85.456C122.226 86.256 122.01 86.952 121.578 87.544C121.146 88.12 120.506 88.552 119.658 88.84C120.602 89.16 121.354 89.64 121.914 90.28C122.49 90.904 122.778 91.624 122.778 92.44C122.778 93.256 122.626 93.952 122.322 94.528C122.034 95.104 121.618 95.6 121.074 96.016C119.922 96.896 118.426 97.336 116.586 97.336C114.826 97.336 113.346 96.888 112.146 95.992C110.802 95.016 110.13 93.72 110.13 92.104H113.154C113.202 92.92 113.53 93.56 114.138 94.024C114.762 94.488 115.57 94.72 116.562 94.72C117.554 94.72 118.322 94.504 118.866 94.072C119.426 93.624 119.706 93.064 119.706 92.392C119.706 91.704 119.45 91.168 118.938 90.784C118.442 90.4 117.65 90.208 116.562 90.208H114.498V87.976H116.274C117.186 87.976 117.898 87.784 118.41 87.4C118.922 87 119.178 86.48 119.178 85.84C119.178 85.2 118.954 84.68 118.506 84.28C118.074 83.88 117.402 83.68 116.49 83.68ZM125.012 82.6C126.212 82.424 127.268 82 128.18 81.328H130.316V97H127.484V84.712C126.668 85.112 125.844 85.312 125.012 85.312V82.6ZM133.59 82.6C134.79 82.424 135.846 82 136.758 81.328H138.894V97H136.062V84.712C135.246 85.112 134.422 85.312 133.59 85.312V82.6ZM148.334 88.528H155.078V91H148.334V88.528ZM169.67 83.68C167.926 83.68 166.91 84.344 166.622 85.672H163.646C163.806 84.136 164.43 82.976 165.518 82.192C166.542 81.472 167.886 81.112 169.55 81.112C171.262 81.112 172.654 81.512 173.726 82.312C174.846 83.128 175.406 84.176 175.406 85.456C175.406 86.256 175.19 86.952 174.758 87.544C174.326 88.12 173.686 88.552 172.838 88.84C173.782 89.16 174.534 89.64 175.094 90.28C175.67 90.904 175.958 91.624 175.958 92.44C175.958 93.256 175.806 93.952 175.502 94.528C175.214 95.104 174.798 95.6 174.254 96.016C173.102 96.896 171.606 97.336 169.766 97.336C168.006 97.336 166.526 96.888 165.326 95.992C163.982 95.016 163.31 93.72 163.31 92.104H166.334C166.382 92.92 166.71 93.56 167.318 94.024C167.942 94.488 168.75 94.72 169.742 94.72C170.734 94.72 171.502 94.504 172.046 94.072C172.606 93.624 172.886 93.064 172.886 92.392C172.886 91.704 172.63 91.168 172.118 90.784C171.622 90.4 170.83 90.208 169.742 90.208H167.678V87.976H169.454C170.366 87.976 171.078 87.784 171.59 87.4C172.102 87 172.358 86.48 172.358 85.84C172.358 85.2 172.134 84.68 171.686 84.28C171.254 83.88 170.582 83.68 169.67 83.68ZM188.416 81.256V91.12H191.128V93.544H188.416V97H185.608V93.544H177.712V91.408L185.68 81.256H188.416ZM181.072 91.408H185.752V85.456L181.072 91.408ZM192.465 82.6C193.665 82.424 194.721 82 195.633 81.328H197.769V97H194.937V84.712C194.121 85.112 193.297 85.312 192.465 85.312V82.6ZM207.067 94.72C209.499 94.72 210.715 92.72 210.715 88.72C210.715 88.288 210.683 87.816 210.619 87.304C210.411 88.552 209.891 89.496 209.059 90.136C208.323 90.696 207.387 90.976 206.251 90.976C204.795 90.976 203.603 90.52 202.675 89.608C201.763 88.68 201.307 87.496 201.307 86.056C201.307 84.584 201.827 83.392 202.867 82.48C203.907 81.568 205.259 81.112 206.923 81.112C208.811 81.112 210.387 81.832 211.651 83.272C212.931 84.744 213.571 86.64 213.571 88.96C213.571 92.976 212.371 95.576 209.971 96.76C209.171 97.144 208.299 97.336 207.355 97.336C206.427 97.336 205.611 97.216 204.907 96.976C204.219 96.736 203.619 96.4 203.107 95.968C202.019 95.056 201.475 93.864 201.475 92.392H204.427C204.459 93.112 204.715 93.68 205.195 94.096C205.691 94.512 206.315 94.72 207.067 94.72ZM206.947 83.704C206.179 83.704 205.531 83.928 205.003 84.376C204.491 84.808 204.235 85.416 204.235 86.2C204.235 86.968 204.491 87.568 205.003 88C205.531 88.432 206.179 88.648 206.947 88.648C207.699 88.648 208.339 88.424 208.867 87.976C209.395 87.496 209.659 86.896 209.659 86.176C209.659 85.44 209.395 84.84 208.867 84.376C208.355 83.928 207.715 83.704 206.947 83.704Z" fill="#3154F5"/>
<path d="M15.648 15.224C17.568 15.224 19.232 15.464 20.64 15.944C22.048 16.392 23.264 17.032 24.288 17.864C26.304 19.496 27.616 21.784 28.224 24.728L22.176 25.832C21.664 24.2 20.864 22.888 19.776 21.896C18.72 20.872 17.392 20.36 15.792 20.36C13.616 20.36 11.856 21.272 10.512 23.096C9.072 25.08 8.352 27.832 8.352 31.352C8.352 34.84 8.992 37.576 10.272 39.56C11.552 41.512 13.296 42.488 15.504 42.488C17.712 42.488 19.376 41.96 20.496 40.904C21.616 39.816 22.176 38.424 22.176 36.728H28.272C28.272 40.216 27.152 42.92 24.912 44.84C22.704 46.728 19.664 47.672 15.792 47.672C11.664 47.672 8.384 46.232 5.952 43.352C3.488 40.408 2.256 36.408 2.256 31.352C2.256 26.232 3.52 22.232 6.048 19.352C8.48 16.6 11.68 15.224 15.648 15.224ZM42.5659 33.368C44.4219 33.368 46.5659 33.672 48.9979 34.28V31.976C48.9979 30.344 48.6619 29.144 47.9899 28.376C47.3499 27.576 46.2779 27.176 44.7739 27.176C43.3019 27.176 42.1659 27.48 41.3659 28.088C40.5659 28.664 40.1659 29.496 40.1659 30.584H33.9739C33.9739 27.928 34.9019 26.008 36.7579 24.824C38.6459 23.64 41.2699 23.048 44.6299 23.048C49.4299 23.048 52.5339 24.728 53.9419 28.088C54.4219 29.24 54.6619 30.6 54.6619 32.168V47H49.7179L49.2859 43.88C47.7819 46.408 45.4779 47.672 42.3739 47.672C39.3659 47.672 37.0299 46.936 35.3659 45.464C33.8299 44.056 33.0619 42.28 33.0619 40.136C33.0619 37.96 33.9099 36.296 35.6059 35.144C37.3019 33.96 39.6219 33.368 42.5659 33.368ZM48.9979 37.88C47.1099 37.368 45.3499 37.112 43.7179 37.112C40.6459 37.112 39.1099 38.136 39.1099 40.184C39.1099 41.048 39.4619 41.8 40.1659 42.44C40.8699 43.048 41.9899 43.352 43.5259 43.352C45.0939 43.352 46.3739 42.84 47.3659 41.816C48.3899 40.76 48.9339 39.448 48.9979 37.88ZM62.9171 14.072H68.5811V47H62.9171V14.072ZM77.4953 14.072H83.1593V47H77.4953V14.072ZM100.038 15.848H124.998V20.744H115.35V47H109.686V20.744H100.038V15.848ZM134.57 23.048C136.138 23.048 137.61 23.304 138.986 23.816C140.362 24.296 141.546 25.048 142.538 26.072C144.746 28.312 145.85 31.416 145.85 35.384C145.85 39.288 144.746 42.36 142.538 44.6C140.554 46.648 137.898 47.672 134.57 47.672C131.242 47.672 128.554 46.648 126.506 44.6C124.298 42.392 123.194 39.32 123.194 35.384C123.194 31.384 124.298 28.28 126.506 26.072C128.522 24.056 131.21 23.048 134.57 23.048ZM140.186 35.336C140.186 32.872 139.706 31.032 138.746 29.816C137.786 28.568 136.442 27.944 134.714 27.944C133.018 27.944 131.626 28.568 130.538 29.816C129.45 31.032 128.906 32.872 128.906 35.336C128.906 37.8 129.386 39.656 130.346 40.904C131.338 42.12 132.682 42.728 134.378 42.728C136.074 42.728 137.466 42.12 138.554 40.904C139.642 39.656 140.186 37.8 140.186 35.336ZM167.805 43.4C166.365 46.248 164.157 47.672 161.181 47.672C158.205 47.672 155.709 46.536 153.693 44.264C151.613 41.896 150.573 38.888 150.573 35.24C150.573 31.592 151.565 28.632 153.549 26.36C155.501 24.152 157.933 23.048 160.845 23.048C163.757 23.048 165.949 24.216 167.421 26.552V14.072H173.133V47H168.477L167.805 43.4ZM161.901 28.136C160.301 28.136 158.957 28.792 157.869 30.104C156.813 31.384 156.285 33.112 156.285 35.288C156.285 37.464 156.829 39.224 157.917 40.568C159.005 41.88 160.381 42.536 162.045 42.536C163.421 42.536 164.653 41.992 165.741 40.904C166.861 39.784 167.421 38.376 167.421 36.68V33.656C167.357 31.992 166.797 30.632 165.741 29.576C164.781 28.616 163.501 28.136 161.901 28.136ZM189.753 33.368C191.609 33.368 193.753 33.672 196.185 34.28V31.976C196.185 30.344 195.849 29.144 195.177 28.376C194.537 27.576 193.465 27.176 191.961 27.176C190.489 27.176 189.353 27.48 188.553 28.088C187.753 28.664 187.353 29.496 187.353 30.584H181.161C181.161 27.928 182.089 26.008 183.945 24.824C185.833 23.64 188.457 23.048 191.817 23.048C196.617 23.048 199.721 24.728 201.129 28.088C201.609 29.24 201.849 30.6 201.849 32.168V47H196.905L196.473 43.88C194.969 46.408 192.665 47.672 189.561 47.672C186.553 47.672 184.217 46.936 182.553 45.464C181.017 44.056 180.249 42.28 180.249 40.136C180.249 37.96 181.097 36.296 182.793 35.144C184.489 33.96 186.809 33.368 189.753 33.368ZM196.185 37.88C194.297 37.368 192.537 37.112 190.905 37.112C187.833 37.112 186.297 38.136 186.297 40.184C186.297 41.048 186.649 41.8 187.353 42.44C188.057 43.048 189.177 43.352 190.713 43.352C192.281 43.352 193.561 42.84 194.553 41.816C195.577 40.76 196.121 39.448 196.185 37.88ZM212.985 23.672L218.601 40.472L223.497 23.672H229.257L220.329 51.224C219.401 54.008 218.265 56.008 216.921 57.224C215.609 58.44 213.929 59.048 211.881 59.048C209.801 59.048 207.721 58.536 205.641 57.512V52.52C207.305 53.576 208.985 54.104 210.681 54.104C211.801 54.104 212.713 53.656 213.417 52.76C214.153 51.864 214.745 50.696 215.193 49.256L215.913 47L206.553 23.672H212.985ZM233.956 15.128H240.1L239.428 36.488H234.58L233.956 15.128ZM237.028 47.432C235.876 47.432 234.932 47.08 234.196 46.376C233.46 45.672 233.092 44.776 233.092 43.688C233.092 42.6 233.46 41.688 234.196 40.952C234.932 40.216 235.876 39.848 237.028 39.848C238.18 39.848 239.14 40.216 239.908 40.952C240.676 41.688 241.06 42.6 241.06 43.688C241.06 44.776 240.676 45.672 239.908 46.376C239.14 47.08 238.18 47.432 237.028 47.432Z" fill="#3154F5"/>
</svg>
