<svg width="64" height="64" viewBox="0 0 64 64" fill="none" xmlns="http://www.w3.org/2000/svg">
<path fill-rule="evenodd" clip-rule="evenodd" d="M48.2788 61.7726L61.7714 48.2964C62.9156 47.1536 62.9156 45.282 61.7714 44.1393L59.5468 41.9209C58.4027 40.778 56.5323 40.778 55.3882 41.9209L55.3281 41.9774L41.9523 55.337L41.8956 55.3971C40.7514 56.5399 40.7514 58.408 41.8956 59.5507L44.1202 61.7726C44.3469 61.9991 44.6054 62.1831 44.8817 62.321H47.5172C47.7936 62.1831 48.0486 61.9991 48.2788 61.7726Z" fill="#DAD0D3"/>
<path fill-rule="evenodd" clip-rule="evenodd" d="M41.952 55.3367L55.3277 41.9772L49.4758 36.1323C40.7122 31.1686 33.6171 42.5468 35.5688 48.9612L41.952 55.3367Z" fill="#FFDCD5"/>
<path fill-rule="evenodd" clip-rule="evenodd" d="M16.2603 62.3219H18.8958C19.1722 62.184 19.4272 62 19.6574 61.7735L21.8821 59.5516C23.0262 58.4089 23.0262 56.5407 21.8821 55.398L21.8218 55.3379L8.44607 41.9784L8.38932 41.9219C7.2452 40.779 5.37132 40.779 4.2272 41.9219L2.0062 44.1402C0.861948 45.283 0.861948 47.1546 2.0062 48.2974L15.4952 61.7736C15.7254 62 15.9839 62.184 16.2603 62.3219Z" fill="#899BF0"/>
<path fill-rule="evenodd" clip-rule="evenodd" d="M37.737 47.8542L45.9975 39.607L49.4761 36.1327L50.5707 35.0395C51.7785 33.8294 51.7785 31.8553 50.5707 30.6488C49.3629 29.4388 47.3826 29.4388 46.1747 30.6488L47.2764 29.5449C48.4877 28.3385 48.4877 26.3608 47.2764 25.1543C46.0684 23.9443 44.0882 23.9443 42.8804 25.1543L43.982 24.0504C45.1935 22.844 45.1935 20.8663 43.982 19.6598C42.7741 18.4533 40.794 18.4533 39.586 19.6598L40.6912 18.5595C41.8991 17.3495 41.8991 15.3753 40.6912 14.1653C39.958 13.4364 38.945 13.1464 37.992 13.302C37.3685 13.4012 36.7699 13.6877 36.2916 14.1653L31.8886 18.5665L32.0302 18.708L32.055 18.7329C33.263 19.9393 33.263 21.917 32.055 23.1235C30.8471 24.3335 28.867 24.3335 27.659 23.1235C28.867 24.3335 28.867 26.3077 27.659 27.5177C26.4476 28.7242 24.471 28.7242 23.2595 27.5177C24.471 28.7242 24.471 30.7019 23.2595 31.9084C22.0516 33.1148 20.075 33.1148 18.8635 31.9084C20.075 33.1148 20.075 35.0927 18.8635 36.299C17.6556 37.509 15.6755 37.509 14.4675 36.299L14.301 36.1327L8.44562 41.9775L21.8212 55.337L27.411 49.754C28.9944 48.116 32.7031 49.5489 35.5689 48.9615C36.3839 48.7953 37.1276 48.4627 37.737 47.8542Z" fill="#FFD0C7"/>
<path fill-rule="evenodd" clip-rule="evenodd" d="M27.6593 23.1234C28.8673 24.3334 30.8475 24.3334 32.0553 23.1234C33.2633 21.9169 33.2633 19.9391 32.0553 18.7327L32.0306 18.7079C30.1638 18.5735 26.5932 15.3362 26.3807 13.0647C25.1691 11.8547 23.1926 11.8547 21.9812 13.0647C20.7732 14.2712 20.7732 16.249 21.9812 17.4554L23.0863 18.5592L27.6593 23.1234Z" fill="#FFDCD5"/>
<path fill-rule="evenodd" clip-rule="evenodd" d="M23.2596 27.5174C24.4711 28.7239 26.4477 28.7239 27.6591 27.5174C28.8671 26.3074 28.8671 24.3332 27.6591 23.1232L23.0861 18.5592C21.8746 17.3492 19.8979 17.3492 18.6901 18.5592C17.4786 19.7656 17.4786 21.7399 18.6901 22.9499L19.7917 24.0502L23.2596 27.5174Z" fill="#FFDCD5"/>
<path fill-rule="evenodd" clip-rule="evenodd" d="M18.8639 31.9086C20.0754 33.115 22.052 33.115 23.2599 31.9086C24.4714 30.7021 24.4714 28.7244 23.2599 27.5179L19.792 24.0507C18.5841 22.8443 16.604 22.8443 15.396 24.0507C14.1846 25.2607 14.1846 27.2349 15.396 28.4449L17.6029 30.649L18.8639 31.9086Z" fill="#FFDCD5"/>
<path fill-rule="evenodd" clip-rule="evenodd" d="M14.4671 36.2993C15.6751 37.5093 17.6553 37.5093 18.8631 36.2993C20.0746 35.093 20.0746 33.1151 18.8631 31.9087L17.6021 30.6491C16.3906 29.4391 14.414 29.4391 13.2026 30.6491C11.9946 31.8556 11.9946 33.8297 13.2026 35.0398L14.3008 36.133L14.4671 36.2993Z" fill="#FFDCD5"/>
<path fill-rule="evenodd" clip-rule="evenodd" d="M31.8891 18.5667L36.2921 14.1655C36.7704 13.6879 37.369 13.4014 37.9925 13.3022L29.4874 11.6925C27.8084 11.374 26.2179 11.3635 26.3809 13.0652C26.5934 15.3366 30.164 18.5739 32.0307 18.7084L31.8891 18.5667Z" fill="#FFDCD5"/>
<path d="M31.8887 8.1325C32.5839 8.1325 33.1476 7.56887 33.1476 6.87362V1.25888C33.1476 0.563625 32.5839 0 31.8887 0C31.1934 0 30.6298 0.563625 30.6298 1.25888V6.87362C30.6299 7.56887 31.1936 8.1325 31.8887 8.1325Z" fill="black"/>
<path d="M62.66 43.2479L60.4361 41.0303C59.645 40.2401 58.5906 39.8049 57.4671 39.8049C56.7487 39.8049 56.0591 39.9836 55.448 40.3185L51.2573 36.1328L51.4614 35.9289C53.1615 34.2254 53.1609 31.4573 51.4613 29.7595C50.8539 29.151 50.096 28.7453 49.2699 28.5745C49.3836 28.1819 49.4435 27.7706 49.4435 27.3498C49.4435 26.1804 48.9893 25.0839 48.167 24.265C47.5595 23.6565 46.8018 23.2508 45.9756 23.08C46.0894 22.6874 46.1493 22.2763 46.1493 21.8553C46.1493 20.6858 45.695 19.5894 44.8714 18.7693C44.2494 18.148 43.4847 17.7548 42.6819 17.5874C43.1114 16.1065 42.7444 14.4404 41.5794 13.2734C40.6098 12.3077 39.2938 11.8927 38.0256 12.0272L29.7213 10.4554C28.4548 10.2151 26.8731 10.0562 25.8749 10.9669C25.8119 11.0244 25.7476 11.0905 25.6843 11.1641C24.1363 10.5999 22.3309 10.9359 21.0911 12.1741C20.2688 12.9955 19.8158 14.0915 19.8158 15.2602C19.8158 15.6812 19.8754 16.0924 19.989 16.4851C19.1638 16.6557 18.4069 17.061 17.8015 17.6675C16.9775 18.4881 16.5231 19.5829 16.5223 20.7503C16.5219 21.1723 16.5818 21.5848 16.696 21.9785C15.8704 22.1488 15.113 22.5533 14.5058 23.1598C13.6818 23.9829 13.228 25.0795 13.228 26.2476C13.228 27.1425 13.4951 27.9948 13.9901 28.7148C13.3651 28.9266 12.7926 29.2793 12.3133 29.7581C10.612 31.4573 10.6114 34.2255 12.3144 35.9315L12.5178 36.134L8.3265 40.3176C6.76888 39.5843 4.84976 39.859 3.56438 41.1428L1.33913 43.3618C0.54763 44.1523 0.11188 45.2068 0.111755 46.3309C0.111755 47.4551 0.54763 48.5098 1.33913 49.3004L4.11625 52.0741C4.60813 52.5655 5.40525 52.565 5.8965 52.0731C6.38788 51.5813 6.38738 50.7841 5.8955 50.2929L3.11838 47.5191C2.80313 47.2043 2.62951 46.7823 2.62951 46.331C2.62951 45.8799 2.80313 45.458 3.11763 45.1439L5.343 42.9248C5.899 42.3693 6.75 42.2866 7.39625 42.673C7.44175 42.7414 7.49438 42.8065 7.55463 42.8668C7.66238 42.9749 7.7855 43.0578 7.91638 43.1184L20.678 55.8613C20.7386 55.9934 20.8219 56.1178 20.9305 56.2265C21.0363 56.3325 21.1569 56.4143 21.2849 56.4745C21.5548 56.7796 21.7039 57.1694 21.7039 57.5851C21.7039 58.0364 21.5303 58.4583 21.215 58.7731L18.9919 60.9936C18.335 61.6476 17.2665 61.6475 16.6116 60.9956L13.8344 58.2183C13.3428 57.7266 12.5458 57.7266 12.0541 58.2181C11.5625 58.7098 11.5624 59.5068 12.054 59.9984L14.8331 62.7778C15.6513 63.5923 16.7255 63.9995 17.8001 63.9995C18.8751 63.9995 19.9506 63.5918 20.7696 62.7764L22.9941 60.5545C23.7856 59.7639 24.2215 58.7094 24.2215 57.585C24.2215 56.7826 23.9984 56.0164 23.5834 55.3556L28.3004 50.6444C28.3054 50.6393 28.3105 50.6341 28.3155 50.6291C28.8556 50.0708 30.3598 50.1753 31.8144 50.2763C32.8479 50.348 34.0001 50.428 35.1259 50.2983L40.2914 55.4576C39.9567 56.0678 39.7781 56.7565 39.7781 57.4738C39.7781 58.5969 40.214 59.6508 41.0055 60.4414L43.2301 62.6633C44.0211 63.4534 45.0755 63.8886 46.199 63.8886C47.3224 63.8886 48.3768 63.4534 49.1679 62.6633L62.6605 49.187C63.452 48.3965 63.8879 47.342 63.8879 46.2178C63.8881 45.0936 63.4523 44.0391 62.66 43.2479ZM29.2525 12.9291L34.7134 13.9627L31.4448 17.2301C30.9391 16.9871 30.2461 16.5339 29.4859 15.8066C28.4453 14.8111 27.7008 13.6617 27.6331 12.9449C27.633 12.9445 27.633 12.9441 27.633 12.9437C27.633 12.9436 27.633 12.9435 27.633 12.9434C27.6281 12.8919 27.6269 12.8507 27.6275 12.8194C27.7919 12.7794 28.2294 12.735 29.2525 12.9291ZM22.8703 13.9555C23.508 13.3184 24.4988 13.2449 25.2194 13.7329C25.6278 15.4451 27.0884 16.997 27.7455 17.6257C28.2325 18.0917 29.7951 19.4889 31.3724 19.8729C31.5858 20.1788 31.7019 20.5434 31.7019 20.9281C31.7019 21.4238 31.5113 21.8871 31.1639 22.2341C30.8175 22.5811 30.3534 22.7721 29.8569 22.7721C29.3603 22.7721 28.8961 22.5811 28.5481 22.2325L28.548 22.2324L28.5474 22.2318L22.8701 16.5648C22.524 16.2191 22.3334 15.7557 22.3334 15.2602C22.3335 14.7646 22.5241 14.3012 22.8703 13.9555ZM19.5808 19.4489C19.9271 19.102 20.3908 18.9109 20.8865 18.9109C21.3829 18.9109 21.848 19.1024 22.1966 19.4506L26.7681 24.013C27.488 24.734 27.488 25.9073 26.7706 26.6258C26.4224 26.9726 25.9566 27.1636 25.4593 27.1636C24.9619 27.1636 24.4961 26.9726 24.1494 26.6273L24.1493 26.6271L20.6811 23.1598C20.6758 23.1544 20.6699 23.1494 20.6644 23.1439L19.5794 22.0594C19.2313 21.7116 19.0396 21.2474 19.04 20.7521C19.0405 20.2585 19.2315 19.7966 19.5808 19.4489ZM16.285 24.9411C16.6316 24.595 17.0963 24.4044 17.5935 24.4044C18.0866 24.4044 18.5473 24.5923 18.8924 24.9324L22.3711 28.4095C22.718 28.755 22.9091 29.2179 22.9091 29.7129C22.9091 30.2078 22.718 30.6706 22.3698 31.0175C22.0233 31.3635 21.5591 31.5541 21.0628 31.5541C20.5656 31.5541 20.1 31.363 19.753 31.0175L18.4919 29.7579C18.4916 29.7575 18.4913 29.7573 18.491 29.757L16.2851 27.5538C15.9374 27.2064 15.7459 26.7424 15.7459 26.2474C15.7459 25.7525 15.9374 25.2884 16.285 24.9411ZM14.0925 31.5395C14.4406 31.1918 14.9059 31.0003 15.4025 31.0003C15.8989 31.0003 16.364 31.1916 16.7121 31.5391L17.975 32.8005C18.3219 33.146 18.513 33.6089 18.513 34.1039C18.513 34.5989 18.3219 35.0616 17.9724 35.4099C17.626 35.7568 17.1619 35.9479 16.6654 35.9479C16.1688 35.9479 15.7046 35.7569 15.3558 35.4074L15.1976 35.2499C15.1955 35.2478 15.1939 35.2455 15.1919 35.2435C15.1895 35.2413 15.187 35.2393 15.1846 35.237L14.0938 34.1504C13.3739 33.4289 13.3733 32.2578 14.0925 31.5395ZM39.7467 45.8466C39.2554 45.3546 38.4583 45.3543 37.9665 45.8455L36.8465 46.964C35.7823 48.0283 33.8539 47.8943 31.9889 47.7649C29.9638 47.6241 27.8696 47.4789 26.5145 48.8701L21.8776 53.5014L10.2823 41.923L14.3858 37.8269C15.064 38.2426 15.8466 38.4655 16.6655 38.4655C17.8353 38.4655 18.9324 38.012 19.7518 37.1911C20.5766 36.3696 21.031 35.2733 21.031 34.1038C21.031 34.0929 21.0303 34.0821 21.0303 34.0713C21.0411 34.0714 21.052 34.072 21.0629 34.072C22.2311 34.072 23.3273 33.6199 24.1478 32.8004C24.9726 31.9789 25.427 30.8824 25.427 29.713C25.427 29.7021 25.4263 29.6914 25.4263 29.6805C25.4373 29.6805 25.4483 29.6813 25.4594 29.6813C26.6273 29.6813 27.724 29.2296 28.55 28.407C29.4075 27.5481 29.8316 26.4174 29.8235 25.289C29.8348 25.289 29.846 25.2898 29.8573 25.2898C31.0271 25.2898 32.124 24.8363 32.9446 24.0141C33.767 23.1928 34.22 22.0968 34.22 20.928C34.22 20.1108 33.9977 19.3294 33.5834 18.6524L37.18 15.0572C37.448 14.7904 37.7785 14.6229 38.1249 14.5537C38.1624 14.5497 38.1994 14.5437 38.236 14.5365C38.7918 14.4599 39.3754 14.6312 39.8004 15.0546C40.5203 15.7758 40.5203 16.949 39.803 17.6675L38.7076 18.7584C38.704 18.762 38.7001 18.7653 38.6965 18.769L37.435 20.0285C36.943 20.5198 36.9425 21.3169 37.4339 21.8088C37.9254 22.3008 38.7224 22.3011 39.2141 21.8099L40.3139 20.7116C40.3141 20.7114 40.3144 20.7111 40.3146 20.7109L40.4809 20.5453C41.2028 19.83 42.3723 19.8315 43.0934 20.5516C43.4404 20.8971 43.6315 21.36 43.6315 21.855C43.6315 22.3499 43.4404 22.8128 43.0906 23.161L41.989 24.2649C41.9889 24.265 41.9888 24.2651 41.9886 24.2654L40.7271 25.5218C40.2345 26.0124 40.2329 26.8095 40.7235 27.302C41.2141 27.7946 42.0111 27.7961 42.5037 27.3056L43.771 26.0435C44.1174 25.6965 44.5815 25.5055 45.078 25.5055C45.5746 25.5055 46.0389 25.6965 46.3877 26.046C46.7347 26.3916 46.9258 26.8545 46.9258 27.3494C46.9258 27.8443 46.7348 28.3071 46.3857 28.6546L44.1895 30.8518C43.698 31.3435 43.6981 32.1405 44.1898 32.632C44.4356 32.8778 44.7576 33.0005 45.0798 33.0005C45.402 33.0005 45.7243 32.8775 45.97 32.6316L47.0464 31.5549C47.0525 31.549 47.0591 31.5439 47.0653 31.5378C47.4116 31.1908 47.8758 30.9998 48.3722 30.9998C48.8688 30.9998 49.333 31.1908 49.6806 31.539C50.3998 32.2574 50.3991 33.4286 49.6808 34.1484L48.5864 35.2415C48.586 35.2419 48.5855 35.2423 48.5851 35.2426C48.5848 35.243 48.5844 35.2435 48.584 35.2439L46.847 36.9788C46.3551 37.4701 46.3546 38.2671 46.8459 38.7591C47.0918 39.0053 47.4143 39.1284 47.7366 39.1284C48.0586 39.1284 48.3805 39.0056 48.6263 38.7603L49.4759 37.9116L53.548 41.979L41.9536 53.5593L37.7994 49.41C38.089 49.2238 38.3661 49.0048 38.6263 48.7446L39.7456 47.6266C40.2376 47.1356 40.2381 46.3385 39.7467 45.8466ZM60.8815 47.4056L47.3889 60.8819C47.0732 61.1971 46.6507 61.3708 46.1992 61.3708C45.7477 61.3708 45.3252 61.1971 45.0095 60.8818L42.7849 58.6599C42.4696 58.3451 42.296 57.9239 42.296 57.4738C42.296 57.0238 42.4696 56.6025 42.7849 56.2876L56.2775 42.8114C56.5933 42.496 57.0158 42.3224 57.4673 42.3224C57.9188 42.3224 58.3412 42.496 58.6576 42.8121L60.8815 45.0298C61.1968 45.3446 61.3704 45.7664 61.3704 46.2176C61.3704 46.669 61.1968 47.0909 60.8815 47.4056Z" fill="black"/>
<path d="M15.1727 7.07145C15.4185 7.3167 15.7402 7.4392 16.062 7.4392C16.3845 7.4392 16.7071 7.31595 16.953 7.06958C17.4441 6.57745 17.4434 5.78045 16.9512 5.28933L12.364 0.7112C11.872 0.21995 11.0749 0.2207 10.5837 0.71295C10.0926 1.20507 10.0934 2.00208 10.5855 2.4932L15.1727 7.07145Z" fill="black"/>
<path d="M47.7154 7.43927C48.0373 7.43927 48.3593 7.31652 48.6051 7.07115L53.1888 2.4929C53.6807 2.00165 53.6812 1.20452 53.1898 0.71265C52.6986 0.22065 51.9016 0.220275 51.4096 0.71165L46.8258 5.2899C46.3339 5.78115 46.3334 6.57827 46.8248 7.07015C47.0707 7.31615 47.3931 7.43927 47.7154 7.43927Z" fill="black"/>
<path d="M7.85205 54.1504C7.36467 54.6461 7.37142 55.4433 7.8673 55.9306L7.87092 55.9341C8.11555 56.1746 8.43317 56.2944 8.75067 56.2944C9.07655 56.2944 9.40242 56.1683 9.64929 55.9171C10.1367 55.4214 10.128 54.6225 9.63229 54.1351C9.13654 53.6478 8.33955 53.6546 7.85205 54.1504Z" fill="black"/>
<path d="M42.8257 44.0335C43.0172 44.0335 43.2115 43.9899 43.3939 43.898C44.0146 43.5849 44.264 42.8279 43.951 42.2072C43.6379 41.5864 42.8807 41.3369 42.2601 41.65L42.2531 41.6535C41.6324 41.9667 41.3865 42.7219 41.6995 43.3427C41.9205 43.7812 42.365 44.0335 42.8257 44.0335Z" fill="black"/>
</svg>
