<svg width="74" height="74" viewBox="0 0 74 74" fill="none" xmlns="http://www.w3.org/2000/svg">
<g clip-path="url(#clip0)">
<path d="M37.0008 67.8335C54.0296 67.8335 67.8341 54.029 67.8341 37.0002C67.8341 19.9714 54.0296 6.16687 37.0008 6.16687C19.972 6.16687 6.16748 19.9714 6.16748 37.0002C6.16748 54.029 19.972 67.8335 37.0008 67.8335Z" fill="#B9DCFF"/>
<path d="M53.8541 11.1765C56.0711 12.6266 54.7871 16.0687 52.1652 15.69C30.4115 12.5492 11.5301 33.1873 18.3055 55.2973C19.0737 57.8042 15.889 59.6255 14.1296 57.6813C9.03163 52.0478 5.98669 44.5217 6.17354 36.2835C6.71852 12.2493 33.6736 -2.02201 53.8541 11.1765Z" fill="#D1E7FF"/>
<path d="M36.9997 58.4287C48.8347 58.4287 58.4289 48.8345 58.4289 36.9995C58.4289 25.1645 48.8347 15.5704 36.9997 15.5704C25.1647 15.5704 15.5706 25.1645 15.5706 36.9995C15.5706 48.8345 25.1647 58.4287 36.9997 58.4287Z" fill="#EEF7FF"/>
<path d="M36.9999 47.5792C42.8425 47.5792 47.5789 42.8429 47.5789 37.0003C47.5789 31.1577 42.8425 26.4214 36.9999 26.4214C31.1574 26.4214 26.421 31.1577 26.421 37.0003C26.421 42.8429 31.1574 47.5792 36.9999 47.5792Z" fill="#B9DCFF"/>
<path d="M35.3786 18.0175C26.8877 21.7557 20.403 29.2118 17.9863 38.3243C17.6269 39.6794 15.6372 39.4637 15.5639 38.0638C14.9748 26.839 23.5256 16.8111 34.7513 15.6629C36.1496 15.5198 36.665 17.4511 35.3786 18.0175Z" fill="#D1E7FF"/>
<path d="M19.4322 27.03C11.8081 40.4345 21.5423 57.1958 37 57.1958C48.1361 57.1958 57.1958 48.1359 57.1958 37C57.1958 20.9093 39.224 11.3413 25.8988 20.126C25.3302 20.5014 24.5652 20.3441 24.1901 19.7753C23.8152 19.2067 23.9723 18.4417 24.541 18.0668C39.4947 8.20753 59.6625 18.9431 59.6625 37C59.6625 49.4961 49.4961 59.6625 37 59.6625C19.6277 59.6625 8.74742 40.8261 17.2882 25.8106C17.6251 25.2186 18.3779 25.0115 18.9701 25.3482C19.5622 25.6849 19.7691 26.438 19.4322 27.03ZM34.5333 37C34.5333 38.3601 35.6399 39.4667 37 39.4667C38.3601 39.4667 39.4667 38.3601 39.4667 37C39.4667 35.6399 38.3601 34.5333 37 34.5333C35.6399 34.5333 34.5333 35.6399 34.5333 37ZM72.7667 35.7667H69.0406C68.4056 19.0641 54.9359 5.5944 38.2333 4.95939V1.23333C38.2333 0.552225 37.6811 0 37 0C36.3189 0 35.7667 0.552225 35.7667 1.23333V4.95939C19.0641 5.5944 5.5944 19.0641 4.95939 35.7667H1.23333C0.552225 35.7667 0 36.3189 0 37C0 37.6811 0.552225 38.2333 1.23333 38.2333H4.95939C5.59455 54.9359 19.0641 68.4056 35.7667 69.0406V72.7667C35.7667 73.4478 36.3189 74 37 74C37.6811 74 38.2333 73.4478 38.2333 72.7667V67.8333C38.2333 67.1522 37.6811 66.6 37 66.6C20.6785 66.6 7.4 53.3215 7.4 37C7.4 20.6785 20.6785 7.4 37 7.4C53.3215 7.4 66.6 20.6785 66.6 37C66.6 48.9232 59.5037 59.629 48.5212 64.2744C47.8939 64.5399 47.6003 65.2634 47.8658 65.8907C48.1311 66.5178 48.8548 66.8112 49.4821 66.5462C60.9994 61.6748 68.571 50.6505 69.0431 38.2333H72.7667C73.4478 38.2333 74 37.6811 74 37C74 36.3189 73.4478 35.7667 72.7667 35.7667ZM37 21.8917C36.3189 21.8917 35.7667 22.4439 35.7667 23.125V25.2516C30.2359 25.828 25.828 30.2359 25.2516 35.7667H23.125C22.4439 35.7667 21.8917 36.3189 21.8917 37C21.8917 37.6811 22.4439 38.2333 23.125 38.2333H25.2516C25.828 43.7641 30.2359 48.172 35.7667 48.7484V50.875C35.7667 51.5561 36.3189 52.1083 37 52.1083C37.6811 52.1083 38.2333 51.5561 38.2333 50.875V48.7483C41.3157 48.4281 44.1473 46.9146 46.139 44.4856C46.5708 43.9588 46.4939 43.1818 45.9673 42.7498C45.4406 42.3181 44.6635 42.3949 44.2315 42.9215C42.711 44.776 40.5717 45.9534 38.2333 46.2622V44.2844C38.2333 43.6033 37.6811 43.051 37 43.051C36.3189 43.051 35.7667 43.6033 35.7667 44.2844V46.2625C31.5982 45.7101 28.2899 42.4018 27.7375 38.2333H29.7156C30.3967 38.2333 30.949 37.6811 30.949 37C30.949 36.3189 30.3967 35.7667 29.7156 35.7667H27.7375C28.2899 31.5982 31.5982 28.2899 35.7667 27.7375V29.7156C35.7667 30.3967 36.3189 30.949 37 30.949C37.6811 30.949 38.2333 30.3967 38.2333 29.7156V27.7375C42.4018 28.2899 45.7101 31.5982 46.2625 35.7667H44.2844C43.6033 35.7667 43.051 36.3189 43.051 37C43.051 37.6811 43.6033 38.2333 44.2844 38.2333H50.875C51.5561 38.2333 52.1083 37.6811 52.1083 37C52.1083 36.3189 51.5561 35.7667 50.875 35.7667H48.7484C48.172 30.2359 43.7641 25.828 38.2333 25.2516V23.125C38.2333 22.4439 37.6811 21.8917 37 21.8917Z" fill="#2E58FF"/>
</g>
<defs>
<clipPath id="clip0">
<rect width="74" height="74" fill="white"/>
</clipPath>
</defs>
</svg>
